# Blender 4.4.3
# www.blender.org
mtllib tablero_procedural.mtl
o Tablero
v 0.121010 -0.023191 0.855564
v 0.121010 -0.023191 0.366675
v 0.365454 -0.023191 1.588897
v 0.365454 -0.023191 0.855564
v 0.365454 -0.023191 0.366675
v -0.367879 -0.023191 1.588897
v -0.367879 -0.023191 1.344453
v -0.367879 -0.023191 1.100008
v -0.367879 -0.023191 0.611119
v -0.367879 -0.023191 0.366675
v -0.123434 -0.023191 1.588897
v -0.123434 -0.023191 1.344453
v -1.834546 -0.023191 1.833342
v -1.834546 -0.023191 0.366675
v -1.590101 -0.023191 1.588897
v -1.590101 -0.023191 0.611119
v -0.612323 -0.023191 1.588897
v -0.612323 -0.023191 0.611119
v 0.121010 -0.023191 1.833342
v -0.123434 -0.023191 0.855564
v -0.001212 -0.023191 0.000008
v 0.365454 -0.023191 1.833342
v -0.367879 -0.023191 1.833342
v -0.123434 -0.023191 1.833342
v 0.121010 -0.023191 1.344453
v 0.121010 -0.023191 1.100008
v 0.121010 -0.023191 0.611119
v 0.365454 -0.023191 1.344453
v 0.365454 -0.023191 1.100008
v 0.365454 -0.023191 0.611119
v -0.367879 -0.023191 0.855564
v -0.123434 -0.023191 1.100008
v 0.121010 -0.023191 1.588897
v -0.123434 -0.023191 0.611119
v -0.123434 -0.023191 0.366675
v 0.136733 -0.001910 1.573175
v 0.136733 -0.001910 1.360175
v 0.136733 -0.001910 1.084286
v 0.136733 -0.001910 0.871287
v 0.136733 -0.001910 0.595397
v 0.136733 -0.001910 0.382398
v 0.349732 -0.001910 1.573175
v 0.349732 -0.001910 1.360175
v 0.349732 -0.001910 1.084286
v 0.349732 -0.001910 0.871287
v 0.349732 -0.001910 0.595397
v 0.349732 -0.001910 0.382398
v -0.352156 -0.001910 1.573175
v -0.352156 -0.001910 1.360175
v -0.352156 -0.001910 1.084286
v -0.352156 -0.001910 0.871287
v -0.352156 -0.001910 0.595397
v -0.352156 -0.001910 0.382398
v -0.139157 -0.001910 1.573175
v -0.139157 -0.001910 1.360175
v -0.139157 -0.001910 1.084286
v -0.139157 -0.001910 0.871287
v -0.139157 -0.001910 0.595397
v -0.139157 -0.001910 0.382398
v -1.818823 -0.001910 1.817619
v -0.383602 -0.001910 1.817619
v -1.605824 -0.001910 1.604620
v -1.605824 -0.001910 0.595397
v -0.596601 -0.001910 1.604620
v -0.596601 -0.001910 0.595397
v -0.383602 -0.001910 0.382398
v -1.818823 -0.001910 0.382398
v -0.107712 -0.001910 1.817619
v 0.105287 -0.001910 1.817619
v 0.105287 -0.001910 1.604620
v 0.105287 -0.001910 1.328730
v 0.105287 -0.001910 1.115731
v 0.105287 -0.001910 0.839841
v 0.105287 -0.001910 0.626842
v -0.107712 -0.001910 1.604620
v -0.107712 -0.001910 1.328730
v -0.107712 -0.001910 1.115731
v -0.107712 -0.001910 0.839841
v -0.107712 -0.001910 0.626842
v -0.329921 -0.001910 0.350952
v -0.001212 -0.001910 0.022244
v 0.327497 -0.001910 0.350952
v 0.136733 -0.001910 1.817619
v 0.349732 -0.001910 1.817619
v -0.352156 -0.001910 1.817619
v -0.139157 -0.001910 1.817619
v 0.136733 -0.001910 1.604620
v 0.136733 -0.001910 1.328730
v 0.136733 -0.001910 1.115731
v 0.136733 -0.001910 0.839841
v 0.136733 -0.001910 0.626842
v 0.349732 -0.001910 1.604620
v 0.349732 -0.001910 1.328730
v 0.349732 -0.001910 1.115731
v 0.349732 -0.001910 0.839841
v 0.349732 -0.001910 0.626842
v -0.352156 -0.001910 1.604620
v -0.352156 -0.001910 1.328730
v -0.352156 -0.001910 1.115731
v -0.352156 -0.001910 0.839841
v -0.352156 -0.001910 0.626842
v -0.139157 -0.001910 1.604620
v -0.139157 -0.001910 1.328730
v -0.139157 -0.001910 1.115731
v -0.139157 -0.001910 0.839841
v -0.139157 -0.001910 0.626842
v 0.105287 -0.001910 1.573175
v 0.105287 -0.001910 1.360175
v 0.105287 -0.001910 1.084286
v 0.105287 -0.001910 0.871287
v 0.105287 -0.001910 0.595397
v 0.105287 -0.001910 0.382398
v -0.107712 -0.001910 1.573175
v -0.107712 -0.001910 1.360175
v -0.107712 -0.001910 1.084286
v -0.107712 -0.001910 0.871287
v -0.107712 -0.001910 0.595397
v -0.107712 -0.001910 0.382398
v -0.057981 -0.001910 1.704433
v 0.055557 -0.001910 1.704433
v -0.029597 -0.001910 1.704433
v 0.027172 -0.001910 1.704433
v -0.029597 -0.001910 1.794316
v 0.027172 -0.001910 1.794316
v -0.001212 -0.001910 1.626959
v 0.021016 0.006184 1.698277
v 0.043414 0.006184 1.698277
v -0.045838 0.006184 1.698277
v -0.023441 0.006184 1.698277
v 0.021016 0.006184 1.788160
v -0.023441 0.006184 1.788160
v -0.001212 0.006184 1.637375
v -1.590101 -0.023191 1.588897
v -1.590101 -0.023191 0.611119
v -0.612323 -0.023191 1.588897
v -0.612323 -0.023191 0.611119
v -1.572857 -0.001910 1.571653
v -1.572857 -0.001910 0.628364
v -0.629568 -0.001910 1.571653
v -0.629568 -0.001910 0.628364
v -1.345657 -0.001910 1.190157
v -1.404703 -0.001910 1.201902
v -1.454761 -0.001910 1.235349
v -1.488208 -0.001910 1.285406
v -1.499953 -0.001910 1.344453
v -1.488208 -0.001910 1.403499
v -1.454761 -0.001910 1.453556
v -1.404703 -0.001910 1.487004
v -1.345657 -0.001910 1.498749
v -1.286611 -0.001910 1.487004
v -1.236553 -0.001910 1.453556
v -1.203106 -0.001910 1.403499
v -1.191361 -0.001910 1.344453
v -1.203106 -0.001910 1.285406
v -1.236553 -0.001910 1.235349
v -1.286611 -0.001910 1.201902
v -0.856768 -0.001910 1.190157
v -0.915814 -0.001910 1.201902
v -0.965872 -0.001910 1.235349
v -0.999319 -0.001910 1.285406
v -1.011064 -0.001910 1.344453
v -0.999319 -0.001910 1.403499
v -0.965872 -0.001910 1.453556
v -0.915814 -0.001910 1.487004
v -0.856768 -0.001910 1.498749
v -0.797722 -0.001910 1.487004
v -0.747664 -0.001910 1.453556
v -0.714217 -0.001910 1.403499
v -0.702472 -0.001910 1.344453
v -0.714217 -0.001910 1.285406
v -0.747664 -0.001910 1.235349
v -0.797722 -0.001910 1.201902
v -0.856768 -0.001910 0.701268
v -0.915814 -0.001910 0.713013
v -0.965872 -0.001910 0.746460
v -0.999319 -0.001910 0.796517
v -1.011064 -0.001910 0.855564
v -0.999319 -0.001910 0.914610
v -0.965872 -0.001910 0.964667
v -0.915814 -0.001910 0.998115
v -0.856768 -0.001910 1.009860
v -0.797722 -0.001910 0.998115
v -0.747664 -0.001910 0.964667
v -0.714217 -0.001910 0.914610
v -0.702472 -0.001910 0.855564
v -0.714217 -0.001910 0.796517
v -0.747664 -0.001910 0.746460
v -0.797722 -0.001910 0.713013
v -1.345657 -0.001910 0.701268
v -1.404703 -0.001910 0.713013
v -1.454761 -0.001910 0.746460
v -1.488208 -0.001910 0.796517
v -1.499953 -0.001910 0.855564
v -1.488208 -0.001910 0.914610
v -1.454761 -0.001910 0.964667
v -1.404703 -0.001910 0.998115
v -1.345657 -0.001910 1.009860
v -1.286611 -0.001910 0.998115
v -1.236553 -0.001910 0.964667
v -1.203106 -0.001910 0.914610
v -1.191361 -0.001910 0.855564
v -1.203106 -0.001910 0.796517
v -1.236553 -0.001910 0.746460
v -1.286611 -0.001910 0.713013
v -1.345657 0.032882 1.220404
v -1.393128 0.032882 1.229847
v -1.433373 0.032882 1.256737
v -1.460263 0.032882 1.296981
v -1.469706 0.032882 1.344453
v -1.460263 0.032882 1.391924
v -1.433373 0.032882 1.432169
v -1.393128 0.032882 1.459059
v -1.345657 0.032882 1.468502
v -1.298186 0.032882 1.459059
v -1.257941 0.032882 1.432169
v -1.231051 0.032882 1.391924
v -1.221608 0.032882 1.344453
v -1.231051 0.032882 1.296981
v -1.257941 0.032882 1.256737
v -1.298186 0.032882 1.229847
v -0.856768 0.032882 1.220404
v -0.904239 0.032882 1.229847
v -0.944484 0.032882 1.256737
v -0.971374 0.032882 1.296981
v -0.980817 0.032882 1.344453
v -0.971374 0.032882 1.391924
v -0.944484 0.032882 1.432169
v -0.904239 0.032882 1.459059
v -0.856768 0.032882 1.468502
v -0.809297 0.032882 1.459059
v -0.769052 0.032882 1.432169
v -0.742162 0.032882 1.391924
v -0.732719 0.032882 1.344453
v -0.742162 0.032882 1.296981
v -0.769052 0.032882 1.256737
v -0.809297 0.032882 1.229847
v -0.856768 0.032882 0.731515
v -0.904239 0.032882 0.740958
v -0.944484 0.032882 0.767848
v -0.971374 0.032882 0.808092
v -0.980817 0.032882 0.855564
v -0.971374 0.032882 0.903035
v -0.944484 0.032882 0.943280
v -0.904239 0.032882 0.970170
v -0.856768 0.032882 0.979613
v -0.809297 0.032882 0.970170
v -0.769052 0.032882 0.943280
v -0.742162 0.032882 0.903035
v -0.732719 0.032882 0.855564
v -0.742162 0.032882 0.808092
v -0.769052 0.032882 0.767848
v -0.809297 0.032882 0.740958
v -1.345657 0.032882 0.731515
v -1.393128 0.032882 0.740958
v -1.433373 0.032882 0.767848
v -1.460263 0.032882 0.808093
v -1.469705 0.032882 0.855564
v -1.460263 0.032882 0.903035
v -1.433373 0.032882 0.943280
v -1.393128 0.032882 0.970170
v -1.345657 0.032882 0.979613
v -1.298186 0.032882 0.970170
v -1.257941 0.032882 0.943280
v -1.231051 0.032882 0.903035
v -1.221608 0.032882 0.855564
v -1.231051 0.032882 0.808093
v -1.257941 0.032882 0.767848
v -1.298186 0.032882 0.740958
v -1.345657 0.032882 1.220404
v -1.393128 0.032882 1.229847
v -1.433373 0.032882 1.256737
v -1.460263 0.032882 1.296981
v -1.469706 0.032882 1.344453
v -1.460263 0.032882 1.391924
v -1.433373 0.032882 1.432169
v -1.393128 0.032882 1.459059
v -1.345657 0.032882 1.468502
v -1.298186 0.032882 1.459059
v -1.257941 0.032882 1.432169
v -1.231051 0.032882 1.391924
v -1.221608 0.032882 1.344453
v -1.231051 0.032882 1.296981
v -1.257941 0.032882 1.256737
v -1.298186 0.032882 1.229847
v -0.856768 0.032882 1.220404
v -0.904239 0.032882 1.229847
v -0.944484 0.032882 1.256737
v -0.971374 0.032882 1.296981
v -0.980817 0.032882 1.344453
v -0.971374 0.032882 1.391924
v -0.944484 0.032882 1.432169
v -0.904239 0.032882 1.459059
v -0.856768 0.032882 1.468502
v -0.809297 0.032882 1.459059
v -0.769052 0.032882 1.432169
v -0.742162 0.032882 1.391924
v -0.732719 0.032882 1.344453
v -0.742162 0.032882 1.296981
v -0.769052 0.032882 1.256737
v -0.809297 0.032882 1.229847
v -0.856768 0.032882 0.731515
v -0.904239 0.032882 0.740958
v -0.944484 0.032882 0.767848
v -0.971374 0.032882 0.808092
v -0.980817 0.032882 0.855564
v -0.971374 0.032882 0.903035
v -0.944484 0.032882 0.943280
v -0.904239 0.032882 0.970170
v -0.856768 0.032882 0.979613
v -0.809297 0.032882 0.970170
v -0.769052 0.032882 0.943280
v -0.742162 0.032882 0.903035
v -0.732719 0.032882 0.855564
v -0.742162 0.032882 0.808092
v -0.769052 0.032882 0.767848
v -0.809297 0.032882 0.740958
v -1.345657 0.032882 0.731515
v -1.393128 0.032882 0.740958
v -1.433373 0.032882 0.767848
v -1.460263 0.032882 0.808093
v -1.469705 0.032882 0.855564
v -1.460263 0.032882 0.903035
v -1.433373 0.032882 0.943280
v -1.393128 0.032882 0.970170
v -1.345657 0.032882 0.979613
v -1.298186 0.032882 0.970170
v -1.257941 0.032882 0.943280
v -1.231051 0.032882 0.903035
v -1.221608 0.032882 0.855564
v -1.231051 0.032882 0.808093
v -1.257941 0.032882 0.767848
v -1.298186 0.032882 0.740958
v 0.186823 0.006850 1.455108
v 0.190109 0.006850 1.471389
v 0.183589 0.006850 1.420349
v 0.184906 0.006850 1.437956
v 0.186548 0.006850 1.414777
v 0.183383 0.006850 1.415349
v 0.235937 0.006850 1.399054
v 0.219956 0.006850 1.406445
v 0.243232 0.006850 1.395039
v 0.202993 0.006850 1.411430
v 0.250527 0.006850 1.399054
v 0.212900 0.006850 1.513067
v 0.223994 0.006850 1.525482
v 0.236280 0.006850 1.535521
v 0.195185 0.006850 1.486504
v 0.202666 0.006850 1.500195
v 0.299642 0.006850 1.455108
v 0.296355 0.006850 1.471389
v 0.302875 0.006850 1.420349
v 0.301559 0.006850 1.437956
v 0.299916 0.006850 1.414777
v 0.303081 0.006850 1.415349
v 0.266509 0.006850 1.406445
v 0.283472 0.006850 1.411430
v 0.243232 0.006850 1.539755
v 0.250185 0.006850 1.535521
v 0.273564 0.006850 1.513067
v 0.262470 0.006850 1.525482
v 0.291279 0.006850 1.486504
v 0.283799 0.006850 1.500195
v 0.201552 -0.001910 1.522635
v 0.190257 -0.001910 1.508430
v 0.181536 -0.001910 1.492468
v 0.175748 -0.001910 1.475234
v 0.172150 -0.001910 1.457404
v 0.170129 -0.001910 1.439334
v 0.168774 -0.001910 1.421208
v 0.168027 -0.001910 1.403048
v 0.183748 -0.001910 1.400205
v 0.199415 -0.001910 1.397016
v 0.214722 -0.001910 1.392518
v 0.229238 -0.001910 1.385805
v 0.243232 -0.001910 1.378102
v 0.213705 -0.001910 1.536236
v 0.227686 -0.001910 1.547660
v 0.284913 -0.001910 1.522635
v 0.296208 -0.001910 1.508430
v 0.304928 -0.001910 1.492468
v 0.310716 -0.001910 1.475234
v 0.314315 -0.001910 1.457404
v 0.316335 -0.001910 1.439334
v 0.317691 -0.001910 1.421208
v 0.243232 -0.001910 1.557127
v 0.318438 -0.001910 1.403048
v 0.302717 -0.001910 1.400205
v 0.287050 -0.001910 1.397016
v 0.271743 -0.001910 1.392518
v 0.257227 -0.001910 1.385805
v 0.272759 -0.001910 1.536236
v 0.258779 -0.001910 1.547660
v 0.186823 0.006850 1.455108
v 0.190109 0.006850 1.471389
v 0.183589 0.006850 1.420349
v 0.184906 0.006850 1.437956
v 0.186548 0.006850 1.414777
v 0.183383 0.006850 1.415349
v 0.235937 0.006850 1.399054
v 0.219956 0.006850 1.406445
v 0.243232 0.006850 1.395039
v 0.202993 0.006850 1.411430
v 0.250527 0.006850 1.399054
v 0.212900 0.006850 1.513067
v 0.223994 0.006850 1.525482
v 0.236280 0.006850 1.535521
v 0.195185 0.006850 1.486504
v 0.202666 0.006850 1.500195
v 0.299642 0.006850 1.455108
v 0.296355 0.006850 1.471389
v 0.302875 0.006850 1.420349
v 0.301559 0.006850 1.437956
v 0.299916 0.006850 1.414777
v 0.303081 0.006850 1.415349
v 0.266509 0.006850 1.406445
v 0.283472 0.006850 1.411430
v 0.243232 0.006850 1.539755
v 0.250185 0.006850 1.535521
v 0.273564 0.006850 1.513067
v 0.262470 0.006850 1.525482
v 0.291279 0.006850 1.486504
v 0.283799 0.006850 1.500195
v -1.572857 -0.001910 1.571653
v -1.572857 -0.001910 0.628364
v -0.629568 -0.001910 1.571653
v -0.629568 -0.001910 0.628364
vn -0.0000 1.0000 -0.0000
vn -0.8043 0.5942 -0.0000
vn 0.8043 0.5942 -0.0000
vn -0.0000 0.5942 -0.8043
vn -0.0000 0.5942 0.8043
vn 0.5687 0.5942 -0.5687
vn -0.5687 0.5942 -0.5687
vn -0.0000 0.6054 0.7959
vn -0.0000 0.6054 0.7960
vn 0.7959 0.6054 -0.0000
vn -0.7959 0.6054 -0.0000
vn 0.6420 0.6054 -0.4704
vn -0.6420 0.6054 -0.4704
vn -0.4649 0.7535 -0.4649
vn -0.4649 0.7535 0.4649
vn 0.4649 0.7535 0.4649
vn 0.4649 0.7535 -0.4649
vn -0.2888 0.6561 -0.6972
vn -0.0000 0.6561 -0.7547
vn -0.2888 0.6561 0.6972
vn -0.5336 0.6561 0.5336
vn -0.5336 0.6561 -0.5336
vn -0.0000 0.6561 0.7547
vn -0.6972 0.6561 -0.2888
vn 0.2888 0.6561 0.6972
vn -0.7547 0.6561 -0.0000
vn 0.5336 0.6561 0.5336
vn -0.6972 0.6561 0.2888
vn 0.6972 0.6561 0.2888
vn 0.7547 0.6561 -0.0000
vn 0.6972 0.6561 -0.2888
vn 0.5336 0.6561 -0.5336
vn 0.2888 0.6561 -0.6972
vn -0.5019 0.8613 0.0786
vn -0.4904 0.8616 0.1313
vn -0.5075 0.8612 0.0294
vn -0.5061 0.8612 0.0472
vn -0.0959 0.8611 -0.4992
vn -0.3174 0.9136 -0.2543
vn -0.2293 0.8613 -0.4535
vn -0.1785 0.8617 -0.4749
vn -0.0000 0.8882 -0.4594
vn -0.1224 0.8613 -0.4931
vn 0.2293 0.8613 -0.4535
vn -0.3886 0.8612 0.3276
vn -0.3507 0.8618 0.3665
vn -0.2932 0.8617 0.4142
vn -0.4645 0.8620 0.2030
vn -0.4224 0.8619 0.2803
vn -0.4224 0.8619 0.2804
vn 0.4904 0.8616 0.1313
vn 0.5019 0.8613 0.0786
vn 0.5061 0.8612 0.0472
vn 0.5075 0.8612 0.0294
vn 0.3174 0.9136 -0.2543
vn 0.0959 0.8611 -0.4992
vn 0.1785 0.8617 -0.4749
vn 0.1224 0.8613 -0.4931
vn -0.0000 0.8929 0.4502
vn 0.2932 0.8617 0.4142
vn 0.3507 0.8618 0.3665
vn 0.3886 0.8612 0.3276
vn 0.4224 0.8619 0.2803
vn 0.4645 0.8620 0.2030
vt 0.462379 0.395712
vt 0.404288 0.337621
vt 0.462379 0.337621
vt 0.462379 0.204288
vt 0.404288 0.262379
vt 0.404288 0.204288
vt 0.462379 0.070955
vt 0.404288 0.129045
vt 0.404288 0.070955
vt 0.595712 0.395712
vt 0.537621 0.337621
vt 0.595712 0.337621
vt 0.595712 0.204288
vt 0.537621 0.262379
vt 0.537621 0.204288
vt 0.395712 0.395712
vt 0.062379 0.337621
vt 0.337621 0.337621
vt 0.337621 0.062379
vt 0.395712 0.004288
vt 0.062379 0.062379
vt 0.004288 0.004288
vt 0.004288 0.395712
vt 0.470955 0.004288
vt 0.529045 0.062379
vt 0.470955 0.062379
vt 0.529045 0.270955
vt 0.470955 0.329045
vt 0.470955 0.270955
vt 0.529045 0.137621
vt 0.470955 0.195712
vt 0.470955 0.137621
vt 0.589648 0.404288
vt 0.500000 0.493936
vt 0.410352 0.404288
vt 0.404288 0.004288
vt 0.462379 0.062379
vt 0.404288 0.062379
vt 0.462379 0.270955
vt 0.404288 0.329045
vt 0.404288 0.270955
vt 0.462379 0.137621
vt 0.404288 0.195712
vt 0.404288 0.137621
vt 0.595712 0.070955
vt 0.537621 0.129045
vt 0.537621 0.070955
vt 0.595712 0.270955
vt 0.537621 0.329045
vt 0.537621 0.270955
vt 0.595712 0.137621
vt 0.537621 0.195712
vt 0.537621 0.137621
vt 0.529045 0.395712
vt 0.470955 0.337621
vt 0.529045 0.337621
vt 0.529045 0.204288
vt 0.470955 0.262379
vt 0.470955 0.204288
vt 0.529045 0.070955
vt 0.470955 0.129045
vt 0.470955 0.070955
vt 0.533333 0.066667
vt 0.533333 0.200000
vt 0.533333 0.400000
vt 0.533333 0.333333
vt 0.595712 0.129045
vt 0.600000 0.066667
vt 0.600000 0.133333
vt 0.600000 0.266667
vt 0.595712 0.262379
vt 0.600000 0.400000
vt 0.400000 0.066667
vt 0.400000 0.200000
vt 0.400000 0.400000
vt 0.400000 0.333333
vt 0.462379 0.129045
vt 0.466667 0.066667
vt 0.466667 0.133333
vt 0.466667 0.266667
vt 0.462379 0.262379
vt 0.466667 0.400000
vt 0.404288 0.395712
vt 0.466667 0.333333
vt 0.400000 0.266667
vt 0.466667 0.200000
vt 0.400000 0.133333
vt 0.537621 0.004288
vt 0.595712 0.062379
vt 0.537621 0.062379
vt 0.537621 0.395712
vt 0.600000 0.333333
vt 0.533333 0.266667
vt 0.600000 0.200000
vt 0.533333 0.133333
vt 0.000000 0.000000
vt 0.400000 0.000000
vt 0.066667 0.333333
vt 0.333333 0.333333
vt 0.333333 0.066667
vt 0.000000 0.400000
vt 0.066667 0.066667
vt 0.533333 0.000000
vt 0.529045 0.004288
vt 0.529045 0.195712
vt 0.529045 0.329045
vt 0.466667 0.000000
vt 0.500000 0.500000
vt 0.462379 0.004288
vt 0.595712 0.004288
vt 0.595712 0.195712
vt 0.595712 0.329045
vt 0.462379 0.195712
vt 0.462379 0.329045
vt 0.600000 0.000000
vt 0.529045 0.129045
vt 0.529045 0.262379
vt 0.470955 0.395712
vt 0.506062 0.036836
vt 0.493938 0.012322
vt 0.506062 0.012322
vt 0.500000 0.053446
vt 0.493938 0.036836
vt 0.487829 0.036836
vt 0.512171 0.036836
vt 0.507741 0.035157
vt 0.515482 0.035157
vt 0.492259 0.035157
vt 0.507741 0.010643
vt 0.492259 0.010643
vt 0.500000 0.056286
vt 0.500000 0.056286
vt 0.484518 0.035157
vt 0.071370 0.328630
vt 0.071370 0.071370
vt 0.328630 0.328630
vt 0.328630 0.071370
s 0
usemtl bordes
f 37/46/2 33/63/2 36/47/2
f 39/14/2 26/64/2 38/15/2
f 40/11/2 2/65/2 27/66/2
f 43/67/3 3/68/3 28/69/3
f 44/13/3 4/70/3 45/71/3
f 46/12/3 5/72/3 47/10/3
f 49/8/2 6/73/2 48/9/2
f 51/5/2 8/74/2 50/6/2
f 52/2/2 10/75/2 9/76/2
f 55/77/3 11/78/3 12/79/3
f 56/4/3 20/80/3 57/81/3
f 58/3/3 35/82/3 59/1/3
f 53/83/4 35/82/4 10/75/4
f 58/3/5 9/76/5 34/84/5
f 57/81/4 31/85/4 51/5/4
f 50/6/5 32/86/5 56/4/5
f 55/77/4 7/87/4 49/8/4
f 48/9/5 11/78/5 54/7/5
f 41/91/4 5/72/4 2/65/4
f 40/11/5 30/92/5 46/12/5
f 39/14/4 4/70/4 1/93/4
f 38/15/5 29/94/5 44/13/5
f 37/46/4 28/69/4 25/95/4
f 61/20/5 13/96/5 23/97/5
f 62/21/3 16/98/3 63/17/3
f 64/19/2 18/99/2 17/100/2
f 61/20/3 10/75/3 66/16/3
f 66/16/4 14/101/4 67/23/4
f 63/17/5 18/99/5 65/18/5
f 64/19/4 15/102/4 62/21/4
f 67/23/2 13/96/2 60/22/2
f 68/24/5 19/103/5 69/104/5
f 70/25/3 19/103/3 33/63/3
f 72/105/3 25/95/3 26/64/3
f 73/27/3 27/66/3 74/106/3
f 75/26/2 24/107/2 68/24/2
f 77/31/2 12/79/2 76/32/2
f 78/29/2 34/84/2 20/80/2
f 74/106/4 34/84/4 79/28/4
f 78/29/5 1/93/5 73/27/5
f 72/105/4 32/86/4 77/31/4
f 76/32/5 25/95/5 71/30/5
f 70/25/4 11/78/4 75/26/4
f 80/35/5 5/72/5 82/33/5
f 82/33/6 21/108/6 81/34/6
f 80/35/7 21/108/7 10/75/7
f 36/47/5 3/68/5 42/45/5
f 86/109/5 23/97/5 24/107/5
f 87/90/2 19/103/2 83/88/2
f 89/52/2 25/95/2 88/53/2
f 90/50/2 27/66/2 1/93/2
f 84/110/3 3/68/3 92/89/3
f 94/111/3 28/69/3 29/94/3
f 95/48/3 30/92/3 96/112/3
f 97/38/2 23/97/2 85/36/2
f 99/43/2 7/87/2 98/44/2
f 101/40/2 31/85/2 100/41/2
f 86/109/3 11/78/3 102/37/3
f 104/113/3 12/79/3 32/86/3
f 105/39/3 34/84/3 106/114/3
f 106/114/4 9/76/4 101/40/4
f 100/41/5 20/80/5 105/39/5
f 104/113/4 8/74/4 99/43/4
f 98/44/5 12/79/5 103/42/5
f 102/37/4 6/73/4 97/38/4
f 83/88/5 22/115/5 84/110/5
f 91/49/4 30/92/4 27/66/4
f 90/50/5 4/70/5 95/48/5
f 89/52/4 29/94/4 26/64/4
f 88/53/5 28/69/5 93/51/5
f 108/116/3 33/63/3 25/95/3
f 109/57/3 1/93/3 110/117/3
f 111/56/3 2/65/3 112/54/3
f 114/61/2 11/78/2 113/62/2
f 116/58/2 32/86/2 115/59/2
f 117/55/2 35/82/2 34/84/2
f 112/54/4 35/82/4 118/118/4
f 117/55/5 27/66/5 111/56/5
f 110/117/4 20/80/4 116/58/4
f 115/59/5 26/64/5 109/57/5
f 108/116/4 12/79/4 114/61/4
f 113/62/5 33/63/5 107/60/5
f 127/125/8 122/126/8 120/127/8
f 128/124/9 121/128/9 129/123/9
f 130/121/10 122/126/10 126/119/10
f 131/120/8 124/129/8 130/121/8
f 131/120/11 121/128/11 123/130/11
f 127/125/12 125/131/12 132/122/12
f 128/124/13 125/132/13 119/133/13
s 1
f 138/134/14 133/102/15 137/135/15
f 135/100/16 140/136/17 139/137/16
f 136/99/17 138/134/14 140/136/17
f 137/135/15 135/100/16 139/137/16
f 254/96/18 189/96/19 190/96/18
f 164/96/20 227/96/21 163/96/21
f 255/96/22 190/96/18 191/96/22
f 165/96/23 228/96/20 164/96/20
f 192/96/24 255/96/22 191/96/22
f 230/96/25 165/96/23 166/96/25
f 193/96/26 256/96/24 192/96/24
f 231/96/27 166/96/25 167/96/27
f 258/96/28 193/96/26 194/96/28
f 168/96/29 231/96/27 167/96/27
f 142/96/18 205/96/19 141/96/19
f 259/96/21 194/96/28 195/96/21
f 233/96/30 168/96/29 169/96/30
f 207/96/22 142/96/18 143/96/22
f 196/96/20 259/96/21 195/96/21
f 170/96/31 233/96/30 169/96/30
f 144/96/24 207/96/22 143/96/22
f 197/96/23 260/96/20 196/96/20
f 235/96/32 170/96/31 171/96/32
f 145/96/26 208/96/24 144/96/24
f 198/96/25 261/96/23 197/96/23
f 172/96/33 235/96/32 171/96/32
f 210/96/28 145/96/26 146/96/28
f 263/96/27 198/96/25 199/96/27
f 221/96/19 172/96/33 157/96/19
f 211/96/21 146/96/28 147/96/21
f 200/96/29 263/96/27 199/96/27
f 238/96/18 173/96/19 174/96/18
f 148/96/20 211/96/21 147/96/21
f 265/96/30 200/96/29 201/96/30
f 239/96/22 174/96/18 175/96/22
f 149/96/23 212/96/20 148/96/20
f 266/96/31 201/96/30 202/96/31
f 176/96/24 239/96/22 175/96/22
f 214/96/25 149/96/23 150/96/25
f 267/96/32 202/96/31 203/96/32
f 177/96/26 240/96/24 176/96/24
f 151/96/27 214/96/25 150/96/25
f 204/96/33 267/96/32 203/96/32
f 242/96/28 177/96/26 178/96/28
f 152/96/29 215/96/27 151/96/27
f 253/96/19 204/96/33 189/96/19
f 243/96/21 178/96/28 179/96/21
f 217/96/30 152/96/29 153/96/30
f 180/96/20 243/96/21 179/96/21
f 154/96/31 217/96/30 153/96/30
f 181/96/23 244/96/20 180/96/20
f 219/96/32 154/96/31 155/96/32
f 246/96/25 181/96/23 182/96/25
f 220/96/33 155/96/32 156/96/33
f 247/96/27 182/96/25 183/96/27
f 205/96/19 156/96/33 141/96/19
f 184/96/29 247/96/27 183/96/27
f 222/96/18 157/96/19 158/96/18
f 249/96/30 184/96/29 185/96/30
f 223/96/22 158/96/18 159/96/22
f 186/96/31 249/96/30 185/96/30
f 160/96/24 223/96/22 159/96/22
f 251/96/32 186/96/31 187/96/32
f 225/96/26 160/96/24 161/96/26
f 188/96/33 251/96/32 187/96/32
f 162/96/28 225/96/26 161/96/26
f 237/96/19 188/96/33 173/96/19
f 227/96/21 162/96/28 163/96/21
s 0
f 87/90/4 3/68/4 33/63/4
s 1
f 367/96/34 394/96/35 393/96/34
f 369/96/36 396/96/37 395/96/36
f 371/96/38 398/96/39 397/96/38
f 399/96/40 373/96/41 400/96/41
f 401/96/42 374/96/40 399/96/40
f 372/96/43 397/96/38 402/96/43
f 368/96/37 393/96/34 396/96/37
f 390/96/44 401/96/42 403/96/44
f 398/96/39 369/96/36 395/96/36
f 373/96/41 402/96/43 400/96/41
f 363/96/45 405/96/46 404/96/45
f 405/96/46 377/96/47 406/96/47
f 407/96/48 364/96/49 408/96/50
f 408/96/50 363/96/45 404/96/45
f 366/96/35 407/96/48 394/96/35
f 410/96/51 382/96/52 409/96/52
f 412/96/53 384/96/54 411/96/54
f 414/96/55 387/96/56 413/96/56
f 389/96/57 403/96/44 415/96/57
f 413/96/56 388/96/58 416/96/58
f 409/96/52 383/96/53 412/96/53
f 377/96/47 417/96/59 406/96/47
f 384/96/54 414/96/55 411/96/54
f 416/96/58 389/96/57 415/96/57
f 417/96/59 392/96/60 418/96/60
f 420/96/61 378/96/62 419/96/62
f 392/96/60 420/96/61 418/96/60
f 379/96/63 421/96/64 422/96/63
f 378/96/62 422/96/63 419/96/62
f 421/96/64 381/96/51 410/96/51
s 0
f 37/46/2 25/95/2 33/63/2
f 39/14/2 1/93/2 26/64/2
f 40/11/2 41/91/2 2/65/2
f 43/67/3 42/45/3 3/68/3
f 44/13/3 29/94/3 4/70/3
f 46/12/3 30/92/3 5/72/3
f 49/8/2 7/87/2 6/73/2
f 51/5/2 31/85/2 8/74/2
f 52/2/2 53/83/2 10/75/2
f 55/77/3 54/7/3 11/78/3
f 56/4/3 32/86/3 20/80/3
f 58/3/3 34/84/3 35/82/3
f 53/83/4 59/1/4 35/82/4
f 58/3/5 52/2/5 9/76/5
f 57/81/4 20/80/4 31/85/4
f 50/6/5 8/74/5 32/86/5
f 55/77/4 12/79/4 7/87/4
f 48/9/5 6/73/5 11/78/5
f 41/91/4 47/10/4 5/72/4
f 40/11/5 27/66/5 30/92/5
f 39/14/4 45/71/4 4/70/4
f 38/15/5 26/64/5 29/94/5
f 37/46/4 43/67/4 28/69/4
f 61/20/5 60/22/5 13/96/5
f 62/21/3 15/102/3 16/98/3
f 64/19/2 65/18/2 18/99/2
f 61/20/3 23/97/3 10/75/3
f 66/16/4 10/75/4 14/101/4
f 63/17/5 16/98/5 18/99/5
f 64/19/4 17/100/4 15/102/4
f 67/23/2 14/101/2 13/96/2
f 68/24/5 24/107/5 19/103/5
f 70/25/3 69/104/3 19/103/3
f 72/105/3 71/30/3 25/95/3
f 73/27/3 1/93/3 27/66/3
f 75/26/2 11/78/2 24/107/2
f 77/31/2 32/86/2 12/79/2
f 78/29/2 79/28/2 34/84/2
f 74/106/4 27/66/4 34/84/4
f 78/29/5 20/80/5 1/93/5
f 72/105/4 26/64/4 32/86/4
f 76/32/5 12/79/5 25/95/5
f 70/25/4 33/63/4 11/78/4
f 80/35/5 10/75/5 5/72/5
f 82/33/6 5/72/6 21/108/6
f 80/35/7 81/34/7 21/108/7
f 36/47/5 33/63/5 3/68/5
f 86/109/5 85/36/5 23/97/5
f 87/90/2 33/63/2 19/103/2
f 89/52/2 26/64/2 25/95/2
f 90/50/2 91/49/2 27/66/2
f 84/110/3 22/115/3 3/68/3
f 94/111/3 93/51/3 28/69/3
f 95/48/3 4/70/3 30/92/3
f 97/38/2 6/73/2 23/97/2
f 99/43/2 8/74/2 7/87/2
f 101/40/2 9/76/2 31/85/2
f 86/109/3 24/107/3 11/78/3
f 104/113/3 103/42/3 12/79/3
f 105/39/3 20/80/3 34/84/3
f 106/114/4 34/84/4 9/76/4
f 100/41/5 31/85/5 20/80/5
f 104/113/4 32/86/4 8/74/4
f 98/44/5 7/87/5 12/79/5
f 102/37/4 11/78/4 6/73/4
f 83/88/5 19/103/5 22/115/5
f 91/49/4 96/112/4 30/92/4
f 90/50/5 1/93/5 4/70/5
f 89/52/4 94/111/4 29/94/4
f 88/53/5 25/95/5 28/69/5
f 108/116/3 107/60/3 33/63/3
f 109/57/3 26/64/3 1/93/3
f 111/56/3 27/66/3 2/65/3
f 114/61/2 12/79/2 11/78/2
f 116/58/2 20/80/2 32/86/2
f 117/55/2 118/118/2 35/82/2
f 112/54/4 2/65/4 35/82/4
f 117/55/5 34/84/5 27/66/5
f 110/117/4 1/93/4 20/80/4
f 115/59/5 32/86/5 26/64/5
f 108/116/4 25/95/4 12/79/4
f 113/62/5 11/78/5 33/63/5
f 127/125/8 126/119/8 122/126/8
f 128/124/8 119/133/8 121/128/8
f 130/121/10 124/129/10 122/126/10
f 131/120/9 123/130/9 124/129/9
f 131/120/11 129/123/11 121/128/11
f 127/125/12 120/127/12 125/131/12
f 128/124/13 132/122/13 125/132/13
s 1
f 138/134/14 134/98/14 133/102/15
f 135/100/16 136/99/17 140/136/17
f 136/99/17 134/98/14 138/134/14
f 137/135/15 133/102/15 135/100/16
f 254/96/18 253/96/19 189/96/19
f 164/96/20 228/96/20 227/96/21
f 255/96/22 254/96/18 190/96/18
f 165/96/23 229/96/23 228/96/20
f 192/96/24 256/96/24 255/96/22
f 230/96/25 229/96/23 165/96/23
f 193/96/26 257/96/26 256/96/24
f 231/96/27 230/96/25 166/96/25
f 258/96/28 257/96/26 193/96/26
f 168/96/29 232/96/29 231/96/27
f 142/96/18 206/96/18 205/96/19
f 259/96/21 258/96/28 194/96/28
f 233/96/30 232/96/29 168/96/29
f 207/96/22 206/96/18 142/96/18
f 196/96/20 260/96/20 259/96/21
f 170/96/31 234/96/31 233/96/30
f 144/96/24 208/96/24 207/96/22
f 197/96/23 261/96/23 260/96/20
f 235/96/32 234/96/31 170/96/31
f 145/96/26 209/96/26 208/96/24
f 198/96/25 262/96/25 261/96/23
f 172/96/33 236/96/33 235/96/32
f 210/96/28 209/96/26 145/96/26
f 263/96/27 262/96/25 198/96/25
f 221/96/19 236/96/33 172/96/33
f 211/96/21 210/96/28 146/96/28
f 200/96/29 264/96/29 263/96/27
f 238/96/18 237/96/19 173/96/19
f 148/96/20 212/96/20 211/96/21
f 265/96/30 264/96/29 200/96/29
f 239/96/22 238/96/18 174/96/18
f 149/96/23 213/96/23 212/96/20
f 266/96/31 265/96/30 201/96/30
f 176/96/24 240/96/24 239/96/22
f 214/96/25 213/96/23 149/96/23
f 267/96/32 266/96/31 202/96/31
f 177/96/26 241/96/26 240/96/24
f 151/96/27 215/96/27 214/96/25
f 204/96/33 268/96/33 267/96/32
f 242/96/28 241/96/26 177/96/26
f 152/96/29 216/96/29 215/96/27
f 253/96/19 268/96/33 204/96/33
f 243/96/21 242/96/28 178/96/28
f 217/96/30 216/96/29 152/96/29
f 180/96/20 244/96/20 243/96/21
f 154/96/31 218/96/31 217/96/30
f 181/96/23 245/96/23 244/96/20
f 219/96/32 218/96/31 154/96/31
f 246/96/25 245/96/23 181/96/23
f 220/96/33 219/96/32 155/96/32
f 247/96/27 246/96/25 182/96/25
f 205/96/19 220/96/33 156/96/33
f 184/96/29 248/96/29 247/96/27
f 222/96/18 221/96/19 157/96/19
f 249/96/30 248/96/29 184/96/29
f 223/96/22 222/96/18 158/96/18
f 186/96/31 250/96/31 249/96/30
f 160/96/24 224/96/24 223/96/22
f 251/96/32 250/96/31 186/96/31
f 225/96/26 224/96/24 160/96/24
f 188/96/33 252/96/33 251/96/32
f 162/96/28 226/96/28 225/96/26
f 237/96/19 252/96/33 188/96/33
f 227/96/21 226/96/28 162/96/28
s 0
f 87/90/4 92/89/4 3/68/4
s 1
f 367/96/34 366/96/35 394/96/35
f 369/96/36 368/96/37 396/96/37
f 371/96/38 370/96/39 398/96/39
f 399/96/40 374/96/40 373/96/41
f 401/96/42 375/96/42 374/96/40
f 372/96/43 371/96/38 397/96/38
f 368/96/37 367/96/34 393/96/34
f 390/96/44 375/96/42 401/96/42
f 398/96/39 370/96/39 369/96/36
f 373/96/41 372/96/43 402/96/43
f 363/96/45 376/96/46 405/96/46
f 405/96/46 376/96/46 377/96/47
f 407/96/48 365/96/48 364/96/49
f 408/96/50 364/96/49 363/96/45
f 366/96/35 365/96/48 407/96/48
f 410/96/51 381/96/51 382/96/52
f 412/96/53 383/96/53 384/96/54
f 414/96/55 386/96/55 387/96/56
f 389/96/57 390/96/44 403/96/44
f 413/96/56 387/96/56 388/96/58
f 409/96/52 382/96/52 383/96/53
f 377/96/47 385/96/59 417/96/59
f 384/96/54 386/96/55 414/96/55
f 416/96/58 388/96/58 389/96/57
f 417/96/59 385/96/59 392/96/60
f 420/96/61 391/96/61 378/96/62
f 392/96/60 391/96/61 420/96/61
f 379/96/63 380/96/64 421/96/64
f 378/96/62 379/96/63 422/96/63
f 421/96/64 380/96/64 381/96/51
s 0
usemtl blanco
f 59/1/1 52/2/1 58/3/1
f 56/4/1 51/5/1 50/6/1
f 47/10/1 40/11/1 46/12/1
f 44/13/1 39/14/1 38/15/1
f 68/24/1 70/25/1 75/26/1
f 85/36/1 102/37/1 97/38/1
f 105/39/1 101/40/1 100/41/1
f 103/42/1 99/43/1 98/44/1
f 42/45/1 37/46/1 36/47/1
f 95/48/1 91/49/1 90/50/1
f 93/51/1 89/52/1 88/53/1
f 83/88/1 92/89/1 87/90/1
s 1
f 423/135/1 426/136/1 424/134/1
s 0
f 59/1/1 53/83/1 52/2/1
f 56/4/1 57/81/1 51/5/1
f 47/10/1 41/91/1 40/11/1
f 44/13/1 45/71/1 39/14/1
f 68/24/1 69/104/1 70/25/1
f 85/36/1 86/109/1 102/37/1
f 105/39/1 106/114/1 101/40/1
f 103/42/1 104/113/1 99/43/1
f 42/45/1 43/67/1 37/46/1
f 95/48/1 96/112/1 91/49/1
f 93/51/1 94/111/1 89/52/1
f 83/88/1 84/110/1 92/89/1
s 1
f 423/135/1 425/137/1 426/136/1
s 0
usemtl Equipo
f 54/7/1 49/8/1 48/9/1
f 66/16/1 63/17/1 65/18/1
f 66/16/1 64/19/1 61/20/1
f 61/20/1 62/21/1 60/22/1
f 67/23/1 62/21/1 63/17/1
f 73/27/1 79/28/1 78/29/1
f 71/30/1 77/31/1 76/32/1
f 82/33/1 81/34/1 80/35/1
f 112/54/1 117/55/1 111/56/1
f 109/57/1 116/58/1 115/59/1
f 107/60/1 114/61/1 113/62/1
f 126/119/1 131/120/1 130/121/1
f 126/119/1 132/122/1 129/123/1
f 129/123/1 132/122/1 128/124/1
f 126/119/1 127/125/1 132/122/1
f 325/96/1 329/96/1 317/96/1
f 277/96/1 281/96/1 269/96/1
f 293/96/1 297/96/1 285/96/1
f 309/96/1 313/96/1 301/96/1
f 343/96/1 339/96/1 336/96/1
f 54/7/1 55/77/1 49/8/1
f 66/16/1 67/23/1 63/17/1
f 66/16/1 65/18/1 64/19/1
f 61/20/1 64/19/1 62/21/1
f 67/23/1 60/22/1 62/21/1
f 73/27/1 74/106/1 79/28/1
f 71/30/1 72/105/1 77/31/1
f 112/54/1 118/118/1 117/55/1
f 109/57/1 110/117/1 116/58/1
f 107/60/1 108/116/1 114/61/1
f 126/119/1 129/123/1 131/120/1
f 317/96/1 318/96/1 319/96/1
f 319/96/1 320/96/1 321/96/1
f 321/96/1 322/96/1 323/96/1
f 323/96/1 324/96/1 325/96/1
f 325/96/1 326/96/1 327/96/1
f 327/96/1 328/96/1 329/96/1
f 329/96/1 330/96/1 331/96/1
f 331/96/1 332/96/1 317/96/1
f 317/96/1 319/96/1 321/96/1
f 321/96/1 323/96/1 325/96/1
f 325/96/1 327/96/1 329/96/1
f 329/96/1 331/96/1 317/96/1
f 317/96/1 321/96/1 325/96/1
f 269/96/1 270/96/1 271/96/1
f 271/96/1 272/96/1 273/96/1
f 273/96/1 274/96/1 275/96/1
f 275/96/1 276/96/1 277/96/1
f 277/96/1 278/96/1 279/96/1
f 279/96/1 280/96/1 281/96/1
f 281/96/1 282/96/1 283/96/1
f 283/96/1 284/96/1 269/96/1
f 269/96/1 271/96/1 273/96/1
f 273/96/1 275/96/1 277/96/1
f 277/96/1 279/96/1 281/96/1
f 281/96/1 283/96/1 269/96/1
f 269/96/1 273/96/1 277/96/1
f 285/96/1 286/96/1 287/96/1
f 287/96/1 288/96/1 289/96/1
f 289/96/1 290/96/1 291/96/1
f 291/96/1 292/96/1 293/96/1
f 293/96/1 294/96/1 295/96/1
f 295/96/1 296/96/1 297/96/1
f 297/96/1 298/96/1 299/96/1
f 299/96/1 300/96/1 285/96/1
f 285/96/1 287/96/1 289/96/1
f 289/96/1 291/96/1 293/96/1
f 293/96/1 295/96/1 297/96/1
f 297/96/1 299/96/1 285/96/1
f 285/96/1 289/96/1 293/96/1
f 301/96/1 302/96/1 303/96/1
f 303/96/1 304/96/1 305/96/1
f 305/96/1 306/96/1 307/96/1
f 307/96/1 308/96/1 309/96/1
f 309/96/1 310/96/1 311/96/1
f 311/96/1 312/96/1 313/96/1
f 313/96/1 314/96/1 315/96/1
f 315/96/1 316/96/1 301/96/1
f 301/96/1 303/96/1 305/96/1
f 305/96/1 307/96/1 309/96/1
f 309/96/1 311/96/1 313/96/1
f 313/96/1 315/96/1 301/96/1
f 301/96/1 305/96/1 309/96/1
f 336/96/1 333/96/1 334/96/1
f 334/96/1 347/96/1 348/96/1
f 348/96/1 344/96/1 345/96/1
f 345/96/1 346/96/1 357/96/1
f 357/96/1 358/96/1 360/96/1
f 360/96/1 359/96/1 362/96/1
f 362/96/1 361/96/1 350/96/1
f 350/96/1 349/96/1 352/96/1
f 352/96/1 351/96/1 354/96/1
f 352/96/1 354/96/1 353/96/1
f 362/96/1 350/96/1 352/96/1
f 357/96/1 360/96/1 362/96/1
f 348/96/1 345/96/1 357/96/1
f 336/96/1 334/96/1 348/96/1
f 338/96/1 335/96/1 336/96/1
f 337/96/1 338/96/1 336/96/1
f 336/96/1 348/96/1 357/96/1
f 357/96/1 362/96/1 352/96/1
f 352/96/1 353/96/1 356/96/1
f 352/96/1 356/96/1 355/96/1
f 336/96/1 357/96/1 352/96/1
f 342/96/1 337/96/1 336/96/1
f 340/96/1 342/96/1 336/96/1
f 336/96/1 352/96/1 355/96/1
f 343/96/1 341/96/1 339/96/1
f 336/96/1 355/96/1 343/96/1
f 339/96/1 340/96/1 336/96/1
