# Blender 4.4.3
# www.blender.org
mtllib tablero_procedural.mtl
o Tablero
v 0.125913 -0.021924 0.881393
v 0.125913 -0.021924 0.377740
v 0.377740 -0.021924 0.377740
v -0.377740 -0.021924 1.636873
v -0.377740 -0.021924 1.385046
v -0.377740 -0.021924 1.133220
v -0.377740 -0.021924 0.629567
v -0.377740 -0.021924 0.377740
v -0.125913 -0.021924 1.636873
v -0.125913 -0.021924 1.385046
v -1.888700 -0.021924 1.888700
v -1.888700 -0.021924 0.377740
v -1.636873 -0.021924 1.636873
v -1.636873 -0.021924 0.629567
v -0.629567 -0.021924 1.636873
v -0.629567 -0.021924 0.629567
v 0.125913 -0.021924 1.888700
v -0.125913 -0.021924 0.881393
v 0.000000 -0.021924 0.000000
v -0.377740 -0.021924 1.888700
v -0.125913 -0.021924 1.888700
v 0.125913 -0.021924 1.385046
v 0.125913 -0.021924 1.133220
v 0.125913 -0.021924 0.629567
v -0.377740 -0.021924 0.881393
v -0.125913 -0.021924 1.133220
v 0.125913 -0.021924 1.636873
v -0.125913 -0.021924 0.629567
v -0.125913 -0.021924 0.377740
v -0.361542 -0.000000 1.620676
v -0.361542 -0.000000 1.401244
v -0.361542 -0.000000 1.117022
v -0.361542 -0.000000 0.897591
v -0.361542 -0.000000 0.613369
v -0.361542 -0.000000 0.393937
v -0.142111 -0.000000 1.620676
v -0.142111 -0.000000 1.401244
v -0.142111 -0.000000 1.117022
v -0.142111 -0.000000 0.897591
v -0.142111 -0.000000 0.613369
v -0.142111 -0.000000 0.393937
v -1.872503 -0.000000 1.872503
v -0.393937 -0.000000 1.872503
v -1.653071 -0.000000 1.653071
v -1.653071 -0.000000 0.613369
v -0.613369 -0.000000 1.653071
v -0.613369 -0.000000 0.613369
v -0.393937 -0.000000 0.393937
v -1.872503 -0.000000 0.393937
v -0.109716 -0.000000 1.872503
v 0.109716 -0.000000 1.872503
v 0.109716 -0.000000 1.653071
v 0.109716 -0.000000 1.368849
v 0.109716 -0.000000 1.149417
v 0.109716 -0.000000 0.865196
v 0.109716 -0.000000 0.645764
v -0.109716 -0.000000 1.653071
v -0.109716 -0.000000 1.368849
v -0.109716 -0.000000 1.149417
v -0.109716 -0.000000 0.865196
v -0.109716 -0.000000 0.645764
v -0.338636 -0.000000 0.361542
v 0.000000 -0.000000 0.022907
v 0.338636 -0.000000 0.361542
v -0.361542 -0.000000 1.872503
v -0.142111 -0.000000 1.872503
v -0.361542 -0.000000 1.653071
v -0.361542 -0.000000 1.368849
v -0.361542 -0.000000 1.149417
v -0.361542 -0.000000 0.865196
v -0.361542 -0.000000 0.645764
v -0.142111 -0.000000 1.653071
v -0.142111 -0.000000 1.368849
v -0.142111 -0.000000 1.149417
v -0.142111 -0.000000 0.865196
v -0.142111 -0.000000 0.645764
v 0.109716 -0.000000 1.620676
v 0.109716 -0.000000 1.401244
v 0.109716 -0.000000 1.117022
v 0.109716 -0.000000 0.897591
v 0.109716 -0.000000 0.613369
v 0.109716 -0.000000 0.393937
v -0.109716 -0.000000 1.620676
v -0.109716 -0.000000 1.401244
v -0.109716 -0.000000 1.117022
v -0.109716 -0.000000 0.897591
v -0.109716 -0.000000 0.613369
v -0.109716 -0.000000 0.393937
v -0.058483 -0.000000 1.755899
v 0.058483 -0.000000 1.755899
v -0.029242 -0.000000 1.755899
v 0.029242 -0.000000 1.755899
v -0.029242 -0.000000 1.848496
v 0.029242 -0.000000 1.848496
v 0.000000 -0.000000 1.676085
v 0.022900 0.008338 1.749557
v 0.045974 0.008338 1.749557
v -0.045974 0.008338 1.749557
v -0.022900 0.008338 1.749557
v 0.022900 0.008338 1.842154
v -0.022900 0.008338 1.842154
v 0.000000 0.008338 1.686814
v -1.636873 -0.021924 1.636873
v -1.636873 -0.021924 0.629567
v -0.629567 -0.021924 1.636873
v -0.629567 -0.021924 0.629567
v -1.619108 0.000000 1.619108
v -1.619108 0.000000 0.647332
v -0.647332 0.000000 1.619108
v -0.647332 0.000000 0.647332
v -1.385047 0.000000 1.226091
v -1.445877 0.000000 1.238191
v -1.497446 0.000000 1.272648
v -1.531903 0.000000 1.324217
v -1.544002 0.000000 1.385047
v -1.531903 0.000000 1.445876
v -1.497446 0.000000 1.497445
v -1.445877 0.000000 1.531902
v -1.385047 0.000000 1.544002
v -1.324217 0.000000 1.531902
v -1.272648 0.000000 1.497445
v -1.238191 0.000000 1.445876
v -1.226092 0.000000 1.385047
v -1.238191 0.000000 1.324217
v -1.272648 0.000000 1.272648
v -1.324217 0.000000 1.238191
v -0.881394 0.000000 1.226091
v -0.942223 0.000000 1.238191
v -0.993792 0.000000 1.272648
v -1.028249 0.000000 1.324217
v -1.040349 0.000000 1.385047
v -1.028249 0.000000 1.445876
v -0.993792 0.000000 1.497445
v -0.942223 0.000000 1.531902
v -0.881394 0.000000 1.544002
v -0.820564 0.000000 1.531902
v -0.768995 0.000000 1.497445
v -0.734538 0.000000 1.445876
v -0.722438 0.000000 1.385047
v -0.734538 0.000000 1.324217
v -0.768995 0.000000 1.272648
v -0.820564 0.000000 1.238191
v -0.881393 0.000000 0.722438
v -0.942223 0.000000 0.734537
v -0.993792 0.000000 0.768995
v -1.028249 0.000000 0.820564
v -1.040349 0.000000 0.881393
v -1.028249 0.000000 0.942223
v -0.993792 0.000000 0.993792
v -0.942223 0.000000 1.028249
v -0.881393 0.000000 1.040349
v -0.820564 0.000000 1.028249
v -0.768995 0.000000 0.993792
v -0.734538 0.000000 0.942223
v -0.722438 0.000000 0.881393
v -0.734538 0.000000 0.820564
v -0.768995 0.000000 0.768995
v -0.820564 0.000000 0.734537
v -1.385047 0.000000 0.722438
v -1.445877 0.000000 0.734538
v -1.497446 0.000000 0.768995
v -1.531903 0.000000 0.820564
v -1.544002 0.000000 0.881393
v -1.531903 0.000000 0.942223
v -1.497446 0.000000 0.993792
v -1.445877 0.000000 1.028249
v -1.385047 0.000000 1.040349
v -1.324217 0.000000 1.028249
v -1.272648 0.000000 0.993792
v -1.238191 0.000000 0.942223
v -1.226092 0.000000 0.881393
v -1.238191 0.000000 0.820564
v -1.272648 0.000000 0.768995
v -1.324217 0.000000 0.734538
v -1.385047 -0.000000 1.257252
v -1.433952 -0.000000 1.266979
v -1.475412 -0.000000 1.294682
v -1.503114 -0.000000 1.336142
v -1.512842 -0.000000 1.385047
v -1.503114 -0.000000 1.433951
v -1.475412 -0.000000 1.475411
v -1.433952 -0.000000 1.503114
v -1.385047 -0.000000 1.512842
v -1.336142 -0.000000 1.503114
v -1.294682 -0.000000 1.475411
v -1.266980 -0.000000 1.433951
v -1.257252 -0.000000 1.385047
v -1.266980 -0.000000 1.336142
v -1.294682 -0.000000 1.294682
v -1.336142 -0.000000 1.266979
v -0.881394 -0.000000 1.257252
v -0.930299 -0.000000 1.266979
v -0.971758 -0.000000 1.294682
v -0.999461 -0.000000 1.336142
v -1.009189 -0.000000 1.385047
v -0.999461 -0.000000 1.433951
v -0.971758 -0.000000 1.475411
v -0.930299 -0.000000 1.503114
v -0.881394 -0.000000 1.512842
v -0.832489 -0.000000 1.503114
v -0.791029 -0.000000 1.475411
v -0.763326 -0.000000 1.433951
v -0.753599 -0.000000 1.385047
v -0.763326 -0.000000 1.336142
v -0.791029 -0.000000 1.294682
v -0.832489 -0.000000 1.266979
v -0.881393 -0.000000 0.753598
v -0.930299 -0.000000 0.763326
v -0.971758 -0.000000 0.791028
v -0.999461 -0.000000 0.832488
v -1.009188 -0.000000 0.881393
v -0.999461 -0.000000 0.930298
v -0.971758 -0.000000 0.971758
v -0.930299 -0.000000 0.999460
v -0.881393 -0.000000 1.009188
v -0.832488 -0.000000 0.999460
v -0.791029 -0.000000 0.971758
v -0.763326 -0.000000 0.930298
v -0.753598 -0.000000 0.881393
v -0.763326 -0.000000 0.832488
v -0.791029 -0.000000 0.791028
v -0.832488 -0.000000 0.763326
v -1.385047 -0.000000 0.753598
v -1.433952 -0.000000 0.763326
v -1.475412 -0.000000 0.791028
v -1.503114 -0.000000 0.832488
v -1.512842 -0.000000 0.881393
v -1.503114 -0.000000 0.930298
v -1.475412 -0.000000 0.971758
v -1.433952 -0.000000 0.999460
v -1.385047 -0.000000 1.009188
v -1.336142 -0.000000 0.999460
v -1.294682 -0.000000 0.971758
v -1.266980 -0.000000 0.930298
v -1.257252 -0.000000 0.881393
v -1.266980 -0.000000 0.832488
v -1.294682 -0.000000 0.791028
v -1.336142 -0.000000 0.763326
v -1.385047 -0.000000 1.257252
v -1.433952 -0.000000 1.266979
v -1.475412 -0.000000 1.294682
v -1.503114 -0.000000 1.336142
v -1.512842 -0.000000 1.385047
v -1.503114 -0.000000 1.433951
v -1.475412 -0.000000 1.475411
v -1.433952 -0.000000 1.503114
v -1.385047 -0.000000 1.512842
v -1.336142 -0.000000 1.503114
v -1.294682 -0.000000 1.475411
v -1.266980 -0.000000 1.433951
v -1.257252 -0.000000 1.385047
v -1.266980 -0.000000 1.336142
v -1.294682 -0.000000 1.294682
v -1.336142 -0.000000 1.266979
v -0.881394 -0.000000 1.257252
v -0.930299 -0.000000 1.266979
v -0.971758 -0.000000 1.294682
v -0.999461 -0.000000 1.336142
v -1.009189 -0.000000 1.385047
v -0.999461 -0.000000 1.433951
v -0.971758 -0.000000 1.475411
v -0.930299 -0.000000 1.503114
v -0.881394 -0.000000 1.512842
v -0.832489 -0.000000 1.503114
v -0.791029 -0.000000 1.475411
v -0.763326 -0.000000 1.433951
v -0.753599 -0.000000 1.385047
v -0.763326 -0.000000 1.336142
v -0.791029 -0.000000 1.294682
v -0.832489 -0.000000 1.266979
v -0.881393 -0.000000 0.753598
v -0.930299 -0.000000 0.763326
v -0.971758 -0.000000 0.791028
v -0.999461 -0.000000 0.832488
v -1.009188 -0.000000 0.881393
v -0.999461 -0.000000 0.930298
v -0.971758 -0.000000 0.971758
v -0.930299 -0.000000 0.999460
v -0.881393 -0.000000 1.009188
v -0.832488 -0.000000 0.999460
v -0.791029 -0.000000 0.971758
v -0.763326 -0.000000 0.930298
v -0.753598 -0.000000 0.881393
v -0.763326 -0.000000 0.832488
v -0.791029 -0.000000 0.791028
v -0.832488 -0.000000 0.763326
v -1.385047 -0.000000 0.753598
v -1.433952 -0.000000 0.763326
v -1.475412 -0.000000 0.791028
v -1.503114 -0.000000 0.832488
v -1.512842 -0.000000 0.881393
v -1.503114 -0.000000 0.930298
v -1.475412 -0.000000 0.971758
v -1.433952 -0.000000 0.999460
v -1.385047 -0.000000 1.009188
v -1.336142 -0.000000 0.999460
v -1.294682 -0.000000 0.971758
v -1.266980 -0.000000 0.930298
v -1.257252 -0.000000 0.881393
v -1.266980 -0.000000 0.832488
v -1.294682 -0.000000 0.791028
v -1.336142 -0.000000 0.763326
v -1.385047 -0.017922 1.241671
v -1.439914 -0.017922 1.252585
v -1.486429 -0.017922 1.283665
v -1.517509 -0.017922 1.330179
v -1.528422 -0.017922 1.385047
v -1.517509 -0.017922 1.439914
v -1.486429 -0.017922 1.486428
v -1.439914 -0.017922 1.517508
v -1.385047 -0.017922 1.528422
v -1.330180 -0.017922 1.517508
v -1.283665 -0.017922 1.486428
v -1.252586 -0.017922 1.439914
v -1.241672 -0.017922 1.385047
v -1.252586 -0.017922 1.330179
v -1.283665 -0.017922 1.283665
v -1.330180 -0.017922 1.252585
v -0.982775 -0.017922 1.486428
v -0.936261 -0.017922 1.517508
v -0.881394 -0.017922 1.528422
v -0.826526 -0.017922 1.517508
v -0.780012 -0.017922 1.486428
v -0.748932 -0.017922 1.439914
v -0.738018 -0.017922 1.385047
v -0.748932 -0.017922 1.330179
v -0.780012 -0.017922 1.283665
v -0.826526 -0.017922 1.252585
v -0.881394 -0.017922 1.241671
v -0.936261 -0.017922 1.252585
v -0.982775 -0.017922 1.283665
v -1.013855 -0.017922 1.330179
v -1.024769 -0.017922 1.385047
v -1.013855 -0.017922 1.439914
v -1.385047 -0.017922 0.738018
v -1.439914 -0.017922 0.748932
v -1.486429 -0.017922 0.780011
v -1.517509 -0.017922 0.826526
v -1.528422 -0.017922 0.881393
v -1.517509 -0.017922 0.936260
v -1.486429 -0.017922 0.982775
v -1.439914 -0.017922 1.013855
v -1.385047 -0.017922 1.024769
v -1.330180 -0.017922 1.013855
v -1.283665 -0.017922 0.982775
v -1.252586 -0.017922 0.936260
v -1.241672 -0.017922 0.881393
v -1.252586 -0.017922 0.826526
v -1.283665 -0.017922 0.780011
v -1.330180 -0.017922 0.748932
v -0.881393 -0.017922 0.738018
v -0.936261 -0.017922 0.748932
v -0.982775 -0.017922 0.780011
v -1.013855 -0.017922 0.826526
v -1.024769 -0.017922 0.881393
v -1.013855 -0.017922 0.936260
v -0.982775 -0.017922 0.982775
v -0.936261 -0.017922 1.013855
v -0.881393 -0.017922 1.024768
v -0.826526 -0.017922 1.013855
v -0.780012 -0.017922 0.982775
v -0.748932 -0.017922 0.936260
v -0.738018 -0.017922 0.881393
v -0.748932 -0.017922 0.826526
v -0.780012 -0.017922 0.780011
v -0.826526 -0.017922 0.748932
v -1.619108 0.000000 1.619108
v -1.619108 0.000000 0.647332
v -0.647332 0.000000 1.619108
v -0.647332 0.000000 0.647332
v -1.385047 0.000000 1.226091
v -1.445877 0.000000 1.238191
v -1.497446 0.000000 1.272648
v -1.531903 0.000000 1.324217
v -1.544002 0.000000 1.385047
v -1.531903 0.000000 1.445876
v -1.497446 0.000000 1.497445
v -1.445877 0.000000 1.531902
v -1.385047 0.000000 1.544002
v -1.324217 0.000000 1.531902
v -1.272648 0.000000 1.497445
v -1.238191 0.000000 1.445876
v -1.226092 0.000000 1.385047
v -1.238191 0.000000 1.324217
v -1.272648 0.000000 1.272648
v -1.324217 0.000000 1.238191
v -0.881394 0.000000 1.226091
v -0.942223 0.000000 1.238191
v -0.993792 0.000000 1.272648
v -1.028249 0.000000 1.324217
v -1.040349 0.000000 1.385047
v -1.028249 0.000000 1.445876
v -0.993792 0.000000 1.497445
v -0.942223 0.000000 1.531902
v -0.881394 0.000000 1.544002
v -0.820564 0.000000 1.531902
v -0.768995 0.000000 1.497445
v -0.734538 0.000000 1.445876
v -0.722438 0.000000 1.385047
v -0.734538 0.000000 1.324217
v -0.768995 0.000000 1.272648
v -0.820564 0.000000 1.238191
v -0.881393 0.000000 0.722438
v -0.942223 0.000000 0.734537
v -0.993792 0.000000 0.768995
v -1.028249 0.000000 0.820564
v -1.040349 0.000000 0.881393
v -1.028249 0.000000 0.942223
v -0.993792 0.000000 0.993792
v -0.942223 0.000000 1.028249
v -0.881393 0.000000 1.040349
v -0.820564 0.000000 1.028249
v -0.768995 0.000000 0.993792
v -0.734538 0.000000 0.942223
v -0.722438 0.000000 0.881393
v -0.734538 0.000000 0.820564
v -0.768995 0.000000 0.768995
v -0.820564 0.000000 0.734537
v -1.385047 0.000000 0.722438
v -1.445877 0.000000 0.734538
v -1.497446 0.000000 0.768995
v -1.531903 0.000000 0.820564
v -1.544002 0.000000 0.881393
v -1.531903 0.000000 0.942223
v -1.497446 0.000000 0.993792
v -1.445877 0.000000 1.028249
v -1.385047 0.000000 1.040349
v -1.324217 0.000000 1.028249
v -1.272648 0.000000 0.993792
v -1.238191 0.000000 0.942223
v -1.226092 0.000000 0.881393
v -1.238191 0.000000 0.820564
v -1.272648 0.000000 0.768995
v -1.324217 0.000000 0.734538
v -1.133220 0.000000 1.324217
v -1.133220 0.000000 1.385047
v -1.133220 0.000000 1.445876
v -1.133220 0.000000 0.881393
v -1.133220 0.000000 0.820564
v -1.133220 0.000000 0.942223
v -1.133220 0.000000 1.497445
v -1.133220 0.000000 1.531902
v -1.133220 0.000000 1.619108
v -1.133220 0.000000 1.544002
v -1.133220 0.000000 0.734537
v -1.133220 0.000000 0.722438
v -1.133220 0.000000 0.647332
v -1.133220 0.000000 0.768995
v -0.881394 0.000000 1.133220
v -0.820564 0.000000 1.133220
v -0.942223 0.000000 1.133220
v -0.993792 0.000000 1.133220
v -1.028249 0.000000 1.133220
v -1.385047 0.000000 1.133220
v -1.324217 0.000000 1.133220
v -1.445877 0.000000 1.133220
v -1.272648 0.000000 1.133220
v -1.238191 0.000000 1.133220
v -0.768995 0.000000 1.133220
v -0.734538 0.000000 1.133220
v -1.497446 0.000000 1.133220
v -1.531903 0.000000 1.133220
v -1.133220 0.000000 1.133220
v -1.544002 0.000000 1.133220
v -0.722438 0.000000 1.133220
v -0.647332 0.000000 1.133220
v -1.619108 0.000000 1.133220
v 0.000000 -0.000000 1.872503
v 0.000000 -0.000000 0.645764
v 0.000000 -0.000000 0.865196
v 0.000000 -0.000000 1.149417
v 0.000000 -0.000000 1.368849
v 0.000000 -0.000000 1.653071
v 0.000000 -0.000000 0.393937
v 0.000000 -0.000000 0.613369
v 0.000000 -0.000000 0.897591
v 0.000000 -0.000000 1.117022
v 0.000000 -0.000000 1.401244
v 0.000000 -0.000000 1.620676
v 0.000000 -0.021924 1.888700
v 0.000000 -0.021924 0.629567
v 0.000000 -0.021924 0.881393
v 0.000000 -0.021924 1.133220
v 0.000000 -0.021924 1.385046
v 0.000000 -0.021924 1.636873
v 0.000000 -0.021924 0.377740
v -0.881393 -0.021924 0.125913
v -0.377740 -0.021924 0.125913
v -1.636873 -0.021924 0.377740
v -0.881393 -0.021924 0.377740
v -0.377740 -0.021924 0.377740
v -1.888700 -0.021924 0.125914
v -1.888700 -0.021924 0.377740
v -1.385046 -0.021924 0.125914
v -1.133220 -0.021924 0.125914
v -0.629567 -0.021924 0.125913
v -1.385046 -0.021924 0.377740
v -1.133220 -0.021924 0.377740
v -0.629566 -0.021924 0.377740
v -1.636873 -0.021924 0.125914
v -1.620676 -0.000000 0.142111
v -1.401244 -0.000000 0.142111
v -1.117022 -0.000000 0.142111
v -0.897591 -0.000000 0.142111
v -0.613369 -0.000000 0.142111
v -0.393937 -0.000000 0.142111
v -1.620676 -0.000000 0.361543
v -1.401244 -0.000000 0.361543
v -1.117022 -0.000000 0.361543
v -0.897591 -0.000000 0.361543
v -0.613369 -0.000000 0.361543
v -0.393937 -0.000000 0.361543
v -1.872503 -0.000000 0.142111
v -1.872503 -0.000000 0.361543
v -1.653071 -0.000000 0.142111
v -1.368849 -0.000000 0.142111
v -1.149417 -0.000000 0.142111
v -0.865196 -0.000000 0.142111
v -0.645764 -0.000000 0.142111
v -1.653071 -0.000000 0.361543
v -1.368849 -0.000000 0.361543
v -1.149417 -0.000000 0.361543
v -0.865196 -0.000000 0.361543
v -0.645764 -0.000000 0.361543
v -1.499043 0.009025 0.193714
v -1.515816 0.009025 0.197100
v -1.463235 0.009025 0.190383
v -1.481373 0.009025 0.191739
v -1.457495 0.009025 0.193431
v -1.458084 0.009025 0.190171
v -1.441297 0.009025 0.244312
v -1.448911 0.009025 0.227847
v -1.437160 0.009025 0.251827
v -1.454046 0.009025 0.210372
v -1.441297 0.009025 0.259342
v -1.558752 0.009025 0.220579
v -1.571543 0.009025 0.232008
v -1.581885 0.009025 0.244665
v -1.531387 0.009025 0.202329
v -1.545492 0.009025 0.210035
v -1.499043 0.009025 0.309940
v -1.515816 0.009025 0.306554
v -1.463235 0.009025 0.313271
v -1.481373 0.009025 0.311915
v -1.457495 0.009025 0.310223
v -1.458084 0.009025 0.313483
v -1.448911 0.009025 0.275806
v -1.454046 0.009025 0.293282
v -1.586247 0.009025 0.251827
v -1.581885 0.009025 0.258989
v -1.558752 0.009025 0.283075
v -1.571543 0.009025 0.271646
v -1.531387 0.009025 0.301325
v -1.545492 0.009025 0.293619
v -1.568610 0.000000 0.208888
v -1.553976 0.000000 0.197252
v -1.537532 0.000000 0.188268
v -1.519777 0.000000 0.182305
v -1.501409 0.000000 0.178597
v -1.482793 0.000000 0.176516
v -1.464119 0.000000 0.175120
v -1.445411 0.000000 0.174350
v -1.442482 0.000000 0.190546
v -1.439197 0.000000 0.206686
v -1.434563 0.000000 0.222455
v -1.427647 0.000000 0.237410
v -1.419712 0.000000 0.251827
v -1.582621 0.000000 0.221408
v -1.594391 0.000000 0.235811
v -1.568610 0.000000 0.294766
v -1.553976 0.000000 0.306402
v -1.537532 0.000000 0.315386
v -1.519777 0.000000 0.321349
v -1.501409 0.000000 0.325056
v -1.482793 0.000000 0.327138
v -1.464119 0.000000 0.328534
v -1.604144 0.000000 0.251827
v -1.445411 0.000000 0.329304
v -1.442482 0.000000 0.313108
v -1.439197 0.000000 0.296968
v -1.434563 0.000000 0.281199
v -1.427647 0.000000 0.266244
v -1.582621 0.000000 0.282246
v -1.594391 0.000000 0.267843
v -1.499043 0.009025 0.193714
v -1.515816 0.009025 0.197100
v -1.463235 0.009025 0.190383
v -1.481373 0.009025 0.191739
v -1.457495 0.009025 0.193431
v -1.458084 0.009025 0.190171
v -1.441297 0.009025 0.244312
v -1.448911 0.009025 0.227847
v -1.437160 0.009025 0.251827
v -1.454046 0.009025 0.210372
v -1.441297 0.009025 0.259342
v -1.558752 0.009025 0.220579
v -1.571543 0.009025 0.232008
v -1.581885 0.009025 0.244665
v -1.531387 0.009025 0.202329
v -1.545492 0.009025 0.210035
v -1.499043 0.009025 0.309940
v -1.515816 0.009025 0.306554
v -1.463235 0.009025 0.313271
v -1.481373 0.009025 0.311915
v -1.457495 0.009025 0.310223
v -1.458084 0.009025 0.313483
v -1.448911 0.009025 0.275806
v -1.454046 0.009025 0.293282
v -1.586247 0.009025 0.251827
v -1.581885 0.009025 0.258989
v -1.558752 0.009025 0.283075
v -1.571543 0.009025 0.271646
v -1.531387 0.009025 0.301325
v -1.545492 0.009025 0.293619
vn -0.0000 1.0000 -0.0000
vn -0.8043 0.5942 -0.0000
vn 0.8043 0.5942 -0.0000
vn -0.0000 0.5942 -0.8043
vn -0.0000 0.5942 0.8043
vn 0.5687 0.5942 -0.5687
vn -0.5687 0.5942 -0.5687
vn -0.0000 0.6054 0.7959
vn -0.0000 0.6054 0.7960
vn 0.7959 0.6054 -0.0000
vn -0.7959 0.6054 -0.0000
vn 0.6420 0.6054 -0.4704
vn -0.6420 0.6054 -0.4705
vn -0.4649 0.7535 -0.4649
vn -0.4649 0.7535 0.4649
vn 0.4649 0.7535 0.4649
vn 0.4649 0.7535 -0.4649
vn -0.2888 0.6561 -0.6972
vn -0.0000 0.9956 0.0936
vn 0.0358 0.9956 0.0864
vn 0.0358 0.9956 -0.0864
vn -0.5336 0.6561 0.5336
vn 0.0661 0.9956 -0.0662
vn -0.5336 0.6561 -0.5336
vn 0.0662 0.9956 0.0662
vn -0.0000 0.9956 -0.0936
vn -0.2888 0.6561 0.6972
vn -0.6972 0.6561 -0.2888
vn 0.0864 0.9956 0.0358
vn -0.0358 0.9956 -0.0864
vn -0.0000 0.6561 0.7547
vn 0.0936 0.9956 -0.0000
vn -0.0662 0.9956 -0.0662
vn 0.2888 0.6561 0.6972
vn -0.6972 0.6561 0.2888
vn 0.0864 0.9956 -0.0358
vn -0.0865 0.9956 -0.0358
vn 0.5336 0.6561 0.5336
vn 0.0662 0.9956 -0.0662
vn 0.7547 0.6561 -0.0000
vn -0.0936 0.9956 -0.0000
vn -0.0865 0.9956 0.0358
vn 0.5336 0.6561 -0.5336
vn -0.0662 0.9956 0.0662
vn -0.0358 0.9956 -0.0865
vn 0.2888 0.6561 -0.6972
vn -0.0358 0.9956 0.0864
vn -0.0661 0.9956 -0.0661
vn 0.0661 0.9956 -0.0661
vn 0.0358 0.9956 0.0865
vn -0.0000 0.6561 -0.7547
vn 0.6972 0.6561 -0.2888
vn -0.0864 0.9956 0.0358
vn -0.0661 0.9956 0.0661
vn -0.7547 0.6561 -0.0000
vn -0.0358 0.9956 0.0865
vn 0.0661 0.9956 0.0661
vn 0.6972 0.6561 0.2888
vn -0.0786 0.8613 -0.5019
vn -0.1313 0.8616 -0.4904
vn -0.0294 0.8612 -0.5075
vn -0.0472 0.8612 -0.5061
vn 0.4992 0.8611 -0.0959
vn 0.2543 0.9136 -0.3174
vn 0.4535 0.8613 -0.2293
vn 0.4749 0.8617 -0.1785
vn 0.4594 0.8882 -0.0000
vn 0.4931 0.8613 -0.1224
vn 0.4535 0.8613 0.2293
vn -0.3276 0.8612 -0.3886
vn -0.3665 0.8618 -0.3507
vn -0.4142 0.8617 -0.2932
vn -0.2030 0.8620 -0.4645
vn -0.2803 0.8619 -0.4224
vn -0.2804 0.8619 -0.4224
vn -0.1313 0.8616 0.4904
vn -0.0786 0.8613 0.5019
vn -0.0472 0.8612 0.5061
vn -0.0294 0.8612 0.5075
vn 0.2543 0.9136 0.3174
vn 0.4992 0.8611 0.0959
vn 0.4749 0.8617 0.1785
vn 0.4931 0.8613 0.1224
vn -0.4502 0.8929 -0.0000
vn -0.4142 0.8617 0.2932
vn -0.3665 0.8618 0.3507
vn -0.3276 0.8612 0.3886
vn -0.2803 0.8619 0.4224
vn -0.2030 0.8620 0.4645
vn -0.2804 0.8619 0.4224
vn 0.6420 0.6054 -0.4705
vn -0.6420 0.6054 -0.4704
vt 0.462379 0.395712
vt 0.404288 0.337621
vt 0.462379 0.337621
vt 0.462379 0.204288
vt 0.404288 0.262379
vt 0.404288 0.204288
vt 0.462379 0.070955
vt 0.404288 0.129045
vt 0.404288 0.070955
vt 0.395712 0.395712
vt 0.062379 0.337621
vt 0.337621 0.337621
vt 0.337621 0.062379
vt 0.395712 0.004288
vt 0.062379 0.062379
vt 0.004288 0.004288
vt 0.004288 0.395712
vt 0.500000 0.004288
vt 0.529045 0.062379
vt 0.500000 0.062379
vt 0.529045 0.270955
vt 0.500000 0.329045
vt 0.500000 0.270955
vt 0.529045 0.137621
vt 0.500000 0.195712
vt 0.500000 0.137621
vt 0.589648 0.404288
vt 0.500000 0.493936
vt 0.410352 0.404288
vt 0.404288 0.004288
vt 0.462379 0.062379
vt 0.404288 0.062379
vt 0.462379 0.270955
vt 0.404288 0.329045
vt 0.404288 0.270955
vt 0.462379 0.137621
vt 0.404288 0.195712
vt 0.404288 0.137621
vt 0.500000 0.395712
vt 0.470955 0.337621
vt 0.500000 0.337621
vt 0.529045 0.204288
vt 0.500000 0.262379
vt 0.500000 0.204288
vt 0.529045 0.070955
vt 0.500000 0.129045
vt 0.500000 0.070955
vt 0.400000 0.066667
vt 0.400000 0.200000
vt 0.400000 0.400000
vt 0.400000 0.333333
vt 0.462379 0.129045
vt 0.466667 0.066667
vt 0.466667 0.133333
vt 0.466667 0.266667
vt 0.462379 0.262379
vt 0.466667 0.400000
vt 0.404288 0.395712
vt 0.466667 0.333333
vt 0.400000 0.266667
vt 0.466667 0.200000
vt 0.400000 0.133333
vt 0.400000 0.000000
vt 0.066667 0.333333
vt 0.333333 0.066667
vt 0.000000 0.400000
vt 0.333333 0.333333
vt 0.066667 0.066667
vt 0.000000 0.000000
vt 0.470955 0.004288
vt 0.500000 0.000000
vt 0.533333 0.000000
vt 0.533333 0.066667
vt 0.533333 0.200000
vt 0.529045 0.195712
vt 0.533333 0.333333
vt 0.529045 0.329045
vt 0.470955 0.062379
vt 0.466667 0.000000
vt 0.470955 0.195712
vt 0.470955 0.137621
vt 0.470955 0.270955
vt 0.500000 0.333333
vt 0.500000 0.266667
vt 0.500000 0.200000
vt 0.500000 0.133333
vt 0.500000 0.066667
vt 0.600000 0.400000
vt 0.500000 0.500000
vt 0.462379 0.004288
vt 0.462379 0.195712
vt 0.462379 0.329045
vt 0.529045 0.129045
vt 0.533333 0.133333
vt 0.533333 0.266667
vt 0.529045 0.262379
vt 0.529045 0.337621
vt 0.533333 0.400000
vt 0.529045 0.395712
vt 0.470955 0.129045
vt 0.470955 0.070955
vt 0.470955 0.262379
vt 0.470955 0.204288
vt 0.500000 0.400000
vt 0.506062 0.036836
vt 0.493938 0.012322
vt 0.506062 0.012322
vt 0.500000 0.053446
vt 0.493938 0.036836
vt 0.487829 0.036836
vt 0.512171 0.036836
vt 0.507741 0.035157
vt 0.515482 0.035157
vt 0.492259 0.035157
vt 0.507741 0.010643
vt 0.492259 0.010643
vt 0.500000 0.056286
vt 0.500000 0.056286
vt 0.484518 0.035157
vt 0.071370 0.328630
vt 0.071370 0.071370
vt 0.328630 0.328630
vt 0.328630 0.071370
vt 0.470955 0.395712
vt 0.470955 0.329045
vt 0.529045 0.004288
vt 0.595712 0.395712
vt 0.537621 0.337621
vt 0.595712 0.337621
vt 0.595712 0.204288
vt 0.537621 0.262379
vt 0.537621 0.204288
vt 0.595712 0.070955
vt 0.537621 0.129045
vt 0.537621 0.070955
vt 0.595712 0.270955
vt 0.537621 0.329045
vt 0.537621 0.270955
vt 0.595712 0.137621
vt 0.537621 0.195712
vt 0.537621 0.137621
vt 0.595712 0.129045
vt 0.600000 0.066667
vt 0.600000 0.133333
vt 0.600000 0.266667
vt 0.595712 0.262379
vt 0.537621 0.004288
vt 0.595712 0.062379
vt 0.537621 0.062379
vt 0.537621 0.395712
vt 0.600000 0.333333
vt 0.600000 0.200000
vt 0.600000 0.000000
vt 0.595712 0.195712
vt 0.595712 0.329045
vt 0.595712 0.004288
s 0
usemtl Equipo
f 36/7/1 31/8/1 30/9/1
f 48/10/1 45/11/1 47/12/1
f 48/10/1 46/13/1 43/14/1
f 43/14/1 44/15/1 42/16/1
f 49/17/1 44/15/1 45/11/1
f 55/21/1 469/22/1 470/23/1
f 53/24/1 471/25/1 472/26/1
f 64/27/1 63/28/1 62/29/1
f 474/39/1 87/40/1 475/41/1
f 79/42/1 476/43/1 477/44/1
f 77/45/1 478/46/1 479/47/1
f 96/105/1 101/106/1 100/107/1
f 96/105/1 102/108/1 99/109/1
f 99/109/1 102/108/1 98/110/1
f 96/105/1 97/111/1 102/108/1
f 295/69/1 299/69/1 287/69/1
f 247/69/1 251/69/1 239/69/1
f 263/69/1 267/69/1 255/69/1
f 279/69/1 283/69/1 271/69/1
f 479/47/1 84/100/1 83/101/1
f 477/44/1 86/102/1 85/103/1
f 82/99/1 475/41/1 81/97/1
f 472/26/1 59/80/1 58/81/1
f 470/23/1 61/125/1 60/82/1
f 535/69/1 531/69/1 528/69/1
f 36/7/1 37/52/1 31/8/1
f 48/10/1 49/17/1 45/11/1
f 48/10/1 47/12/1 46/13/1
f 43/14/1 46/13/1 44/15/1
f 49/17/1 42/16/1 44/15/1
f 55/21/1 56/77/1 469/22/1
f 53/24/1 54/75/1 471/25/1
f 474/39/1 88/124/1 87/40/1
f 79/42/1 80/96/1 476/43/1
f 77/45/1 78/93/1 478/46/1
f 96/105/1 99/109/1 101/106/1
f 287/69/1 288/69/1 289/69/1
f 289/69/1 290/69/1 291/69/1
f 291/69/1 292/69/1 293/69/1
f 293/69/1 294/69/1 295/69/1
f 295/69/1 296/69/1 297/69/1
f 297/69/1 298/69/1 299/69/1
f 299/69/1 300/69/1 301/69/1
f 301/69/1 302/69/1 287/69/1
f 287/69/1 289/69/1 291/69/1
f 291/69/1 293/69/1 295/69/1
f 295/69/1 297/69/1 299/69/1
f 299/69/1 301/69/1 287/69/1
f 287/69/1 291/69/1 295/69/1
f 239/69/1 240/69/1 241/69/1
f 241/69/1 242/69/1 243/69/1
f 243/69/1 244/69/1 245/69/1
f 245/69/1 246/69/1 247/69/1
f 247/69/1 248/69/1 249/69/1
f 249/69/1 250/69/1 251/69/1
f 251/69/1 252/69/1 253/69/1
f 253/69/1 254/69/1 239/69/1
f 239/69/1 241/69/1 243/69/1
f 243/69/1 245/69/1 247/69/1
f 247/69/1 249/69/1 251/69/1
f 251/69/1 253/69/1 239/69/1
f 239/69/1 243/69/1 247/69/1
f 255/69/1 256/69/1 257/69/1
f 257/69/1 258/69/1 259/69/1
f 259/69/1 260/69/1 261/69/1
f 261/69/1 262/69/1 263/69/1
f 263/69/1 264/69/1 265/69/1
f 265/69/1 266/69/1 267/69/1
f 267/69/1 268/69/1 269/69/1
f 269/69/1 270/69/1 255/69/1
f 255/69/1 257/69/1 259/69/1
f 259/69/1 261/69/1 263/69/1
f 263/69/1 265/69/1 267/69/1
f 267/69/1 269/69/1 255/69/1
f 255/69/1 259/69/1 263/69/1
f 271/69/1 272/69/1 273/69/1
f 273/69/1 274/69/1 275/69/1
f 275/69/1 276/69/1 277/69/1
f 277/69/1 278/69/1 279/69/1
f 279/69/1 280/69/1 281/69/1
f 281/69/1 282/69/1 283/69/1
f 283/69/1 284/69/1 285/69/1
f 285/69/1 286/69/1 271/69/1
f 271/69/1 273/69/1 275/69/1
f 275/69/1 277/69/1 279/69/1
f 279/69/1 281/69/1 283/69/1
f 283/69/1 285/69/1 271/69/1
f 271/69/1 275/69/1 279/69/1
f 479/47/1 478/46/1 84/100/1
f 477/44/1 476/43/1 86/102/1
f 82/99/1 474/39/1 475/41/1
f 472/26/1 471/25/1 59/80/1
f 470/23/1 469/22/1 61/125/1
f 528/69/1 525/69/1 526/69/1
f 526/69/1 539/69/1 540/69/1
f 540/69/1 536/69/1 537/69/1
f 537/69/1 538/69/1 549/69/1
f 549/69/1 550/69/1 552/69/1
f 552/69/1 551/69/1 554/69/1
f 554/69/1 553/69/1 542/69/1
f 542/69/1 541/69/1 544/69/1
f 544/69/1 543/69/1 546/69/1
f 544/69/1 546/69/1 545/69/1
f 554/69/1 542/69/1 544/69/1
f 549/69/1 552/69/1 554/69/1
f 540/69/1 537/69/1 549/69/1
f 528/69/1 526/69/1 540/69/1
f 530/69/1 527/69/1 528/69/1
f 529/69/1 530/69/1 528/69/1
f 528/69/1 540/69/1 549/69/1
f 549/69/1 554/69/1 544/69/1
f 544/69/1 545/69/1 548/69/1
f 544/69/1 548/69/1 547/69/1
f 528/69/1 549/69/1 544/69/1
f 534/69/1 529/69/1 528/69/1
f 532/69/1 534/69/1 528/69/1
f 528/69/1 544/69/1 547/69/1
f 535/69/1 533/69/1 531/69/1
f 528/69/1 547/69/1 535/69/1
f 531/69/1 532/69/1 528/69/1
usemtl bordes
f 31/8/2 4/48/2 30/9/2
f 33/5/2 6/49/2 32/6/2
f 34/2/2 8/50/2 7/51/2
f 37/52/3 9/53/3 10/54/3
f 38/4/3 18/55/3 39/56/3
f 40/3/3 29/57/3 41/1/3
f 41/1/4 8/50/4 35/58/4
f 34/2/5 28/59/5 40/3/5
f 39/56/4 25/60/4 33/5/4
f 32/6/5 26/61/5 38/4/5
f 37/52/4 5/62/4 31/8/4
f 30/9/5 9/53/5 36/7/5
f 42/16/5 20/63/5 43/14/5
f 44/15/3 14/64/3 45/11/3
f 47/12/2 15/65/2 46/13/2
f 43/14/3 8/50/3 48/10/3
f 48/10/4 12/66/4 49/17/4
f 47/12/5 14/64/5 16/67/5
f 44/15/4 15/65/4 13/68/4
f 49/17/2 11/69/2 42/16/2
f 50/70/5 480/71/5 468/18/5
f 52/19/3 17/72/3 27/73/3
f 53/24/3 23/74/3 54/75/3
f 55/21/3 24/76/3 56/77/3
f 57/78/2 21/79/2 50/70/2
f 59/80/2 10/54/2 58/81/2
f 60/82/2 28/59/2 18/55/2
f 56/77/4 481/83/4 469/22/4
f 60/82/5 482/84/5 470/23/5
f 54/75/4 483/85/4 471/25/4
f 58/81/5 484/86/5 472/26/5
f 52/19/4 485/87/4 473/20/4
f 62/29/5 3/88/5 64/27/5
f 64/27/6 19/89/6 63/28/6
f 62/29/7 19/89/7 8/50/7
f 65/30/5 21/79/5 66/90/5
f 67/32/2 20/63/2 65/30/2
f 69/37/2 5/62/2 68/38/2
f 70/35/2 7/51/2 25/60/2
f 72/31/3 21/79/3 9/53/3
f 73/36/3 26/61/3 74/91/3
f 75/33/3 28/59/3 76/92/3
f 76/92/4 7/51/4 71/34/4
f 70/35/5 18/55/5 75/33/5
f 74/91/4 6/49/4 69/37/4
f 68/38/5 10/54/5 73/36/5
f 72/31/4 4/48/4 67/32/4
f 78/93/3 27/73/3 22/94/3
f 79/42/3 1/95/3 80/96/3
f 81/97/3 2/98/3 82/99/3
f 84/100/2 9/53/2 83/101/2
f 86/102/2 26/61/2 85/103/2
f 87/40/2 29/57/2 28/59/2
f 82/99/4 486/104/4 474/39/4
f 87/40/5 481/83/5 475/41/5
f 80/96/4 482/84/4 476/43/4
f 85/103/5 483/85/5 477/44/5
f 78/93/4 484/86/4 478/46/4
f 83/101/5 485/87/5 479/47/5
f 97/111/8 92/112/8 90/113/8
f 98/110/9 91/114/9 99/109/9
f 100/107/10 92/112/10 96/105/10
f 101/106/8 94/115/8 100/107/8
f 101/106/11 91/114/11 93/116/11
f 97/111/12 95/117/12 102/108/12
f 98/110/13 95/118/13 89/119/13
s 1
f 108/120/14 103/68/15 107/121/15
f 105/65/16 110/122/17 109/123/16
f 110/122/17 104/64/14 108/120/14
f 107/121/15 105/65/16 109/123/16
f 224/69/18 335/69/19 336/69/20
f 320/69/21 197/69/22 319/69/23
f 225/69/24 336/69/20 337/69/25
f 321/69/26 198/69/27 320/69/21
f 226/69/28 337/69/25 338/69/29
f 322/69/30 199/69/31 321/69/26
f 339/69/32 226/69/28 338/69/29
f 323/69/33 200/69/34 322/69/30
f 228/69/35 339/69/32 340/69/36
f 324/69/37 201/69/38 323/69/33
f 176/69/18 303/69/19 304/69/20
f 341/69/39 228/69/35 340/69/36
f 203/69/40 324/69/37 325/69/41
f 177/69/24 304/69/20 305/69/25
f 342/69/21 229/69/22 341/69/39
f 326/69/42 203/69/40 325/69/41
f 178/69/28 305/69/25 306/69/29
f 343/69/26 230/69/27 342/69/21
f 205/69/43 326/69/42 327/69/44
f 307/69/32 178/69/28 306/69/29
f 344/69/45 231/69/31 343/69/26
f 206/69/46 327/69/44 328/69/47
f 180/69/35 307/69/32 308/69/36
f 233/69/38 344/69/45 345/69/48
f 329/69/19 206/69/46 328/69/47
f 181/69/22 308/69/36 309/69/49
f 346/69/37 233/69/38 345/69/48
f 352/69/50 207/69/51 351/69/19
f 310/69/21 181/69/22 309/69/49
f 235/69/40 346/69/37 347/69/41
f 209/69/24 352/69/50 353/69/25
f 311/69/26 182/69/27 310/69/21
f 236/69/52 347/69/41 348/69/53
f 210/69/28 353/69/25 354/69/29
f 312/69/45 183/69/31 311/69/26
f 237/69/43 348/69/53 349/69/54
f 211/69/55 354/69/29 355/69/32
f 185/69/38 312/69/45 313/69/48
f 350/69/56 237/69/43 349/69/54
f 212/69/35 355/69/32 356/69/36
f 314/69/37 185/69/38 313/69/48
f 223/69/51 350/69/56 335/69/19
f 357/69/39 212/69/35 356/69/36
f 187/69/40 314/69/37 315/69/41
f 358/69/21 213/69/22 357/69/39
f 188/69/52 315/69/41 316/69/53
f 359/69/26 214/69/27 358/69/21
f 189/69/43 316/69/53 317/69/54
f 216/69/34 359/69/26 360/69/30
f 318/69/47 189/69/43 317/69/54
f 217/69/38 360/69/30 361/69/48
f 175/69/51 318/69/47 303/69/19
f 362/69/37 217/69/38 361/69/48
f 192/69/18 329/69/19 330/69/20
f 219/69/40 362/69/37 363/69/41
f 193/69/24 330/69/20 331/69/57
f 220/69/52 363/69/41 364/69/53
f 332/69/29 193/69/24 331/69/57
f 221/69/43 364/69/53 365/69/54
f 333/69/32 194/69/28 332/69/29
f 366/69/47 221/69/43 365/69/54
f 196/69/35 333/69/32 334/69/36
f 351/69/19 222/69/46 366/69/47
f 197/69/22 334/69/36 319/69/23
f 111/69/31 318/69/47 126/69/27
f 318/69/47 125/69/22 126/69/27
f 317/69/54 124/69/35 125/69/22
f 124/69/35 315/69/41 123/69/55
f 123/69/55 314/69/37 122/69/28
f 122/69/28 313/69/48 121/69/24
f 313/69/48 120/69/18 121/69/24
f 312/69/45 119/69/51 120/69/18
f 119/69/51 310/69/21 118/69/46
f 118/69/46 309/69/49 117/69/43
f 309/69/49 116/69/52 117/69/43
f 308/69/36 115/69/40 116/69/52
f 115/69/40 306/69/29 114/69/58
f 114/69/58 305/69/25 113/69/38
f 305/69/25 112/69/34 113/69/38
f 304/69/20 111/69/31 112/69/34
f 319/69/23 132/69/52 133/69/43
f 334/69/36 131/69/40 132/69/52
f 333/69/32 130/69/58 131/69/40
f 130/69/58 331/69/57 129/69/38
f 129/69/38 330/69/20 128/69/34
f 330/69/20 127/69/31 128/69/34
f 329/69/19 142/69/27 127/69/31
f 328/69/47 141/69/22 142/69/27
f 327/69/44 140/69/35 141/69/22
f 326/69/42 139/69/55 140/69/35
f 325/69/41 138/69/28 139/69/55
f 138/69/28 323/69/33 137/69/24
f 137/69/24 322/69/30 136/69/18
f 136/69/18 321/69/26 135/69/51
f 135/69/51 320/69/21 134/69/46
f 320/69/21 133/69/43 134/69/46
f 335/69/19 174/69/27 159/69/31
f 174/69/27 349/69/54 173/69/22
f 349/69/54 172/69/35 173/69/22
f 348/69/53 171/69/55 172/69/35
f 347/69/41 170/69/28 171/69/55
f 170/69/28 345/69/48 169/69/24
f 345/69/48 168/69/18 169/69/24
f 344/69/45 167/69/51 168/69/18
f 343/69/26 166/69/46 167/69/51
f 166/69/46 341/69/39 165/69/43
f 341/69/39 164/69/52 165/69/43
f 340/69/36 163/69/40 164/69/52
f 163/69/40 338/69/29 162/69/58
f 162/69/58 337/69/25 161/69/38
f 337/69/25 160/69/34 161/69/38
f 160/69/34 335/69/19 159/69/31
f 351/69/19 158/69/27 143/69/31
f 158/69/27 365/69/54 157/69/22
f 365/69/54 156/69/35 157/69/22
f 156/69/35 363/69/41 155/69/55
f 363/69/41 154/69/28 155/69/55
f 154/69/28 361/69/48 153/69/24
f 361/69/48 152/69/18 153/69/24
f 360/69/30 151/69/51 152/69/18
f 359/69/26 150/69/46 151/69/51
f 150/69/46 357/69/39 149/69/43
f 357/69/39 148/69/52 149/69/43
f 356/69/36 147/69/40 148/69/52
f 355/69/32 146/69/58 147/69/40
f 354/69/29 145/69/38 146/69/58
f 353/69/25 144/69/34 145/69/38
f 144/69/34 351/69/19 143/69/31
s 0
f 77/45/5 485/87/5 27/73/5
f 84/100/4 484/86/4 10/54/4
f 79/42/5 483/85/5 23/74/5
f 86/102/4 482/84/4 18/55/4
f 81/97/5 481/83/5 24/76/5
f 88/124/4 486/104/4 29/57/4
f 57/78/4 485/87/4 9/53/4
f 53/24/5 484/86/5 22/94/5
f 59/80/4 483/85/4 26/61/4
f 55/21/5 482/84/5 1/95/5
f 61/125/4 481/83/4 28/59/4
f 51/126/5 480/71/5 17/72/5
f 502/134/4 500/73/4 501/135/4
f 503/132/4 487/95/4 495/74/4
f 505/128/4 488/98/4 496/76/4
f 508/142/5 489/143/5 497/144/5
f 509/130/5 490/145/5 510/146/5
f 511/129/5 491/88/5 512/127/5
f 506/150/3 491/88/3 488/98/3
f 505/128/2 499/151/2 511/129/2
f 504/131/3 490/145/3 487/95/3
f 503/132/2 498/152/2 509/130/2
f 502/134/3 497/144/3 494/94/3
f 501/135/2 489/143/2 507/133/2
f 515/149/4 492/72/4 513/147/4
f 517/140/4 494/94/4 516/141/4
f 518/138/4 496/76/4 487/95/4
f 520/148/5 493/153/5 489/143/5
f 521/139/5 498/152/5 522/154/5
f 523/136/5 499/151/5 524/155/5
f 513/147/2 493/153/2 514/156/2
f 519/137/3 499/151/3 496/76/3
f 518/138/2 490/145/2 523/136/2
f 517/140/3 498/152/3 495/74/3
f 516/141/2 497/144/2 521/139/2
f 515/149/3 489/143/3 500/73/3
s 1
f 559/69/59 586/69/60 585/69/59
f 561/69/61 588/69/62 587/69/61
f 563/69/63 590/69/64 589/69/63
f 591/69/65 565/69/66 592/69/66
f 593/69/67 566/69/65 591/69/65
f 564/69/68 589/69/63 594/69/68
f 560/69/62 585/69/59 588/69/62
f 582/69/69 593/69/67 595/69/69
f 590/69/64 561/69/61 587/69/61
f 565/69/66 594/69/68 592/69/66
f 555/69/70 597/69/71 596/69/70
f 597/69/71 569/69/72 598/69/72
f 599/69/73 556/69/74 600/69/75
f 600/69/75 555/69/70 596/69/70
f 558/69/60 599/69/73 586/69/60
f 602/69/76 574/69/77 601/69/77
f 604/69/78 576/69/79 603/69/79
f 606/69/80 579/69/81 605/69/81
f 581/69/82 595/69/69 607/69/82
f 605/69/81 580/69/83 608/69/83
f 601/69/77 575/69/78 604/69/78
f 569/69/72 609/69/84 598/69/72
f 576/69/79 606/69/80 603/69/79
f 608/69/83 581/69/82 607/69/82
f 609/69/84 584/69/85 610/69/85
f 612/69/86 570/69/87 611/69/87
f 584/69/85 612/69/86 610/69/85
f 571/69/88 613/69/89 614/69/90
f 570/69/87 614/69/90 611/69/87
f 613/69/89 573/69/76 602/69/76
s 0
f 31/8/2 5/62/2 4/48/2
f 33/5/2 25/60/2 6/49/2
f 34/2/2 35/58/2 8/50/2
f 37/52/3 36/7/3 9/53/3
f 38/4/3 26/61/3 18/55/3
f 40/3/3 28/59/3 29/57/3
f 41/1/4 29/57/4 8/50/4
f 34/2/5 7/51/5 28/59/5
f 39/56/4 18/55/4 25/60/4
f 32/6/5 6/49/5 26/61/5
f 37/52/4 10/54/4 5/62/4
f 30/9/5 4/48/5 9/53/5
f 42/16/5 11/69/5 20/63/5
f 44/15/3 13/68/3 14/64/3
f 47/12/2 16/67/2 15/65/2
f 43/14/3 20/63/3 8/50/3
f 48/10/4 8/50/4 12/66/4
f 47/12/5 45/11/5 14/64/5
f 44/15/4 46/13/4 15/65/4
f 49/17/2 12/66/2 11/69/2
f 50/70/5 21/79/5 480/71/5
f 52/19/3 51/126/3 17/72/3
f 53/24/3 22/94/3 23/74/3
f 55/21/3 1/95/3 24/76/3
f 57/78/2 9/53/2 21/79/2
f 59/80/2 26/61/2 10/54/2
f 60/82/2 61/125/2 28/59/2
f 56/77/4 24/76/4 481/83/4
f 60/82/5 18/55/5 482/84/5
f 54/75/4 23/74/4 483/85/4
f 58/81/5 10/54/5 484/86/5
f 52/19/4 27/73/4 485/87/4
f 62/29/5 8/50/5 3/88/5
f 64/27/6 3/88/6 19/89/6
f 62/29/7 63/28/7 19/89/7
f 65/30/5 20/63/5 21/79/5
f 67/32/2 4/48/2 20/63/2
f 69/37/2 6/49/2 5/62/2
f 70/35/2 71/34/2 7/51/2
f 72/31/3 66/90/3 21/79/3
f 73/36/3 10/54/3 26/61/3
f 75/33/3 18/55/3 28/59/3
f 76/92/4 28/59/4 7/51/4
f 70/35/5 25/60/5 18/55/5
f 74/91/4 26/61/4 6/49/4
f 68/38/5 5/62/5 10/54/5
f 72/31/4 9/53/4 4/48/4
f 78/93/3 77/45/3 27/73/3
f 79/42/3 23/74/3 1/95/3
f 81/97/3 24/76/3 2/98/3
f 84/100/2 10/54/2 9/53/2
f 86/102/2 18/55/2 26/61/2
f 87/40/2 88/124/2 29/57/2
f 82/99/4 2/98/4 486/104/4
f 87/40/5 28/59/5 481/83/5
f 80/96/4 1/95/4 482/84/4
f 85/103/5 26/61/5 483/85/5
f 78/93/4 22/94/4 484/86/4
f 83/101/5 9/53/5 485/87/5
f 97/111/9 96/105/9 92/112/9
f 98/110/8 89/119/8 91/114/8
f 100/107/10 94/115/10 92/112/10
f 101/106/8 93/116/8 94/115/8
f 101/106/11 99/109/11 91/114/11
f 97/111/91 90/113/91 95/117/91
f 98/110/92 102/108/92 95/118/92
s 1
f 108/120/14 104/64/14 103/68/15
f 105/65/16 106/67/17 110/122/17
f 110/122/17 106/67/17 104/64/14
f 107/121/15 103/68/15 105/65/16
f 224/69/18 223/69/51 335/69/19
f 320/69/21 198/69/27 197/69/22
f 225/69/24 224/69/18 336/69/20
f 321/69/26 199/69/31 198/69/27
f 226/69/28 225/69/24 337/69/25
f 322/69/30 200/69/34 199/69/31
f 339/69/32 227/69/55 226/69/28
f 323/69/33 201/69/38 200/69/34
f 228/69/35 227/69/55 339/69/32
f 324/69/37 202/69/58 201/69/38
f 176/69/18 175/69/51 303/69/19
f 341/69/39 229/69/22 228/69/35
f 203/69/40 202/69/58 324/69/37
f 177/69/24 176/69/18 304/69/20
f 342/69/21 230/69/27 229/69/22
f 326/69/42 204/69/52 203/69/40
f 178/69/28 177/69/24 305/69/25
f 343/69/26 231/69/31 230/69/27
f 205/69/43 204/69/52 326/69/42
f 307/69/32 179/69/55 178/69/28
f 344/69/45 232/69/34 231/69/31
f 206/69/46 205/69/43 327/69/44
f 180/69/35 179/69/55 307/69/32
f 233/69/38 232/69/34 344/69/45
f 329/69/19 191/69/51 206/69/46
f 181/69/22 180/69/35 308/69/36
f 346/69/37 234/69/58 233/69/38
f 352/69/50 208/69/18 207/69/51
f 310/69/21 182/69/27 181/69/22
f 235/69/40 234/69/58 346/69/37
f 209/69/24 208/69/18 352/69/50
f 311/69/26 183/69/31 182/69/27
f 236/69/52 235/69/40 347/69/41
f 210/69/28 209/69/24 353/69/25
f 312/69/45 184/69/34 183/69/31
f 237/69/43 236/69/52 348/69/53
f 211/69/55 210/69/28 354/69/29
f 185/69/38 184/69/34 312/69/45
f 350/69/56 238/69/46 237/69/43
f 212/69/35 211/69/55 355/69/32
f 314/69/37 186/69/58 185/69/38
f 223/69/51 238/69/46 350/69/56
f 357/69/39 213/69/22 212/69/35
f 187/69/40 186/69/58 314/69/37
f 358/69/21 214/69/27 213/69/22
f 188/69/52 187/69/40 315/69/41
f 359/69/26 215/69/31 214/69/27
f 189/69/43 188/69/52 316/69/53
f 216/69/34 215/69/31 359/69/26
f 318/69/47 190/69/46 189/69/43
f 217/69/38 216/69/34 360/69/30
f 175/69/51 190/69/46 318/69/47
f 362/69/37 218/69/58 217/69/38
f 192/69/18 191/69/51 329/69/19
f 219/69/40 218/69/58 362/69/37
f 193/69/24 192/69/18 330/69/20
f 220/69/52 219/69/40 363/69/41
f 332/69/29 194/69/28 193/69/24
f 221/69/43 220/69/52 364/69/53
f 333/69/32 195/69/55 194/69/28
f 366/69/47 222/69/46 221/69/43
f 196/69/35 195/69/55 333/69/32
f 351/69/19 207/69/51 222/69/46
f 197/69/22 196/69/35 334/69/36
f 111/69/31 303/69/19 318/69/47
f 318/69/47 317/69/54 125/69/22
f 317/69/54 316/69/53 124/69/35
f 124/69/35 316/69/53 315/69/41
f 123/69/55 315/69/41 314/69/37
f 122/69/28 314/69/37 313/69/48
f 313/69/48 312/69/45 120/69/18
f 312/69/45 311/69/26 119/69/51
f 119/69/51 311/69/26 310/69/21
f 118/69/46 310/69/21 309/69/49
f 309/69/49 308/69/36 116/69/52
f 308/69/36 307/69/32 115/69/40
f 115/69/40 307/69/32 306/69/29
f 114/69/58 306/69/29 305/69/25
f 305/69/25 304/69/20 112/69/34
f 304/69/20 303/69/19 111/69/31
f 319/69/23 334/69/36 132/69/52
f 334/69/36 333/69/32 131/69/40
f 333/69/32 332/69/29 130/69/58
f 130/69/58 332/69/29 331/69/57
f 129/69/38 331/69/57 330/69/20
f 330/69/20 329/69/19 127/69/31
f 329/69/19 328/69/47 142/69/27
f 328/69/47 327/69/44 141/69/22
f 327/69/44 326/69/42 140/69/35
f 326/69/42 325/69/41 139/69/55
f 325/69/41 324/69/37 138/69/28
f 138/69/28 324/69/37 323/69/33
f 137/69/24 323/69/33 322/69/30
f 136/69/18 322/69/30 321/69/26
f 135/69/51 321/69/26 320/69/21
f 320/69/21 319/69/23 133/69/43
f 335/69/19 350/69/56 174/69/27
f 174/69/27 350/69/56 349/69/54
f 349/69/54 348/69/53 172/69/35
f 348/69/53 347/69/41 171/69/55
f 347/69/41 346/69/37 170/69/28
f 170/69/28 346/69/37 345/69/48
f 345/69/48 344/69/45 168/69/18
f 344/69/45 343/69/26 167/69/51
f 343/69/26 342/69/21 166/69/46
f 166/69/46 342/69/21 341/69/39
f 341/69/39 340/69/36 164/69/52
f 340/69/36 339/69/32 163/69/40
f 163/69/40 339/69/32 338/69/29
f 162/69/58 338/69/29 337/69/25
f 337/69/25 336/69/20 160/69/34
f 160/69/34 336/69/20 335/69/19
f 351/69/19 366/69/47 158/69/27
f 158/69/27 366/69/47 365/69/54
f 365/69/54 364/69/53 156/69/35
f 156/69/35 364/69/53 363/69/41
f 363/69/41 362/69/37 154/69/28
f 154/69/28 362/69/37 361/69/48
f 361/69/48 360/69/30 152/69/18
f 360/69/30 359/69/26 151/69/51
f 359/69/26 358/69/21 150/69/46
f 150/69/46 358/69/21 357/69/39
f 357/69/39 356/69/36 148/69/52
f 356/69/36 355/69/32 147/69/40
f 355/69/32 354/69/29 146/69/58
f 354/69/29 353/69/25 145/69/38
f 353/69/25 352/69/50 144/69/34
f 144/69/34 352/69/50 351/69/19
s 0
f 77/45/5 479/47/5 485/87/5
f 84/100/4 478/46/4 484/86/4
f 79/42/5 477/44/5 483/85/5
f 86/102/4 476/43/4 482/84/4
f 81/97/5 475/41/5 481/83/5
f 88/124/4 474/39/4 486/104/4
f 57/78/4 473/20/4 485/87/4
f 53/24/5 472/26/5 484/86/5
f 59/80/4 471/25/4 483/85/4
f 55/21/5 470/23/5 482/84/5
f 61/125/4 469/22/4 481/83/4
f 51/126/5 468/18/5 480/71/5
f 502/134/4 494/94/4 500/73/4
f 503/132/4 504/131/4 487/95/4
f 505/128/4 506/150/4 488/98/4
f 508/142/5 507/133/5 489/143/5
f 509/130/5 498/152/5 490/145/5
f 511/129/5 499/151/5 491/88/5
f 506/150/3 512/127/3 491/88/3
f 505/128/2 496/76/2 499/151/2
f 504/131/3 510/146/3 490/145/3
f 503/132/2 495/74/2 498/152/2
f 502/134/3 508/142/3 497/144/3
f 501/135/2 500/73/2 489/143/2
f 515/149/4 500/73/4 492/72/4
f 517/140/4 495/74/4 494/94/4
f 518/138/4 519/137/4 496/76/4
f 520/148/5 514/156/5 493/153/5
f 521/139/5 497/144/5 498/152/5
f 523/136/5 490/145/5 499/151/5
f 513/147/2 492/72/2 493/153/2
f 519/137/3 524/155/3 499/151/3
f 518/138/2 487/95/2 490/145/2
f 517/140/3 522/154/3 498/152/3
f 516/141/2 494/94/2 497/144/2
f 515/149/3 520/148/3 489/143/3
s 1
f 559/69/59 558/69/60 586/69/60
f 561/69/61 560/69/62 588/69/62
f 563/69/63 562/69/64 590/69/64
f 591/69/65 566/69/65 565/69/66
f 593/69/67 567/69/67 566/69/65
f 564/69/68 563/69/63 589/69/63
f 560/69/62 559/69/59 585/69/59
f 582/69/69 567/69/67 593/69/67
f 590/69/64 562/69/64 561/69/61
f 565/69/66 564/69/68 594/69/68
f 555/69/70 568/69/71 597/69/71
f 597/69/71 568/69/71 569/69/72
f 599/69/73 557/69/73 556/69/74
f 600/69/75 556/69/74 555/69/70
f 558/69/60 557/69/73 599/69/73
f 602/69/76 573/69/76 574/69/77
f 604/69/78 575/69/78 576/69/79
f 606/69/80 578/69/80 579/69/81
f 581/69/82 582/69/69 595/69/69
f 605/69/81 579/69/81 580/69/83
f 601/69/77 574/69/77 575/69/78
f 569/69/72 577/69/84 609/69/84
f 576/69/79 578/69/80 606/69/80
f 608/69/83 580/69/83 581/69/82
f 609/69/84 577/69/84 584/69/85
f 612/69/86 583/69/86 570/69/87
f 584/69/85 583/69/86 612/69/86
f 571/69/88 572/69/89 613/69/89
f 570/69/87 571/69/88 614/69/90
f 613/69/89 572/69/89 573/69/76
s 0
usemtl blanco
f 41/1/1 34/2/1 40/3/1
f 38/4/1 33/5/1 32/6/1
f 468/18/1 52/19/1 473/20/1
f 65/30/1 72/31/1 67/32/1
f 75/33/1 71/34/1 70/35/1
f 73/36/1 69/37/1 68/38/1
f 397/69/1 369/69/1 398/69/1
f 450/69/1 411/69/1 449/69/1
f 451/69/1 411/69/1 410/69/1
f 452/69/1 410/69/1 409/69/1
f 453/69/1 409/69/1 408/69/1
f 455/69/1 427/69/1 454/69/1
f 456/69/1 427/69/1 426/69/1
f 457/69/1 428/69/1 455/69/1
f 435/69/1 391/69/1 390/69/1
f 437/69/1 391/69/1 436/69/1
f 439/69/1 431/69/1 438/69/1
f 440/69/1 431/69/1 430/69/1
f 458/69/1 429/69/1 457/69/1
f 458/69/1 435/69/1 463/69/1
f 441/69/1 392/69/1 437/69/1
f 442/69/1 393/69/1 441/69/1
f 459/69/1 412/69/1 450/69/1
f 460/69/1 413/69/1 459/69/1
f 461/69/1 426/69/1 425/69/1
f 462/69/1 425/69/1 424/69/1
f 416/69/1 370/69/1 417/69/1
f 417/69/1 370/69/1 418/69/1
f 420/69/1 368/69/1 421/69/1
f 421/69/1 368/69/1 422/69/1
f 422/69/1 368/69/1 423/69/1
f 377/69/1 376/69/1 367/69/1
f 377/69/1 367/69/1 378/69/1
f 396/69/1 395/69/1 369/69/1
f 398/69/1 369/69/1 399/69/1
f 378/69/1 367/69/1 379/69/1
f 419/69/1 368/69/1 420/69/1
f 444/69/1 394/69/1 442/69/1
f 418/69/1 370/69/1 403/69/1
f 443/69/1 379/69/1 367/69/1
f 446/69/1 434/69/1 445/69/1
f 447/69/1 403/69/1 370/69/1
f 448/69/1 432/69/1 439/69/1
f 445/69/1 433/69/1 448/69/1
f 405/69/1 445/69/1 448/69/1
f 406/69/1 448/69/1 439/69/1
f 419/69/1 447/69/1 368/69/1
f 404/69/1 446/69/1 445/69/1
f 395/69/1 443/69/1 369/69/1
f 380/69/1 444/69/1 442/69/1
f 381/69/1 442/69/1 441/69/1
f 382/69/1 441/69/1 437/69/1
f 463/69/1 390/69/1 453/69/1
f 407/69/1 440/69/1 408/69/1
f 407/69/1 439/69/1 438/69/1
f 383/69/1 437/69/1 436/69/1
f 383/69/1 435/69/1 384/69/1
f 376/69/1 375/69/1 367/69/1
f 464/69/1 424/69/1 423/69/1
f 465/69/1 414/69/1 460/69/1
f 415/69/1 370/69/1 416/69/1
f 466/69/1 415/69/1 465/69/1
f 467/69/1 375/69/1 464/69/1
f 467/69/1 423/69/1 368/69/1
f 466/69/1 399/69/1 369/69/1
f 400/69/1 465/69/1 460/69/1
f 374/69/1 464/69/1 375/69/1
f 440/69/1 453/69/1 408/69/1
f 373/69/1 462/69/1 374/69/1
f 372/69/1 461/69/1 373/69/1
f 401/69/1 460/69/1 459/69/1
f 402/69/1 459/69/1 450/69/1
f 430/69/1 463/69/1 440/69/1
f 385/69/1 458/69/1 457/69/1
f 386/69/1 457/69/1 455/69/1
f 371/69/1 456/69/1 372/69/1
f 371/69/1 455/69/1 454/69/1
f 389/69/1 453/69/1 390/69/1
f 388/69/1 452/69/1 389/69/1
f 387/69/1 451/69/1 388/69/1
f 387/69/1 450/69/1 449/69/1
f 50/70/1 473/20/1 57/78/1
f 512/127/1 505/128/1 511/129/1
f 509/130/1 504/131/1 503/132/1
f 507/133/1 502/134/1 501/135/1
f 523/136/1 519/137/1 518/138/1
f 521/139/1 517/140/1 516/141/1
f 513/147/1 520/148/1 515/149/1
f 41/1/1 35/58/1 34/2/1
f 38/4/1 39/56/1 33/5/1
f 468/18/1 51/126/1 52/19/1
f 65/30/1 66/90/1 72/31/1
f 75/33/1 76/92/1 71/34/1
f 73/36/1 74/91/1 69/37/1
f 397/69/1 396/69/1 369/69/1
f 450/69/1 412/69/1 411/69/1
f 451/69/1 449/69/1 411/69/1
f 452/69/1 451/69/1 410/69/1
f 453/69/1 452/69/1 409/69/1
f 455/69/1 428/69/1 427/69/1
f 456/69/1 454/69/1 427/69/1
f 457/69/1 429/69/1 428/69/1
f 435/69/1 436/69/1 391/69/1
f 437/69/1 392/69/1 391/69/1
f 439/69/1 432/69/1 431/69/1
f 440/69/1 438/69/1 431/69/1
f 458/69/1 430/69/1 429/69/1
f 458/69/1 384/69/1 435/69/1
f 441/69/1 393/69/1 392/69/1
f 442/69/1 394/69/1 393/69/1
f 459/69/1 413/69/1 412/69/1
f 460/69/1 414/69/1 413/69/1
f 461/69/1 456/69/1 426/69/1
f 462/69/1 461/69/1 425/69/1
f 444/69/1 395/69/1 394/69/1
f 443/69/1 444/69/1 379/69/1
f 446/69/1 419/69/1 434/69/1
f 447/69/1 446/69/1 403/69/1
f 448/69/1 433/69/1 432/69/1
f 445/69/1 434/69/1 433/69/1
f 405/69/1 404/69/1 445/69/1
f 406/69/1 405/69/1 448/69/1
f 419/69/1 446/69/1 447/69/1
f 404/69/1 403/69/1 446/69/1
f 395/69/1 444/69/1 443/69/1
f 380/69/1 379/69/1 444/69/1
f 381/69/1 380/69/1 442/69/1
f 382/69/1 381/69/1 441/69/1
f 463/69/1 435/69/1 390/69/1
f 407/69/1 438/69/1 440/69/1
f 407/69/1 406/69/1 439/69/1
f 383/69/1 382/69/1 437/69/1
f 383/69/1 436/69/1 435/69/1
f 464/69/1 462/69/1 424/69/1
f 465/69/1 415/69/1 414/69/1
f 466/69/1 370/69/1 415/69/1
f 467/69/1 367/69/1 375/69/1
f 467/69/1 464/69/1 423/69/1
f 466/69/1 465/69/1 399/69/1
f 400/69/1 399/69/1 465/69/1
f 374/69/1 462/69/1 464/69/1
f 440/69/1 463/69/1 453/69/1
f 373/69/1 461/69/1 462/69/1
f 372/69/1 456/69/1 461/69/1
f 401/69/1 400/69/1 460/69/1
f 402/69/1 401/69/1 459/69/1
f 430/69/1 458/69/1 463/69/1
f 385/69/1 384/69/1 458/69/1
f 386/69/1 385/69/1 457/69/1
f 371/69/1 454/69/1 456/69/1
f 371/69/1 386/69/1 455/69/1
f 389/69/1 452/69/1 453/69/1
f 388/69/1 451/69/1 452/69/1
f 387/69/1 449/69/1 451/69/1
f 387/69/1 402/69/1 450/69/1
f 50/70/1 468/18/1 473/20/1
f 512/127/1 506/150/1 505/128/1
f 509/130/1 510/146/1 504/131/1
f 507/133/1 508/142/1 502/134/1
f 523/136/1 524/155/1 519/137/1
f 521/139/1 522/154/1 517/140/1
f 513/147/1 514/156/1 520/148/1
