<?xml version="1.0" encoding="UTF-8"?>
<svg version="1.1" viewBox="0 0 88 87.999" xmlns="http://www.w3.org/2000/svg">
<defs>
<filter id="a" x="-.00037366" y="-.00037364" width="1.0007" height="1.0007" color-interpolation-filters="sRGB">
<feGaussianBlur stdDeviation="0.01191697"/>
</filter>
</defs>
<path d="m44 5.7266c-21.12 0-38.271 17.152-38.271 38.273 0 21.121 17.151 38.273 38.271 38.273 21.12 0 38.271-17.152 38.271-38.273 0-21.121-17.151-38.273-38.271-38.273zm-0.064453 1.4355v0.037109a36.836 36.838 0 0 1 0.064453 0 36.836 36.838 0 0 1 0.37891 0.0039062 36.838 36.84 0 0 1 0.03711 0 36.838 36.84 0 0 1 8.8848 1.1895 36.838 36.84 0 0 1 0.42383 0.11328 36.838 36.84 0 0 1 0.14062 0.039062 36.838 36.84 0 0 1 0.28125 0.080078 36.838 36.84 0 0 1 0.69922 0.20703 36.838 36.84 0 0 1 0.13867 0.042969 36.838 36.84 0 0 1 0.13867 0.044922 36.838 36.84 0 0 1 0.41797 0.13477 36.838 36.84 0 0 1 0.13086 0.042969 36.838 36.84 0 0 1 0.007813 0.0039063 36.836 36.838 0 0 1 0.005859 0.0039063 36.838 36.84 0 0 1 0.54297 0.18555 36.838 36.84 0 0 1 0.003906 0 36.836 36.838 0 0 1 0.003906 0.0039063 36.838 36.84 0 0 1 0.26953 0.095703 36.838 36.84 0 0 1 0.27148 0.099609 36.838 36.84 0 0 1 0.003906 0 36.836 36.838 0 0 1 0.005859 0.0019531 36.838 36.84 0 0 1 0.13086 0.048828 36.838 36.84 0 0 1 0.13672 0.052734 36.838 36.84 0 0 1 0.12695 0.048828 36.838 36.84 0 0 1 0.007812 0.0019531 36.836 36.838 0 0 1 0.080078 0.03125 36.838 36.84 0 0 1 0.056641 0.021484 36.836 36.838 0 0 1 0.037109 0.015625 36.838 36.84 0 0 1 0.09961 0.039062 36.838 36.84 0 0 1 0.11914 0.046875 36.838 36.84 0 0 1 0.015625 0.0058594 36.836 36.838 0 0 1 0.017578 0.0058594 36.838 36.84 0 0 1 0.11914 0.048828 36.838 36.84 0 0 1 0.12305 0.048828 36.838 36.84 0 0 1 0.011719 0.0058594 36.836 36.838 0 0 1 0.009765 0.0039063 36.838 36.84 0 0 1 0.125 0.050781 36.838 36.84 0 0 1 0.13281 0.054688 36.838 36.84 0 0 0 0.001953 0 36.836 36.838 0 0 1 0.003906 0.001953 36.838 36.84 0 0 1 0.13086 0.054687 36.838 36.84 0 0 1 0.11914 0.050781 36.838 36.84 0 0 1 0.015625 0.00586 36.836 36.838 0 0 1 0.076172 0.033203 36.838 36.84 0 0 1 0.058594 0.02539 36.836 36.838 0 0 1 0.023437 0.009766 36.838 36.84 0 0 1 0.10938 0.048828 36.838 36.84 0 0 1 0.12305 0.052735 36.838 36.84 0 0 1 0.011719 0.003906 36.836 36.838 0 0 1 0.076172 0.035156 36.838 36.84 0 0 1 0.017578 0.005859 36.836 36.838 0 0 1 0.078125 0.03711 36.836 36.838 0 0 1 0.037109 0.015625 36.838 36.84 0 0 1 0.056641 0.025391 36.838 36.84 0 0 1 0.11914 0.052734 36.838 36.84 0 0 1 0.013672 0.007812 36.836 36.838 0 0 1 0.078125 0.033204 36.838 36.84 0 0 1 0.054688 0.02539 36.836 36.838 0 0 1 0.076172 0.035156 36.838 36.84 0 0 1 0.05664 0.027344 36.836 36.838 0 0 1 0.027344 0.011719 36.838 36.84 0 0 1 0.10547 0.048828 36.838 36.84 0 0 1 0.125 0.058594 36.838 36.84 0 0 1 0.007812 0.003906 36.836 36.838 0 0 1 0.076172 0.035156 36.838 36.84 0 0 1 0.054688 0.027344 36.836 36.838 0 0 1 0.021484 0.009766 36.838 36.84 0 0 1 0.09961 0.048828 36.838 36.84 0 0 1 0.011718 0.003906 36.836 36.838 0 0 1 0.074219 0.037109 36.838 36.84 0 0 1 0.056641 0.027344 36.836 36.838 0 0 1 0.021484 0.009766 36.838 36.84 0 0 1 0.083984 0.042968 36.838 36.84 0 0 1 0.025391 0.011719 36.836 36.838 0 0 1 0.074219 0.03711 36.836 36.838 0 0 1 0.13086 0.064453 36.838 36.84 0 0 1 0.056641 0.027344 36.836 36.838 0 0 1 0.074218 0.039062 36.838 36.84 0 0 1 0.011719 0.005859 36.836 36.838 0 0 1 0.087891 0.042969 36.836 36.838 0 0 1 0.03125 0.015625 36.838 36.84 0 0 1 0.054687 0.029297 36.836 36.838 0 0 1 0.074219 0.037109 36.838 36.84 0 0 1 0.056641 0.029297 36.836 36.838 0 0 1 0.074219 0.039063 36.836 36.838 0 0 1 0.11328 0.058593 36.836 36.838 0 0 1 0.015625 0.007813 36.838 36.84 0 0 1 0.054687 0.029297 36.836 36.838 0 0 1 0.074219 0.039062 36.838 36.84 0 0 1 0.007812 0.003907 36.836 36.838 0 0 1 0.12109 0.064453 36.836 36.838 0 0 1 0.10938 0.058594 36.836 36.838 0 0 1 0.019531 0.011718 36.838 36.84 0 0 1 0.054688 0.029297 36.836 36.838 0 0 1 0.074219 0.039063 36.838 36.84 0 0 1 0.007812 0.005859 36.836 36.838 0 0 1 0.10352 0.054687 36.836 36.838 0 0 1 0.015625 0.009766 36.838 36.84 0 0 1 0.013672 0.007813 36.836 36.838 0 0 1 0.11328 0.0625 36.836 36.838 0 0 1 0.12891 0.072265 36.836 36.838 0 0 1 0.09375 0.052735 36.836 36.838 0 0 1 0.033203 0.017578 36.838 36.84 0 0 1 0.052735 0.03125 36.836 36.838 0 0 1 0.074219 0.041015 36.838 36.84 0 0 1 0.005859 0.003907 36.836 36.838 0 0 1 0.12109 0.068359 36.836 36.838 0 0 1 0.125 0.074219 36.836 36.838 0 0 1 0.11914 0.068359 36.836 36.838 0 0 1 0.007813 0.00586 36.838 36.84 0 0 1 0.052734 0.03125 36.836 36.838 0 0 1 0.072266 0.042968 36.838 36.84 0 0 0 0.001953 0 36.836 36.838 0 0 1 0.24805 0.14844 36.836 36.838 0 0 1 0.125 0.076172 36.836 36.838 0 0 1 0.125 0.076172 36.836 36.838 0 0 1 0.37109 0.23047 36.836 36.838 0 0 1 0.099609 0.0625 36.836 36.838 0 0 1 0.023437 0.015625 36.838 36.84 0 0 1 0.021485 0.011719 36.836 36.838 0 0 1 0.10156 0.066406 36.836 36.838 0 0 1 0.36719 0.23828 36.836 36.838 0 0 1 0.12305 0.082031 36.836 36.838 0 0 1 0.12109 0.080078 36.836 36.838 0 0 1 0.24219 0.16406 36.836 36.838 0 0 1 0.11914 0.082032 36.836 36.838 0 0 1 0.12109 0.082031 36.836 36.838 0 0 1 0.71289 0.50781 36.836 36.838 0 0 1 0.11914 0.085938 36.836 36.838 0 0 1 11.754 14.523 36.838 36.84 0 0 1 1.9336 5.3516 36.838 36.84 0 0 1 0.15039 0.56445 36.838 36.84 0 0 1 0.10742 0.42383 36.838 36.84 0 0 1 0.035156 0.14258 36.838 36.84 0 0 1 0.16406 0.71094 36.838 36.84 0 0 1 0.0625 0.28516 36.838 36.84 0 0 1 0.058594 0.28516 36.838 36.84 0 0 1 0.41602 2.4453 36.838 36.84 0 0 1 0.017578 0.13086 36.838 36.84 0 0 1 0.001953 0.015625 36.836 36.838 0 0 1 0.001954 0.013672 36.838 36.84 0 0 1 0.017578 0.13086 36.838 36.84 0 0 1 0.017578 0.14453 36.838 36.84 0 0 1 0.017578 0.14453 36.838 36.84 0 0 1 0.017578 0.14453 36.838 36.84 0 0 1 0.013672 0.13281 36.838 36.84 0 0 1 0.001953 0.013672 36.836 36.838 0 0 1 0.001953 0.011718 36.838 36.84 0 0 1 0.029297 0.27734 36.838 36.84 0 0 1 0.013672 0.13867 36.838 36.84 0 0 1 0.001953 0.005859 36.836 36.838 0 0 1 0.007812 0.082031 36.838 36.84 0 0 1 0.00586 0.064454 36.836 36.838 0 0 1 0.001953 0.017578 36.838 36.84 0 0 1 0.025391 0.27344 36.838 36.84 0 0 1 0.009765 0.125 36.838 36.84 0 0 1 0.001953 0.019531 36.836 36.838 0 0 0 0 0.001954 36.836 36.838 0 0 0 0 0.001953 36.836 36.838 0 0 0 0 0.001953 36.836 36.838 0 0 0 0 0.001953 36.836 36.838 0 0 0 0 0.001953 36.836 36.838 0 0 0 0 0.001953 36.836 36.838 0 0 0 0 0.001953 36.836 36.838 0 0 0 0 0.001954 36.836 36.838 0 0 0 0 0.001953 36.838 36.84 0 0 1 0.011719 0.12891 36.838 36.84 0 0 1 0.03125 0.43555 36.838 36.84 0 0 1 0.009766 0.14648 36.838 36.84 0 0 1 0.009765 0.14453 36.838 36.84 0 0 1 0.007813 0.14648 36.838 36.84 0 0 1 0.007812 0.13672 36.838 36.84 0 0 0 0 0.001954 36.838 36.84 0 0 0 0 0.001953 36.838 36.84 0 0 0 0 0.001953 36.838 36.84 0 0 0 0 0.001953 36.838 36.84 0 0 0 0 0.001953 36.836 36.838 0 0 0 0 0.001953 36.836 36.838 0 0 0 0 0.001953 36.836 36.838 0 0 0 0 0.001954 36.836 36.838 0 0 0 0 0.001953 36.838 36.84 0 0 1 0.007813 0.13672 36.838 36.84 0 0 1 0.005859 0.13086 36.838 36.84 0 0 0 0 0.001953 36.838 36.84 0 0 0 0 0.001953 36.838 36.84 0 0 0 0 0.001953 36.838 36.84 0 0 0 0 0.001953 36.838 36.84 0 0 0 0 0.001953 36.838 36.84 0 0 0 0 0.001954 36.838 36.84 0 0 0 0 0.001953 36.838 36.84 0 0 0 0 0.001953 36.836 36.838 0 0 1 0.001953 0.015625 36.838 36.84 0 0 1 0.003907 0.13086 36.838 36.84 0 0 1 0.005859 0.14453 36.838 36.84 0 0 1 0.005859 0.13867 36.838 36.84 0 0 0 0 0.001953 36.838 36.84 0 0 0 0 0.001954 36.838 36.84 0 0 0 0 0.001953 36.838 36.84 0 0 0 0 0.001953 36.836 36.838 0 0 0 0 0.001953 36.836 36.838 0 0 0 0 0.001953 36.836 36.838 0 0 0 0 0.001953 36.836 36.838 0 0 0 0 0.001953 36.838 36.84 0 0 1 0.003907 0.13672 36.838 36.84 0 0 1 0.003906 0.11523 36.836 36.838 0 0 1 0.001953 0.080079 36.836 36.838 0 0 0 0 0.001953 36.836 36.838 0 0 0 0 0.001953 36.836 36.838 0 0 0 0 0.001953 36.836 36.838 0 0 0 0 0.001953 36.836 36.838 0 0 0 0 0.001953 36.836 36.838 0 0 0 0 0.001953 36.836 36.838 0 0 0 0 0.001953 36.836 36.838 0 0 0 0 0.001953 36.836 36.838 0 0 0 0 0.001954 36.836 36.838 0 0 0 0 0.001953 36.836 36.838 0 0 0 0 0.001953 36.836 36.838 0 0 0 0 0.001953 36.836 36.838 0 0 0 0 0.001953 36.836 36.838 0 0 0 0 0.001953 36.836 36.838 0 0 0 0 0.001953 36.836 36.838 0 0 0 0 0.001954 36.836 36.838 0 0 0 0 0.001953 36.838 36.84 0 0 1 0.001953 0.064453 36.838 36.84 0 0 1 0.001953 0.12109 36.838 36.84 0 0 0 0 0.001953 36.838 36.84 0 0 0 0 0.001953 36.838 36.84 0 0 0 0 0.001953 36.838 36.84 0 0 0 0 0.001953 36.838 36.84 0 0 0 0 0.001953 36.838 36.84 0 0 0 0 0.001953 36.838 36.84 0 0 0 0 0.001953 36.838 36.84 0 0 0 0 0.001953 36.838 36.84 0 0 0 0 0.001954 36.838 36.84 0 0 0 0 0.001953 36.838 36.84 0 0 0 0 0.001953 36.838 36.84 0 0 0 0 0.001953 36.836 36.838 0 0 0 0 0.001953 36.836 36.838 0 0 0 0 0.001953 36.836 36.838 0 0 0 0 0.001953 36.836 36.838 0 0 0 0 0.001954 36.836 36.838 0 0 0 0 0.001953 36.836 36.838 0 0 0 0 0.001953 36.836 36.838 0 0 0 0 0.001953 36.836 36.838 0 0 0 0 0.001953 36.838 36.84 0 0 1 0.001953 0.13086 36.836 36.838 0 0 0 0 0.001953 36.836 36.838 0 0 0 0 0.001954 36.836 36.838 0 0 0 0 0.001953 36.836 36.838 0 0 0 0 0.001953 36.836 36.838 0 0 0 0 0.001953 36.836 36.838 0 0 0 0 0.001953 36.836 36.838 0 0 0 0 0.001953 36.836 36.838 0 0 0 0 0.001953 36.836 36.838 0 0 0 0 0.001954 36.836 36.838 0 0 0 0 0.001953 36.836 36.838 0 0 0 0 0.001953 36.836 36.838 0 0 0 0 0.001953 36.836 36.838 0 0 0 0 0.001953 36.836 36.838 0 0 0 0 0.001953 36.836 36.838 0 0 0 0 0.001953 36.836 36.838 0 0 0 0 0.001953 36.836 36.838 0 0 0 0 0.001953 36.836 36.838 0 0 0 0 0.001954 36.836 36.838 0 0 0 0 0.001953 36.836 36.838 0 0 0 0 0.001953 36.836 36.838 0 0 0 0 0.001953 36.836 36.838 0 0 0 0 0.001953 36.836 36.838 0 0 0 0 0.001953 36.836 36.838 0 0 0 0 0.001953 36.836 36.838 0 0 0 0 0.001954 36.836 36.838 0 0 0 0 0.001953 36.836 36.838 0 0 0 0 0.001953 36.836 36.838 0 0 0 0 0.001953 36.836 36.838 0 0 0 0 0.001953 36.836 36.838 0 0 0 0 0.001953 36.836 36.838 0 0 0 0 0.001953 36.836 36.838 0 0 0 0 0.001953 36.836 36.838 0 0 0 0 0.001953 36.836 36.838 0 0 0 0 0.001954 36.836 36.838 0 0 0 0 0.001953 36.836 36.838 0 0 0 0 0.001953 36.836 36.838 0 0 0 0 0.001953 36.836 36.838 0 0 0 0 0.001953 36.836 36.838 0 0 0 0 0.001953 36.836 36.838 0 0 0 0 0.001953 36.836 36.838 0 0 0 0 0.001954 36.836 36.838 0 0 0 0 0.001953 36.838 36.84 0 0 0 0 0.001953 36.838 36.84 0 0 0 0 0.001953 36.838 36.84 0 0 0 0 0.001953 36.838 36.84 0 0 0 0 0.001953 36.838 36.84 0 0 0 0 0.001953 36.838 36.84 0 0 0 0 0.001953 36.838 36.84 0 0 0 0 0.001953 36.838 36.84 0 0 0 0 0.001954 36.838 36.84 0 0 0 0 0.001953 36.838 36.84 0 0 0 0 0.001953 36.838 36.84 0 0 0 0 0.001953 36.836 36.838 0 0 1 0.001954 0.10742 36.836 36.838 0 0 0 0 0.001953 36.836 36.838 0 0 0 0 0.001953 36.836 36.838 0 0 0 0 0.001953 36.836 36.838 0 0 0 0 0.001953 36.836 36.838 0 0 0 0 0.001953 36.836 36.838 0 0 0 0 0.001954 36.836 36.838 0 0 0 0 0.001953 36.836 36.838 0 0 0 0 0.001953 36.838 36.84 0 0 0 0 0.001953 36.838 36.84 0 0 0 0 0.001953 36.838 36.84 0 0 0 0 0.001953 36.838 36.84 0 0 0 0 0.001953 36.838 36.84 0 0 0 0 0.001954 36.838 36.84 0 0 0 0 0.001953 36.838 36.84 0 0 0 0 0.001953 36.838 36.84 0 0 0 0 0.001953 36.838 36.84 0 0 0 0 0.001953 36.838 36.84 0 0 0 0 0.001953 36.838 36.84 0 0 0 0 0.001953 36.838 36.84 0 0 0 0 0.001953 36.838 36.84 0 0 0 0 0.001953 36.838 36.84 0 0 0 0 0.001954 36.838 36.84 0 0 0 0 0.001953 36.838 36.84 0 0 0 0 0.001953 36.838 36.84 0 0 0 0 0.001953 36.838 36.84 0 0 0 0 0.001953 36.838 36.84 0 0 0 0 0.001953 36.838 36.84 0 0 0 0 0.001953 36.838 36.84 0 0 0 0 0.001954 36.838 36.84 0 0 0 0 0.001953 36.838 36.84 0 0 0 0 0.001953 36.838 36.84 0 0 0 0 0.001953 36.838 36.84 0 0 0 0 0.001953 36.838 36.84 0 0 0 0 0.001953 36.838 36.84 0 0 0 0 0.001953 36.838 36.84 0 0 0 0 0.001953 36.838 36.84 0 0 0 0 0.001953 36.838 36.84 0 0 0 0 0.001954 36.838 36.84 0 0 0 0 0.001953 36.838 36.84 0 0 0 0 0.001953 36.838 36.84 0 0 0 0 0.001953 36.836 36.838 0 0 0 0 0.001953 36.836 36.838 0 0 0 0 0.001953 36.836 36.838 0 0 0 0 0.001953 36.836 36.838 0 0 0 0 0.001954 36.836 36.838 0 0 0 0 0.001953 36.836 36.838 0 0 0 0 0.001953 36.836 36.838 0 0 0 0 0.001953 36.836 36.838 0 0 0 0 0.001953 36.836 36.838 0 0 0 0 0.001953 36.838 36.84 0 0 1 0 0.003906 36.838 36.84 0 0 1 0 0.00586 36.838 36.84 0 0 1 0 0.005859 36.838 36.84 0 0 1 0 0.009766 36.838 36.84 0 0 1 0 0.005859 36.838 36.84 0 0 1 0 0.005859 36.838 36.84 0 0 1 0 0.009766 36.838 36.84 0 0 1 0 0.00586 36.838 36.84 0 0 1 0 0.005859 36.838 36.84 0 0 1 0 0.009765 36.838 36.84 0 0 1 0 0.00586 36.838 36.84 0 0 1 0 0.005859 36.838 36.84 0 0 1 0 0.009766 36.838 36.84 0 0 1 0 0.005859 36.838 36.84 0 0 1 0 0.00586 36.838 36.84 0 0 1 0 0.009765 36.838 36.84 0 0 1 0 0.00586 36.838 36.84 0 0 1 0 0.005859 36.838 36.84 0 0 1 0 0.005859 36.836 36.838 0 0 1 0 0.007813 36.836 36.838 0 0 1 0 0.013672 36.836 36.838 0 0 1 0 0.013672 36.836 36.838 0 0 1 0 0.013672 36.836 36.838 0 0 1 0 0.013671 36.836 36.838 0 0 1 0 0.017579 36.836 36.838 0 0 1 0 0.013671 36.836 36.838 0 0 1 0 0.013672 36.836 36.838 0 0 1 0 0.013672 36.836 36.838 0 0 1 0 0.013672 36.836 36.838 0 0 1 0 0.009766 36.836 36.838 0 0 1 0 0.007812 36.836 36.838 0 0 1 0 0.017578 36.836 36.838 0 0 1 0 0.013672 36.836 36.838 0 0 1 0 0.017578 36.836 36.838 0 0 1 0 0.017578 36.836 36.838 0 0 1 0 0.013672 36.836 36.838 0 0 1 0 0.017578 36.836 36.838 0 0 1 0 0.017579 36.836 36.838 0 0 1 0 0.013671 36.836 36.838 0 0 1 0 0.009766 36.836 36.838 0 0 0 0 0.001953 36.836 36.838 0 0 0 0 0.001953 36.836 36.838 0 0 0 0 0.001953 36.838 36.84 0 0 1-0.003907 0.27539 36.836 36.838 0 0 0 0 0.001953 36.836 36.838 0 0 0 0 0.001953 36.836 36.838 0 0 0 0 0.001953 36.836 36.838 0 0 0 0 0.001954 36.836 36.838 0 0 0 0 0.001953 36.836 36.838 0 0 1-0.001953 0.14453 36.836 36.838 0 0 1-0.003906 0.14453 36.836 36.838 0 0 1-0.003906 0.14648 36.836 36.838 0 0 1-0.003907 0.14453 36.836 36.838 0 0 1-0.005859 0.14453 36.836 36.838 0 0 1-0.005859 0.14453 36.836 36.838 0 0 1-0.00586 0.14648 36.836 36.838 0 0 1-0.005859 0.14453 36.836 36.838 0 0 1-0.007813 0.14453 36.836 36.838 0 0 1-0.007812 0.14453 36.836 36.838 0 0 1-0.007813 0.14453 36.836 36.838 0 0 1-0.001953 0.044921 36.838 36.84 0 0 1-0.013672 0.19922 36.836 36.838 0 0 1-0.001953 0.046875 36.836 36.838 0 0 1-0.003906 0.050782 36.838 36.84 0 0 1-0.025391 0.33008 36.836 36.838 0 0 1-0.003906 0.05664 36.836 36.838 0 0 1-0.011719 0.14453 36.836 36.838 0 0 1-0.013672 0.14453 36.836 36.838 0 0 1-0.011718 0.14453 36.836 36.838 0 0 1-0.013672 0.14453 36.836 36.838 0 0 1-0.013672 0.14453 36.838 36.84 0 0 1-0.005859 0.056641 36.836 36.838 0 0 1-0.017579 0.17188 36.836 36.838 0 0 1-0.007812 0.060547 36.838 36.84 0 0 1-0.005859 0.060547 36.836 36.838 0 0 1-0.03711 0.32227 36.836 36.838 0 0 1-0.005859 0.052734 36.836 36.838 0 0 1-0.017578 0.14453 36.836 36.838 0 0 1-0.017578 0.14453 36.836 36.838 0 0 1-0.019532 0.14258 36.836 36.838 0 0 1-0.019531 0.14453 36.838 36.84 0 0 1-0.003906 0.029297 36.836 36.838 0 0 1-0.033203 0.23438 36.836 36.838 0 0 1-0.003906 0.02539 36.838 36.84 0 0 1-0.001954 0.019532 36.836 36.838 0 0 1-0.080078 0.53125 36.836 36.838 0 0 1-0.003906 0.027343 36.836 36.838 0 0 1-0.023438 0.14258 36.838 36.84 0 0 1-0.003906 0.021485 36.836 36.838 0 0 1-0.042968 0.24805 36.836 36.838 0 0 1-0.001954 0.017578 36.838 36.84 0 0 1-0.001953 0.017578 36.836 36.838 0 0 1-0.046875 0.25781 36.836 36.838 0 0 1-0.001953 0.011719 36.838 36.84 0 0 1-0.001953 0.013672 36.836 36.838 0 0 1-0.048828 0.26562 36.836 36.838 0 0 1-0.001953 0.007813 36.838 36.84 0 0 1-0.00586 0.037109 36.836 36.838 0 0 1-0.021484 0.10742 36.836 36.838 0 0 1-0.083984 0.42773 36.838 36.84 0 0 0-0.001953 0 36.836 36.838 0 0 1-0.029297 0.14258 36.836 36.838 0 0 1-0.029297 0.14258 36.836 36.838 0 0 1-0.03125 0.14062 36.836 36.838 0 0 1-0.03125 0.14258 36.836 36.838 0 0 1-0.064453 0.2832 36.836 36.838 0 0 1-0.09961 0.42578 36.836 36.838 0 0 1-0.035156 0.14062 36.836 36.838 0 0 1-0.035156 0.14062 36.836 36.838 0 0 1-0.035157 0.14062 36.836 36.838 0 0 1-0.037109 0.14062 36.836 36.838 0 0 1-0.037109 0.13867 36.836 36.838 0 0 1-0.03711 0.14062 36.836 36.838 0 0 1-1.4355 4.2871 36.836 36.838 0 0 1-0.57422 1.3418l-15.088-15.088-0.068359-0.066406-18.35-18.352-15.225-15.225a36.836 36.838 0 0 1 15.092-3.2637zm-16.648 4.0098 16.781 16.781v1.1523 30.943l-16.779 16.781a36.836 36.838 0 0 1-1.709-0.92773v-46.797-17.006a36.836 36.838 0 0 1 1.707-0.92773zm-3.2812 1.8906v61.877a36.836 36.838 0 0 1-16.842-30.939 36.836 36.838 0 0 1 16.842-30.938zm21.637 16.465 14.473 14.475-14.473 14.473v-28.947zm15.623 15.625 1.1504 1.1562 0.070312 0.068359 14.34 14.342a36.836 36.838 0 0 1-0.86328 1.5957c-0.076465 0.13332-0.15236 0.26595-0.23047 0.39844a36.836 36.838 0 0 1-0.55078 0.9043c-0.047564 0.075671-0.096392 0.15132-0.14453 0.22656a36.836 36.838 0 0 1-0.18555 0.28711 36.836 36.838 0 0 1-0.009765 0.015625c-0.047933 0.073385-0.096081 0.14564-0.14453 0.21875a36.836 36.838 0 0 1-0.015625 0.025391 36.836 36.838 0 0 1-0.4707 0.69141c-0.10765 0.15435-0.21619 0.30832-0.32617 0.46094a36.836 36.838 0 0 1-1.2383 1.6211c-0.074165 0.091782-0.14957 0.18244-0.22461 0.27344-0.0019 0.0019-0.002606 0.002759-0.003906 0.005859a36.836 36.838 0 0 1-0.50781 0.60156c-0.14998 0.17407-0.30188 0.34834-0.45508 0.51953a36.836 36.838 0 0 1-0.027344 0.03125c-0.077218 0.086215-0.15634 0.17039-0.23438 0.25586a36.836 36.838 0 0 1-0.015625 0.017579 36.836 36.838 0 0 1-0.097656 0.10742 36.836 36.838 0 0 1-0.099609 0.10742c-0.0026 0.0024-0.005313 0.004713-0.007813 0.007813a36.836 36.838 0 0 1-0.064453 0.070312c-0.048508 0.051873-0.097664 0.1046-0.14648 0.15625a36.836 36.838 0 0 1-0.078125 0.082032 36.836 36.838 0 0 1-0.10352 0.10742c-0.0023 0.0024-0.005912 0.004713-0.007812 0.007813a36.836 36.838 0 0 1-0.16016 0.16602 36.836 36.838 0 0 1-0.005859 0.007812c-0.10379 0.10665-0.20939 0.21304-0.31445 0.31836-0.02839 0.028531-0.055533 0.055525-0.083985 0.083985-0.007329 0.00708-0.016137 0.014084-0.023437 0.021484a36.836 36.838 0 0 1-0.017578 0.019531c-0.065384 0.065043-0.13139 0.12881-0.19727 0.19336a36.836 36.838 0 0 1-0.011719 0.011719c-0.050246 0.049157-0.09987 0.097404-0.15039 0.14648a36.836 36.838 0 0 1-0.14453 0.13867 36.836 36.838 0 0 1-0.019532 0.019531h-0.001953c-0.14016 0.13397-0.28158 0.26716-0.42383 0.39844-0.0026 0.0027-0.005312 0.004712-0.007812 0.007812a36.836 36.838 0 0 1-0.042969 0.039063c-0.054278 0.050138-0.10953 0.10081-0.16406 0.15039-0.0026 0.0027-0.005312 0.004713-0.007812 0.007813a36.836 36.838 0 0 1-0.03125 0.029297c-0.14315 0.12995-0.28647 0.25701-0.43164 0.38476-3e-3 0.0027-0.007265 0.004713-0.009765 0.007813a36.836 36.838 0 0 1-0.007813 0.007812c-0.14463 0.12711-0.29089 0.25418-0.4375 0.37891a36.836 36.838 0 0 1-0.23828 0.20117 36.836 36.838 0 0 1-0.044922 0.03711c-0.00946 0.00771-0.019797 0.015437-0.029297 0.023437a36.836 36.838 0 0 1-0.078125 0.066406 36.836 36.838 0 0 1-0.11719 0.095704c-0.00533 0.00429-0.011978 0.00927-0.017579 0.013672a36.836 36.838 0 0 1-0.095703 0.080078 36.836 36.838 0 0 1-0.017578 0.013672c-0.10362 0.084177-0.20798 0.16904-0.3125 0.25195a36.836 36.838 0 0 1-0.011719 0.007812c-0.0032 0.0027-0.006665 0.004713-0.009765 0.007813a36.836 36.838 0 0 1-0.21875 0.17383 36.836 36.838 0 0 1-0.14648 0.11328c-0.18618 0.14393-0.37361 0.28544-0.5625 0.42578a36.836 36.838 0 0 1-0.085937 0.064453 36.836 36.838 0 0 1-0.019531 0.013672c-0.00727 0.00527-0.014185 0.010625-0.021485 0.015625a36.836 36.838 0 0 1-0.21484 0.15625 36.836 36.838 0 0 1-0.11719 0.085938 36.836 36.838 0 0 1-0.11914 0.085937 36.836 36.838 0 0 1-0.23242 0.16406 36.836 36.838 0 0 1-0.00586 0.003906c-0.11754 0.082536-0.23501 0.16495-0.35352 0.24609a36.836 36.838 0 0 1-0.00586 0.003906 36.836 36.838 0 0 1-0.16992 0.11328c-0.11476 0.077616-0.2281 0.15427-0.34375 0.23047a36.836 36.838 0 0 1-0.18555 0.12305 36.836 36.838 0 0 1-0.029296 0.017578c-0.02626 0.01711-0.053818 0.033791-0.080078 0.050781a36.836 36.838 0 0 1-0.042969 0.029297 36.836 36.838 0 0 1-0.74024 0.46484c-0.065522 0.040091-0.1315 0.079531-0.19726 0.11914a36.836 36.838 0 0 1-0.29102 0.17383 36.836 36.838 0 0 1-0.013672 0.007812c-0.052893 0.03124-0.10518 0.060897-0.1582 0.091797a36.836 36.838 0 0 1-0.3457 0.20117 36.836 36.838 0 0 1-0.81836 0.44922c-0.10781 0.057809-0.21584 0.11508-0.32422 0.17188a36.836 36.838 0 0 1-0.011719 0.005859 36.836 36.838 0 0 1-0.38867 0.20117 36.836 36.838 0 0 1-0.005859 0.003906c-0.062833 0.0319-0.12643 0.06222-0.18945 0.09375a36.836 36.838 0 0 1-1.252 0.59766c-0.096265 0.043772-0.19243 0.086097-0.28906 0.12891a36.836 36.838 0 0 1-0.63672 0.27539 36.836 36.838 0 0 1-0.14648 0.060547h-0.001953a36.836 36.838 0 0 1-0.78711 0.31641 36.836 36.838 0 0 1-0.023437 0.009766c-0.0027 0-0.004711 0.001953-0.007813 0.001953a36.836 36.838 0 0 1-2.5625 0.88672c-0.0628 0.01918-0.12656 0.03777-0.18945 0.05664-0.00552 0.001901-0.010025 0.00276-0.015625 0.00586a36.836 36.838 0 0 1-0.26367 0.078125 36.836 36.838 0 0 1-0.021484 0.005859c-0.06361 0.01843-0.1277 0.036448-0.19141 0.054688a36.836 36.838 0 0 1-0.31836 0.089844c-0.070385 0.019299-0.14045 0.03777-0.21094 0.05664a36.836 36.838 0 0 1-0.30469 0.080078c-0.073415 0.01911-0.14716 0.038091-0.2207 0.056641h-0.005859a36.836 36.838 0 0 1-7.4062 1.0859c-0.01197 0.0031-0.025199 0.001954-0.037109 0.001954a36.836 36.838 0 0 1-1.5723 0.035156 36.836 36.838 0 0 1-15.156-3.2637l15.225-15.225 17.197-17.199z" color="#000000" color-rendering="auto" dominant-baseline="auto" filter="url(#a)" image-rendering="auto" shape-rendering="auto" solid-color="#000000" stop-color="#000000" style="font-feature-settings:normal;font-variant-alternates:normal;font-variant-caps:normal;font-variant-east-asian:normal;font-variant-ligatures:normal;font-variant-numeric:normal;font-variant-position:normal;font-variation-settings:normal;inline-size:0;isolation:auto;mix-blend-mode:normal;paint-order:markers stroke fill;shape-margin:0;shape-padding:0;text-decoration-color:#000000;text-decoration-line:none;text-decoration-style:solid;text-indent:0;text-orientation:mixed;text-transform:none;white-space:normal"/>
<path d="m45.642 29.527v28.948l14.473-14.474z" fill="#e9e8e8" style="paint-order:markers stroke fill"/>
<path transform="matrix(.081785 0 0 .081789 270.41 -2078.3)" d="m-3012.8 25571a450.41 450.41 0 0 0-205.93 378.28 450.41 450.41 0 0 0 205.93 378.28z" fill="#ffdd0a" filter="url(#a)" stroke-linecap="round" stroke-linejoin="round" stroke-width="24.9" style="paint-order:markers stroke fill"/>
<path d="m43.936 7.1628a36.836 36.838 0 0 0-15.092 3.2628l15.225 15.225 18.349 18.35 0.06805 0.06699 15.088 15.089v0.0031a36.836 36.838 0 0 0 1.63e-4 0v-0.0031h0.0013a36.836 36.838 0 0 0 0.5741-1.342 36.838 36.84 0 0 0 3.07e-4 0 36.836 36.838 0 0 0 1.4348-4.2874 36.838 36.84 0 0 0 1.57e-4 0 36.836 36.838 0 0 0 0.03723-0.14013 36.838 36.84 0 0 0 1.56e-4 0 36.836 36.838 0 0 0 0.03673-0.14028 36.838 36.84 0 0 0 1.56e-4 0 36.836 36.838 0 0 0 0.03629-0.14034 36.838 36.84 0 0 0 1.57e-4 0 36.836 36.838 0 0 0 0.0356-0.14059 36.838 36.84 0 0 0 1.57e-4 0 36.836 36.838 0 0 0 0.03497-0.1405 36.838 36.84 0 0 0 1.57e-4 0 36.836 36.838 0 0 0 0.03447-0.14093 36.838 36.84 0 0 0 1.56e-4 0 36.836 36.838 0 0 0 0.10048-0.4253 36.838 36.84 0 0 0 1.63e-4 0 36.836 36.838 0 0 0 0.06405-0.28389 36.838 36.84 0 0 0 1.57e-4 0 36.836 36.838 0 0 0 0.03115-0.14167 36.838 36.84 0 0 0 1.63e-4 0 36.836 36.838 0 0 0 0.03052-0.14164 36.838 36.84 0 0 0 1.57e-4 0 36.836 36.838 0 0 0 0.03002-0.14198 36.838 36.84 0 0 0 1.63e-4 0 36.836 36.838 0 0 0 0.02939-0.14204 36.838 36.84 0 0 0 1.63e-4 0 36.836 36.838 0 0 0 0.08514-0.42863 36.838 36.84 0 0 0 1.57e-4 0 36.836 36.838 0 0 0 0.02043-0.10724 36.838 36.84 0 0 0 0.0069-0.03604 36.836 36.838 0 0 0 0.0019-0.0093 36.836 36.838 0 0 0 0.0487-0.26442 36.838 36.84 0 0 0 0.0025-0.01329 36.836 36.838 0 0 0 0.0019-0.01266 36.836 36.838 0 0 0 0.0455-0.25827 36.838 36.84 0 0 0 0.0025-0.01636 36.836 36.838 0 0 0 0.0031-0.01761 36.836 36.838 0 0 0 0.04187-0.24857 36.838 36.84 0 0 0 0.0038-0.02162 36.836 36.838 0 0 0 0.02313-0.14331 36.838 36.84 0 0 0 1.63e-4 0 36.836 36.838 0 0 0 0.0038-0.02595 36.836 36.838 0 0 0 0.08083-0.53262 36.838 36.84 0 0 0 0.0025-0.01887 36.836 36.838 0 0 0 0.0038-0.02445 36.836 36.838 0 0 0 0.03272-0.23482 36.838 36.84 0 0 0 0.0044-0.02996 36.836 36.838 0 0 0 0.01918-0.14371 36.838 36.84 0 0 0 1.57e-4 0 36.836 36.838 0 0 0 0.01849-0.14396 36.838 36.84 0 0 0 1.57e-4 0 36.836 36.838 0 0 0 0.01805-0.14387 36.838 36.84 0 0 0 1.62e-4 0 36.836 36.838 0 0 0 0.01742-0.14411 36.838 36.84 0 0 0 1.57e-4 0 36.836 36.838 0 0 0 0.0063-0.05315 36.836 36.838 0 0 0 0.0366-0.32235 36.838 36.84 0 0 0 0.0066-0.05961 36.836 36.838 0 0 0 0.0064-0.06199 36.836 36.838 0 0 0 0.01774-0.17135 36.838 36.84 0 0 0 0.0056-0.0571 36.836 36.838 0 0 0 0.01404-0.14436 36.836 36.838 0 0 0 0.01354-0.14461 36.836 36.838 0 0 0 0.01297-0.14461 36.836 36.838 0 0 0 0.01247-0.14452 36.836 36.838 0 0 0 0.01178-0.14476 36.836 36.838 0 0 0 0.0044-0.05591 36.838 36.84 0 0 0 0.02432-0.32971 36.836 36.838 0 0 0 0.0038-0.05039 36.836 36.838 0 0 0 0.0031-0.04713 36.838 36.84 0 0 0 0.0126-0.19877 36.836 36.838 0 0 0 0.0025-0.04475 36.836 36.838 0 0 0 0.0083-0.14482 36.836 36.838 0 0 0 0.0078-0.14492 36.836 36.838 0 0 0 0.0072-0.1451 36.836 36.838 0 0 0 0.0067-0.14501 36.836 36.838 0 0 0 0.0063-0.14501 36.836 36.838 0 0 0 0.0056-0.14502 36.836 36.838 0 0 0 5e-3 -0.14507 36.836 36.838 0 0 0 0.0044-0.1451 36.836 36.838 0 0 0 0.0038-0.14519 36.836 36.838 0 0 0 0.0031-0.14502 36.836 36.838 0 0 0 0.0025-0.14516 36.836 36.838 0 0 0 1.63e-4 -0.0093 36.838 36.84 0 0 0 0.0031-0.27447 36.836 36.838 0 0 0 0-0.0071 36.836 36.838 0 0 0 6.27e-4 -0.14526 36.836 36.838 0 0 0 3.14e-4 -0.1452 36.838 36.84 0 0 0 0-1.51e-4 36.838 36.84 0 0 0-3.14e-4 -0.1294 36.836 36.838 0 0 0 0-0.01605 36.838 36.84 0 0 0-3.07e-4 -0.06485 36.836 36.838 0 0 0-1.63e-4 -0.01605 36.836 36.838 0 0 0-6.27e-4 -0.10822 36.838 36.84 0 0 0-1.56e-4 -0.02162 36.836 36.838 0 0 0-6.27e-4 -0.08096 36.838 36.84 0 0 0-0.0019-0.13005 36.836 36.838 0 0 0-1.63e-4 -0.01605 36.838 36.84 0 0 0-6.21e-4 -0.02413 36.838 36.84 0 0 0-0.0019-0.12112 36.838 36.84 0 0 0-0.0013-0.06489 36.836 36.838 0 0 0-6.26e-4 -0.03272 36.836 36.838 0 0 0-0.0019-0.08065 36.838 36.84 0 0 0-0.0031-0.1136 36.838 36.84 0 0 0-0.0044-0.1384 36.836 36.838 0 0 0-1.63e-4 -0.0074 36.838 36.84 0 0 0-3.07e-4 -0.0074 36.838 36.84 0 0 0-0.0044-0.1383 36.838 36.84 0 0 0-0.0056-0.1459 36.838 36.84 0 0 0-0.0056-0.1303 36.836 36.838 0 0 0-6.14e-4 -0.01548 36.838 36.84 0 0 0-6.21e-4 -0.01548 36.838 36.84 0 0 0-0.0063-0.13036 36.838 36.84 0 0 0-0.0067-0.13675 36.836 36.838 0 0 0-6.14e-4 -9e-3 36.838 36.84 0 0 0-6.21e-4 -0.0093 36.838 36.84 0 0 0-0.0073-0.13642 36.838 36.84 0 0 0-0.0085-0.14569 36.838 36.84 0 0 0-9e-3 -0.14566 36.838 36.84 0 0 0-0.0094-0.14566 36.838 36.84 0 0 0-0.03209-0.43676 36.838 36.84 0 0 0-0.0104-0.12752 36.836 36.838 0 0 0-0.0013-0.01793 36.838 36.84 0 0 0-0.0013-0.01887 36.838 36.84 0 0 0-0.01084-0.12652 36.838 36.84 0 0 0-0.02476-0.27252 36.836 36.838 0 0 0-0.0019-0.01824 36.838 36.84 0 0 0-0.0063-0.06464 36.836 36.838 0 0 0-8e-3 -0.08081 36.838 36.84 0 0 0-6.26e-4 -0.0071 36.838 36.84 0 0 0-0.01391-0.13796 36.838 36.84 0 0 0-0.02983-0.27849 36.836 36.838 0 0 0-0.0013-0.01172 36.838 36.84 0 0 0-0.0013-0.01266 36.838 36.84 0 0 0-0.01504-0.1324 36.838 36.84 0 0 0-0.01711-0.14495 36.838 36.84 0 0 0-0.01755-0.14482 36.838 36.84 0 0 0-0.01824-0.14495 36.838 36.84 0 0 0-0.0168-0.13035 36.836 36.838 0 0 0-0.0019-0.01423 36.838 36.84 0 0 0-0.0019-0.01454 36.838 36.84 0 0 0-0.01742-0.13036 36.838 36.84 0 0 0-0.41579-2.4458 36.838 36.84 0 0 0-0.05973-0.28579 36.838 36.84 0 0 0-0.06199-0.2852 36.838 36.84 0 0 0-0.16484-0.71098 36.838 36.84 0 0 0-0.03466-0.14182 36.838 36.84 0 0 0-0.10735-0.42449 36.838 36.84 0 0 0-0.15095-0.56403 36.838 36.84 0 0 0-1.9334-5.3511h1.57e-4a36.836 36.838 0 0 0-11.754-14.523 36.836 36.838 0 0 0-0.11772-0.08628 36.836 36.838 0 0 0-0.7137-0.50752 36.836 36.838 0 0 0-0.12012-0.08291 36.836 36.838 0 0 0-0.12044-0.08244 36.836 36.838 0 0 0-0.24184-0.16344 36.836 36.838 0 0 0-0.1214-0.08096 36.836 36.838 0 0 0-0.12172-0.0805 36.836 36.838 0 0 0-0.36723-0.2388 36.836 36.838 0 0 0-0.10239-0.06554 36.838 36.84 0 0 0-0.02043-0.01298 36.836 36.838 0 0 0-0.02538-0.01605 36.836 36.838 0 0 0-0.09792-0.06174 36.836 36.838 0 0 0-0.37186-0.23144 36.836 36.838 0 0 0-0.12444-0.07608 36.836 36.838 0 0 0-0.12491-0.07573 36.836 36.838 0 0 0-0.24855-0.14869 36.838 36.84 0 0 0-0.0019 0 36.836 36.838 0 0 0-0.0722-0.04262 36.838 36.84 0 0 0-0.05353-0.03147 36.836 36.838 0 0 0-0.0081-5e-3 36.836 36.838 0 0 0-0.11789-0.06887 36.836 36.838 0 0 0-0.12635-0.07313 36.836 36.838 0 0 0-0.11996-0.06903 36.838 36.84 0 0 0-0.0065-0.0038 36.836 36.838 0 0 0-0.07284-0.04156 36.838 36.84 0 0 0-0.05396-0.03059 36.836 36.838 0 0 0-0.03372-0.01887 36.836 36.838 0 0 0-0.09344-0.05259 36.836 36.838 0 0 0-0.12747-0.07107 36.836 36.838 0 0 0-0.11485-0.06356 36.838 36.84 0 0 0-0.01297-0.0071 36.836 36.838 0 0 0-0.01661-9e-3 36.836 36.838 0 0 0-0.10159-0.05578 36.838 36.84 0 0 0-0.0097-5e-3 36.836 36.838 0 0 0-0.07364-0.04018 36.838 36.84 0 0 0-0.05465-0.02965 36.836 36.838 0 0 0-0.01968-0.01053 36.836 36.838 0 0 0-0.10894-0.05848 36.836 36.838 0 0 0-0.12124-0.0647 36.838 36.84 0 0 0-0.0076-0.0038 36.836 36.838 0 0 0-0.07411-0.03911 36.838 36.84 0 0 0-0.05497-0.02908 36.836 36.838 0 0 0-0.01454-0.0074 36.836 36.838 0 0 0-0.11485-0.06011 36.836 36.838 0 0 0-0.07444-0.03861 36.838 36.84 0 0 0-0.05509-0.02846 36.836 36.838 0 0 0-0.0746-0.03836 36.838 36.84 0 0 0-0.05528-0.02814 36.836 36.838 0 0 0-0.03115-0.01579 36.836 36.838 0 0 0-0.08738-0.04425 36.838 36.84 0 0 0-0.01166-0.0056 36.836 36.838 0 0 0-0.07492-0.03767 36.838 36.84 0 0 0-0.05559-0.02783 36.836 36.838 0 0 0-0.13067-0.065 36.836 36.838 0 0 0-0.07524-0.03723 36.838 36.84 0 0 0-0.02488-0.01203 36.838 36.84 0 0 0-0.08514-0.04168 36.836 36.838 0 0 0-0.02093-0.01022 36.838 36.84 0 0 0-0.05591-0.0272 36.836 36.838 0 0 0-0.07556-0.03654 36.838 36.84 0 0 0-0.01134-0.0056 36.838 36.84 0 0 0-0.09856-0.04726 36.836 36.838 0 0 0-0.02156-0.01053 36.838 36.84 0 0 0-0.0561-0.02658 36.836 36.838 0 0 0-0.07587-0.03598 36.838 36.84 0 0 0-0.0081-0.0038 36.838 36.84 0 0 0-0.12396-0.05829 36.838 36.84 0 0 0-0.10479-0.04895 36.836 36.838 0 0 0-0.02752-0.01266 36.838 36.84 0 0 0-0.05641-0.02595 36.836 36.838 0 0 0-0.07619-0.03491 36.838 36.84 0 0 0-0.05641-0.02564 36.836 36.838 0 0 0-0.07652-0.03485 36.838 36.84 0 0 0-0.01454-0.0065 36.838 36.84 0 0 0-0.11852-0.05334 36.838 36.84 0 0 0-0.05653-0.02532 36.836 36.838 0 0 0-0.03692-0.01636 36.836 36.838 0 0 0-0.07971-0.03523 36.838 36.84 0 0 0-0.0168-0.0074 36.836 36.838 0 0 0-0.07683-0.03385 36.838 36.84 0 0 0-0.0104-0.0044 36.838 36.84 0 0 0-0.12332-0.05384 36.838 36.84 0 0 0-0.11054-0.04789 36.836 36.838 0 0 0-0.0235-0.01022 36.838 36.84 0 0 0-0.05703-0.02444 36.836 36.838 0 0 0-0.07715-0.03284 36.838 36.84 0 0 0-0.01548-0.0065 36.838 36.84 0 0 0-0.11901-0.05021 36.838 36.84 0 0 0-0.1305-0.05466 36.836 36.838 0 0 0-0.0044-0.0031 36.838 36.84 0 0 0-0.0025 0 36.838 36.84 0 0 0-0.13211-0.054594 36.838 36.84 0 0 0-0.12491-0.051146 36.836 36.838 0 0 0-0.01009-0.00376 36.838 36.84 0 0 0-0.01178-0.00501 36.838 36.84 0 0 0-0.12364-0.04983 36.838 36.84 0 0 0-0.11885-0.047574 36.836 36.838 0 0 0-0.01661-0.00677 36.838 36.84 0 0 0-0.01661-0.00652 36.838 36.84 0 0 0-0.11917-0.046947 36.838 36.84 0 0 0-0.09967-0.038924 36.836 36.838 0 0 0-0.03629-0.014228 36.838 36.84 0 0 0-0.05785-0.022564 36.836 36.838 0 0 0-0.07843-0.030274 36.838 36.84 0 0 0-8e-3 -0.00313 36.838 36.84 0 0 0-0.12843-0.04889 36.838 36.84 0 0 0-0.13657-0.051397 36.838 36.84 0 0 0-0.13003-0.048576 36.836 36.838 0 0 0-0.0067-0.00313 36.838 36.84 0 0 0-0.0025 0 36.838 36.84 0 0 0-0.27155-0.099203 36.838 36.84 0 0 0-0.27044-0.096507 36.836 36.838 0 0 0-0.0044-0.00313 36.838 36.84 0 0 0-0.0031 0 36.838 36.84 0 0 0-0.54358-0.18655 36.836 36.838 0 0 0-0.0056-0.00313 36.838 36.84 0 0 0-0.0064-0.00313 36.838 36.84 0 0 0-0.1321-0.043938 36.838 36.84 0 0 0-0.41675-0.13472 36.838 36.84 0 0 0-0.13913-0.04375 36.838 36.84 0 0 0-0.13945-0.043311 36.838 36.84 0 0 0-0.69949-0.20798 36.838 36.84 0 0 0-0.28097-0.079258 36.838 36.84 0 0 0-0.14073-0.038861 36.838 36.84 0 0 0-0.42298-0.11302 36.838 36.84 0 0 0-8.885-1.1911 36.838 36.84 0 0 0-0.03786 0 36.836 36.838 0 0 0-0.37826-0.00313 36.836 36.838 0 0 0-0.06437 0zm-16.648 4.0097a36.836 36.838 0 0 0-1.7081 0.92715v63.803a36.836 36.838 0 0 0 1.709 0.92765l16.779-16.78v-32.096zm33.979 33.98-32.422 32.424a36.836 36.838 0 0 0 15.156 3.2625 36.836 36.838 0 0 0 1.5726-0.03366c0.01191 0 0.02382 0 0.03579-0.0031a36.836 36.838 0 0 0 7.4076-1.0853h5e-3c0.07354-0.01855 0.14703-0.03736 0.22044-0.05647a36.836 36.838 0 0 0 0.30478-0.08047c0.07049-0.01887 0.14095-0.03786 0.21133-0.05716a36.836 36.838 0 0 0 0.31868-0.08912c0.06371-0.01824 0.12743-0.03635 0.19104-0.05478a36.836 36.838 0 0 0 0.02137-0.0063 36.836 36.838 0 0 0 0.2634-0.07777c0.0056-0.0031 0.01109-0.0031 0.01661-5e-3 0.06289-0.01887 0.12568-0.03786 0.18849-0.05704a36.836 36.838 0 0 0 2.5628-0.88691c0.0031 0 0.0063-0.0031 9e-3 -0.0031a36.836 36.838 0 0 0 0.02156-0.0086 36.836 36.838 0 0 0 0.78846-0.31694h0.0025a36.836 36.838 0 0 0 0.14552-0.06086 36.836 36.838 0 0 0 0.63591-0.27466c0.09663-0.04281 0.19318-0.08593 0.28944-0.1297a36.836 36.838 0 0 0 0.0013 0 36.836 36.838 0 0 0 1.252-0.59664c0.06302-0.03153 0.12597-0.06306 0.18881-0.09496a36.836 36.838 0 0 0 5e-3 -0.0031 36.836 36.838 0 0 0 0.38944-0.20044 36.836 36.838 0 0 0 0.01228-0.0065c0.10838-0.05679 0.21662-0.11379 0.32442-0.1716a36.836 36.838 0 0 0 0.81658-0.45048 36.836 36.838 0 0 0 0.34631-0.19933c0.05302-0.0309 0.10605-0.06193 0.15894-0.09317a36.836 36.838 0 0 0 0.01329-0.0077 36.836 36.838 0 0 0 0.2904-0.17323c0.06577-0.03961 0.13143-0.07942 0.19696-0.11951a36.836 36.838 0 0 0 6.26e-4 0 36.836 36.838 0 0 0 0.7407-0.46489 36.836 36.838 0 0 0 0.04362-0.02846c0.02626-0.01699 0.05265-0.03385 0.07891-0.05096a36.836 36.838 0 0 0 0.02858-0.01855 36.836 36.838 0 0 0 0.18561-0.12164c0.11565-0.0762 0.23075-0.15318 0.34551-0.23079a36.836 36.838 0 0 0 0.16884-0.11484 36.836 36.838 0 0 0 0.0056-0.0038c0.1185-0.08114 0.2366-0.16285 0.35414-0.24538a36.836 36.838 0 0 0 5e-3 -0.0031 36.836 36.838 0 0 0 0.23354-0.16532 36.836 36.838 0 0 0 0.11868-0.08504 36.836 36.838 0 0 0 0.11821-0.08541 36.836 36.838 0 0 0 0.21373-0.15645c0.0073-5e-3 0.0146-0.01084 0.02187-0.01611a36.836 36.838 0 0 0 0.01931-0.01454 36.836 36.838 0 0 0 0.08514-0.06306c0.18889-0.14034 0.37642-0.28275 0.5626-0.42668a36.836 36.838 0 0 0 0.14647-0.11369 36.836 36.838 0 0 0 0.21964-0.17289c0.0031-0.0031 0.0065-5e-3 0.0097-0.0077a36.836 36.838 0 0 0 0.01116-9e-3c0.10452-0.08291 0.2085-0.16674 0.31213-0.25092a36.836 36.838 0 0 0 0.01786-0.01454 36.836 36.838 0 0 0 0.0968-0.07907c0.0056-0.0044 0.01078-9e-3 0.01611-0.01329a36.836 36.838 0 0 0 0.11772-0.09691 36.836 36.838 0 0 0 0.07859-0.06554c0.0095-8e-3 0.01912-0.01579 0.02858-0.0235a36.836 36.838 0 0 0 0.04569-0.03824 36.836 36.838 0 0 0 0.23801-0.20096c0.14661-0.12473 0.29225-0.25067 0.43688-0.37778a36.836 36.838 0 0 0 9e-3 -0.0077c0.0025-0.0031 0.0056-5e-3 0.0086-0.0077 0.14517-0.12776 0.28941-0.25642 0.43257-0.38637a36.836 36.838 0 0 0 0.03178-0.02908c0.0025-0.0031 5e-3 -0.0044 0.0076-0.0071 0.05453-0.04958 0.10898-0.09954 0.16325-0.14968a36.836 36.838 0 0 0 0.04406-0.04074c0.0025-0.0031 5e-3 -0.0044 0.0076-0.0071 0.14225-0.13128 0.28362-0.26442 0.42379-0.3984h0.0013a36.836 36.838 0 0 0 0.02043-0.01981 36.836 36.838 0 0 0 0.14296-0.13747c0.05052-0.04908 0.10118-0.09814 0.15143-0.1473a36.836 36.838 0 0 0 0.01103-0.01084c0.06588-0.06455 0.13141-0.12906 0.19679-0.1941a36.836 36.838 0 0 0 0.01918-0.01887c0.0073-0.0074 0.01454-0.01486 0.02187-0.02194 0.02845-0.02846 0.05691-0.05679 0.0853-0.08532 0.10506-0.10531 0.20961-0.2115 0.3134-0.31815a36.836 36.838 0 0 0 0.0064-0.0065 36.836 36.838 0 0 0 0.16102-0.16677c0.0019-0.0031 0.0044-0.0044 0.0067-0.0068a36.836 36.838 0 0 0 0.10399-0.10894 36.836 36.838 0 0 0 0.07763-0.08179c0.04882-0.05165 0.09749-0.10337 0.146-0.15524a36.836 36.838 0 0 0 0.06613-0.07092c0.0025-0.0031 0.0044-5e-3 7e-3 -0.0074a36.836 36.838 0 0 0 0.0992-0.10724 36.836 36.838 0 0 0 0.09872-0.10748 36.836 36.838 0 0 0 0.01579-0.0173c0.07804-0.08547 0.15584-0.17125 0.23306-0.25747a36.836 36.838 0 0 0 0.02777-0.03103c0.15319-0.17119 0.30463-0.34399 0.45461-0.51806a36.836 36.838 0 0 0 0.50844-0.60335c0.0013-0.0031 0.0025-0.0031 0.0044-5e-3 0.07504-0.091 0.14963-0.18229 0.22379-0.27407a36.836 36.838 0 0 0 1.2376-1.6208c0.10998-0.15262 0.2187-0.30622 0.32634-0.46057a36.836 36.838 0 0 0 0.47123-0.69185 36.836 36.838 0 0 0 0.01598-0.02413c0.04845-0.07311 0.09663-0.14631 0.14456-0.21969a36.836 36.838 0 0 0 0.0099-0.01517 36.836 36.838 0 0 0 0.18594-0.28814c0.04814-0.07524 0.09604-0.15072 0.1436-0.2264a36.836 36.838 0 0 0 0.55045-0.90375c0.07811-0.13249 0.15516-0.26557 0.23162-0.3989a36.836 36.838 0 0 0 0.86258-1.5957l-14.34-14.341-0.06965-0.06937z" fill="#e00d1e" style="paint-order:markers fill stroke"/>
</svg>
