# Blender v3.0.1 OBJ File: 'ficha.blend'
# www.blender.org
mtllib ficha.mtl
o ficha_Cube.005
v -0.000000 -1.000000 -0.032947
v -0.023297 -1.000000 -0.023297
v -0.032947 -1.000000 0.000000
v -0.023297 -1.000000 0.023297
v -0.000000 -1.000000 0.032947
v 0.023297 -1.000000 0.023297
v 0.032947 -1.000000 0.000000
v 0.023297 -1.000000 -0.023297
v -0.012594 -1.000000 -0.030404
v -0.030404 -1.000000 -0.012594
v -0.030404 -1.000000 0.012594
v -0.012594 -1.000000 0.030404
v 0.012594 -1.000000 0.030404
v 0.030404 -1.000000 0.012594
v 0.030404 -1.000000 -0.012594
v 0.012594 -1.000000 -0.030404
v -0.003852 -0.950495 -0.009300
v -0.007120 -0.950495 -0.007120
v -0.009300 -0.950495 -0.003852
v -0.010069 -0.950495 0.000000
v -0.009300 -0.950495 0.003852
v -0.007120 -0.950495 0.007120
v -0.003852 -0.950495 0.009300
v 0.000000 -0.950495 0.010069
v 0.003852 -0.950495 0.009300
v 0.007120 -0.950495 0.007120
v 0.009300 -0.950495 0.003852
v 0.010069 -0.950495 0.000000
v 0.009300 -0.950495 -0.003852
v 0.007120 -0.950495 -0.007120
v 0.003852 -0.950495 -0.009300
v 0.000000 -0.911278 -0.015350
v 0.000000 -0.918320 -0.020056
v 0.000000 -0.934935 -0.020056
v 0.000000 -0.946572 -0.009250
v 0.003179 -0.906572 -0.007675
v 0.005874 -0.911278 -0.014182
v 0.007675 -0.918320 -0.018529
v 0.008308 -0.926628 -0.020056
v 0.007675 -0.934935 -0.018529
v 0.005874 -0.941978 -0.014182
v 0.003540 -0.946572 -0.008546
v 0.005874 -0.906572 -0.005874
v 0.010854 -0.911278 -0.010854
v 0.014182 -0.918320 -0.014182
v 0.015350 -0.926628 -0.015350
v 0.014182 -0.934935 -0.014182
v 0.010854 -0.941978 -0.010854
v 0.006541 -0.946572 -0.006541
v 0.007675 -0.906572 -0.003179
v 0.014182 -0.911278 -0.005874
v 0.018530 -0.918320 -0.007675
v 0.020056 -0.926628 -0.008308
v 0.018530 -0.934935 -0.007675
v 0.014182 -0.941978 -0.005874
v 0.008546 -0.946572 -0.003540
v 0.008308 -0.906572 0.000000
v 0.015350 -0.911278 0.000000
v 0.020056 -0.918320 0.000000
v 0.021709 -0.926628 0.000000
v 0.020056 -0.934935 0.000000
v 0.015350 -0.941978 0.000000
v 0.009250 -0.946572 0.000000
v 0.007675 -0.906572 0.003179
v 0.014182 -0.911278 0.005874
v 0.018530 -0.918320 0.007675
v 0.020056 -0.926628 0.008308
v 0.018530 -0.934935 0.007675
v 0.014182 -0.941978 0.005874
v 0.008546 -0.946572 0.003540
v 0.005874 -0.906572 0.005874
v 0.010854 -0.911278 0.010854
v 0.014182 -0.918320 0.014182
v 0.015350 -0.926628 0.015350
v 0.014182 -0.934935 0.014182
v 0.010854 -0.941978 0.010854
v 0.006541 -0.946572 0.006541
v 0.003179 -0.906572 0.007675
v 0.005874 -0.911278 0.014182
v 0.007675 -0.918320 0.018530
v 0.008308 -0.926628 0.020056
v 0.007675 -0.934935 0.018530
v 0.005874 -0.941978 0.014182
v 0.003540 -0.946572 0.008546
v 0.000000 -0.904919 0.000000
v 0.000000 -0.906572 0.008308
v 0.000000 -0.911278 0.015350
v 0.000000 -0.918320 0.020056
v 0.000000 -0.926628 0.021709
v 0.000000 -0.934935 0.020056
v 0.000000 -0.941978 0.015350
v 0.000000 -0.946572 0.009250
v -0.003179 -0.906572 0.007675
v -0.005874 -0.911278 0.014182
v -0.007675 -0.918320 0.018530
v -0.008308 -0.926628 0.020056
v -0.007675 -0.934935 0.018530
v -0.005874 -0.941978 0.014182
v -0.003540 -0.946572 0.008546
v -0.005874 -0.906572 0.005874
v -0.010854 -0.911278 0.010854
v -0.014182 -0.918320 0.014182
v -0.015350 -0.926628 0.015350
v -0.014182 -0.934935 0.014182
v -0.010854 -0.941978 0.010854
v -0.006541 -0.946572 0.006541
v 0.000000 -0.950495 -0.010069
v -0.007675 -0.906572 0.003179
v -0.014182 -0.911278 0.005874
v -0.018530 -0.918320 0.007675
v -0.020056 -0.926628 0.008308
v -0.018530 -0.934935 0.007675
v -0.014182 -0.941978 0.005874
v -0.008546 -0.946572 0.003540
v -0.008308 -0.906572 0.000000
v -0.015350 -0.911278 0.000000
v -0.020056 -0.918320 0.000000
v -0.021709 -0.926628 0.000000
v -0.020056 -0.934935 0.000000
v -0.015350 -0.941978 0.000000
v -0.009250 -0.946572 0.000000
v -0.007675 -0.906572 -0.003179
v -0.014182 -0.911278 -0.005874
v -0.018530 -0.918320 -0.007675
v -0.020056 -0.926628 -0.008308
v -0.018530 -0.934935 -0.007675
v -0.014182 -0.941978 -0.005874
v -0.008546 -0.946572 -0.003540
v -0.005874 -0.906572 -0.005874
v -0.010854 -0.911278 -0.010854
v -0.014182 -0.918320 -0.014182
v -0.015350 -0.926628 -0.015350
v -0.014182 -0.934935 -0.014182
v -0.010854 -0.941978 -0.010854
v -0.006541 -0.946572 -0.006541
v -0.003179 -0.906572 -0.007675
v -0.005874 -0.911278 -0.014182
v -0.007675 -0.918320 -0.018529
v -0.008308 -0.926628 -0.020056
v -0.007675 -0.934935 -0.018529
v -0.005874 -0.941978 -0.014182
v -0.003540 -0.946572 -0.008546
v 0.000000 -0.906572 -0.008308
v 0.000000 -0.926628 -0.021709
v 0.000000 -0.941978 -0.015350
vt 0.284774 0.255063
vt 0.269432 0.264129
vt 0.279259 0.249547
vt 0.257046 0.249439
vt 0.267637 0.263768
vt 0.266789 0.264145
vt 0.272075 0.246508
vt 0.268565 0.263796
vt 0.251422 0.277167
vt 0.265752 0.266576
vt 0.266128 0.267424
vt 0.287705 0.270091
vt 0.270084 0.267448
vt 0.270417 0.266581
vt 0.248492 0.262138
vt 0.248492 0.269939
vt 0.279150 0.282791
vt 0.284666 0.277275
vt 0.264122 0.285721
vt 0.266765 0.268100
vt 0.267632 0.268434
vt 0.270445 0.265653
vt 0.270068 0.264805
vt 0.256938 0.282683
vt 0.287705 0.262291
vt 0.268560 0.268461
vt 0.269408 0.268085
vt 0.266113 0.264781
vt 0.251530 0.254954
vt 0.271922 0.285721
vt 0.265779 0.265648
vt 0.264275 0.246508
vt 0.268988 0.264790
vt 0.268216 0.265531
vt 0.268399 0.264623
vt 0.268296 0.265839
vt 0.268149 0.265900
vt 0.268176 0.265785
vt 0.268149 0.266040
vt 0.268130 0.265972
vt 0.268182 0.265995
vt 0.268123 0.266078
vt 0.268098 0.266115
vt 0.268107 0.266071
vt 0.267791 0.264549
vt 0.267256 0.264848
vt 0.268429 0.265622
vt 0.268227 0.265936
vt 0.268117 0.266026
vt 0.266773 0.265225
vt 0.267984 0.265533
vt 0.268063 0.265897
vt 0.268090 0.266071
vt 0.268081 0.266026
vt 0.268043 0.265780
vt 0.268073 0.265971
vt 0.267982 0.265927
vt 0.268049 0.266039
vt 0.267769 0.265619
vt 0.267920 0.265827
vt 0.268020 0.265992
vt 0.268074 0.266078
vt 0.266607 0.265815
vt 0.267823 0.265917
vt 0.267979 0.266031
vt 0.268062 0.266090
vt 0.266532 0.266422
vt 0.267606 0.265784
vt 0.267919 0.265986
vt 0.268023 0.266064
vt 0.268010 0.266096
vt 0.267956 0.266083
vt 0.268055 0.266106
vt 0.266832 0.266957
vt 0.267515 0.265997
vt 0.267884 0.266064
vt 0.267768 0.266037
vt 0.267209 0.267440
vt 0.267516 0.266229
vt 0.267881 0.266150
vt 0.268009 0.266132
vt 0.267764 0.266170
vt 0.267955 0.266140
vt 0.268055 0.266123
vt 0.268062 0.266139
vt 0.268023 0.266164
vt 0.267603 0.266445
vt 0.267810 0.266293
vt 0.267975 0.266193
vt 0.267798 0.267606
vt 0.267911 0.266231
vt 0.267901 0.266390
vt 0.268047 0.266190
vt 0.268015 0.266234
vt 0.268074 0.266151
vt 0.268406 0.267681
vt 0.267768 0.266607
vt 0.267970 0.266294
vt 0.268090 0.266158
vt 0.268941 0.267382
vt 0.267981 0.266698
vt 0.268048 0.266329
vt 0.268080 0.266203
vt 0.268021 0.266445
vt 0.268067 0.266257
vt 0.268213 0.266697
vt 0.268124 0.266258
vt 0.268134 0.266332
vt 0.268107 0.266158
vt 0.268115 0.266204
vt 0.268154 0.266449
vt 0.268428 0.266610
vt 0.268277 0.266403
vt 0.268177 0.266238
vt 0.268123 0.266151
vt 0.268215 0.266302
vt 0.268148 0.266190
vt 0.268277 0.266243
vt 0.268374 0.266312
vt 0.268173 0.266166
vt 0.268218 0.266198
vt 0.268135 0.266139
vt 0.269423 0.267004
vt 0.268591 0.266445
vt 0.269590 0.266415
vt 0.268428 0.266192
vt 0.268682 0.266232
vt 0.268313 0.266165
vt 0.268142 0.266123
vt 0.268187 0.266133
vt 0.268241 0.266146
vt 0.268316 0.266079
vt 0.268142 0.266106
vt 0.268187 0.266098
vt 0.269664 0.265807
vt 0.268433 0.266059
vt 0.268242 0.266089
vt 0.268681 0.266000
vt 0.268594 0.265785
vt 0.269365 0.265272
vt 0.268386 0.265936
vt 0.268221 0.266036
vt 0.268135 0.266090
vt 0.268286 0.265998
vt 0.268174 0.266065
vn -0.3475 0.4191 -0.8388
vn 0.0000 0.3180 -0.9481
vn 0.0000 0.4195 -0.9077
vn 0.8388 0.4191 -0.3475
vn 0.6704 0.3180 -0.6704
vn 0.8760 0.3178 -0.3628
vn 0.3474 0.4191 -0.8388
vn 0.3628 0.3178 -0.8760
vn 0.3474 0.4191 0.8388
vn 0.6704 0.3180 0.6704
vn 0.3628 0.3178 0.8760
vn -0.8388 0.4191 -0.3475
vn -0.9481 0.3180 0.0000
vn -0.8760 0.3178 -0.3628
vn 0.8388 0.4191 0.3475
vn 0.6419 0.4195 0.6419
vn -0.8388 0.4191 0.3475
vn -0.9077 0.4195 0.0000
vn -0.3475 0.4191 0.8388
vn 0.0000 0.3180 0.9481
vn -0.3628 0.3178 0.8760
vn -0.6704 0.3180 -0.6704
vn -0.3628 0.3178 -0.8760
vn 0.0000 0.4195 0.9077
vn -0.6419 0.4195 -0.6419
vn -0.6704 0.3180 0.6704
vn -0.8760 0.3178 0.3628
vn 0.9481 0.3180 0.0000
vn 0.9077 0.4195 0.0000
vn -0.6419 0.4195 0.6419
vn 0.8760 0.3178 0.3628
vn 0.6419 0.4195 -0.6419
vn 0.0000 -0.3763 -0.9265
vn 0.2818 -0.6766 -0.6803
vn 0.3545 -0.3764 -0.8559
vn 0.0000 -0.3743 -0.9273
vn 0.3827 0.0000 -0.9239
vn 0.3548 -0.3743 -0.8567
vn 0.0000 0.6952 -0.7188
vn 0.3548 0.3743 -0.8567
vn 0.0000 0.3743 -0.9273
vn 0.0000 0.9151 -0.4031
vn 0.0000 1.0000 0.0000
vn 0.1542 0.9152 -0.3724
vn 0.6551 -0.3763 -0.6551
vn 0.8559 -0.3764 -0.3545
vn 0.0000 -0.6766 -0.7363
vn 0.0000 0.0000 -1.0000
vn 0.2751 0.6952 -0.6641
vn 0.9265 -0.3763 0.0000
vn 0.5206 -0.6766 -0.5206
vn 0.7071 0.0000 -0.7071
vn 0.2850 0.9152 -0.2850
vn 0.5083 0.6952 -0.5083
vn 0.6557 -0.3743 -0.6557
vn 0.6557 0.3743 -0.6557
vn 0.9239 0.0000 -0.3827
vn 0.6641 0.6952 -0.2751
vn 0.6803 -0.6766 -0.2817
vn 0.8567 -0.3743 -0.3548
vn 0.8567 0.3743 -0.3548
vn 0.3724 0.9152 -0.1542
vn 0.8559 -0.3764 0.3545
vn 0.9273 -0.3743 0.0000
vn 0.9273 0.3743 0.0000
vn 0.4031 0.9152 0.0000
vn 0.6551 -0.3763 0.6551
vn 0.7363 -0.6766 0.0000
vn 1.0000 0.0000 0.0000
vn 0.7188 0.6952 0.0000
vn 0.6641 0.6952 0.2751
vn 0.8567 0.3743 0.3548
vn 0.3724 0.9152 0.1542
vn 0.3545 -0.3764 0.8559
vn 0.6803 -0.6766 0.2817
vn 0.9239 0.0000 0.3827
vn 0.8567 -0.3743 0.3548
vn 0.0000 -0.3763 0.9265
vn 0.5206 -0.6766 0.5206
vn 0.7071 0.0000 0.7071
vn 0.5083 0.6952 0.5083
vn 0.6557 -0.3743 0.6557
vn 0.6557 0.3743 0.6557
vn 0.2850 0.9152 0.2850
vn 0.1542 0.9152 0.3724
vn 0.2751 0.6952 0.6641
vn 0.2818 -0.6766 0.6803
vn 0.3548 -0.3743 0.8567
vn 0.3548 0.3743 0.8567
vn -0.3545 -0.3764 0.8559
vn 0.3827 0.0000 0.9239
vn 0.0000 -0.3743 0.9273
vn 0.0000 0.6952 0.7188
vn 0.0000 0.3743 0.9273
vn 0.0000 0.9151 0.4031
vn -0.6551 -0.3763 0.6551
vn 0.0000 -0.6766 0.7363
vn 0.0000 0.0000 1.0000
vn -0.1542 0.9152 0.3724
vn -0.8559 -0.3764 0.3545
vn -0.2817 -0.6766 0.6803
vn -0.3827 0.0000 0.9239
vn -0.2751 0.6952 0.6641
vn -0.3548 -0.3743 0.8567
vn -0.3548 0.3743 0.8567
vn -0.5206 -0.6766 0.5206
vn -0.6557 0.3743 0.6557
vn -0.7071 0.0000 0.7071
vn -0.2850 0.9152 0.2850
vn -0.5083 0.6952 0.5083
vn -0.6557 -0.3743 0.6557
vn -0.6803 -0.6766 0.2817
vn -0.8567 -0.3743 0.3548
vn -0.8567 0.3743 0.3548
vn -0.3724 0.9152 0.1542
vn -0.9239 0.0000 0.3827
vn -0.6641 0.6952 0.2751
vn -1.0000 0.0000 0.0000
vn -0.9273 -0.3743 0.0000
vn -0.7188 0.6952 0.0000
vn -0.9273 0.3743 0.0000
vn -0.4031 0.9152 0.0000
vn -0.9265 -0.3763 0.0000
vn -0.7363 -0.6766 0.0000
vn -0.8559 -0.3764 -0.3545
vn -0.8567 -0.3743 -0.3548
vn -0.6803 -0.6766 -0.2817
vn -0.9239 0.0000 -0.3827
vn -0.3724 0.9152 -0.1542
vn -0.6641 0.6952 -0.2751
vn -0.8567 0.3743 -0.3548
vn -0.7071 0.0000 -0.7071
vn -0.2850 0.9152 -0.2850
vn -0.5083 0.6952 -0.5083
vn -0.6551 -0.3763 -0.6551
vn -0.6557 -0.3743 -0.6557
vn -0.6557 0.3743 -0.6557
vn -0.5206 -0.6766 -0.5206
vn -0.2817 -0.6766 -0.6803
vn -0.3545 -0.3764 -0.8559
vn -0.3548 -0.3743 -0.8567
vn -0.3548 0.3743 -0.8567
vn -0.1542 0.9152 -0.3724
vn -0.3827 0.0000 -0.9239
vn -0.2751 0.6952 -0.6641
usemtl Tablero
s 1
f 9/1/1 107/2/2 1/3/3
f 15/4/4 30/5/5 29/6/6
f 16/7/7 107/2/2 31/8/8
f 13/9/9 26/10/10 25/11/11
f 10/12/12 20/13/13 19/14/14
f 14/15/15 26/10/10 6/16/16
f 11/17/17 20/13/13 3/18/18
f 12/19/19 24/20/20 23/21/21
f 9/1/1 18/22/22 17/23/23
f 13/9/9 24/20/20 5/24/24
f 10/12/12 18/22/22 2/25/25
f 11/17/17 22/26/26 21/27/27
f 15/4/4 28/28/28 7/29/29
f 12/19/19 22/26/26 4/30/30
f 14/15/15 28/28/28 27/31/31
f 16/7/7 30/5/5 8/32/32
f 35/33/33 41/34/34 42/35/35
f 34/36/36 39/37/37 40/38/38
f 32/39/39 38/40/40 33/41/41
f 143/42/42 85/43/43 36/44/44
f 29/6/6 49/45/45 56/46/46
f 145/47/47 40/38/38 41/34/34
f 33/41/41 39/37/37 144/48/48
f 32/39/39 36/44/44 37/49/49
f 29/6/6 63/50/50 28/28/28
f 40/38/38 48/51/51 41/34/34
f 38/40/40 46/52/52 39/37/37
f 37/49/49 43/53/53 44/54/54
f 41/34/34 49/45/45 42/35/35
f 40/38/38 46/52/52 47/55/55
f 38/40/40 44/54/54 45/56/56
f 36/44/44 85/43/43 43/53/53
f 45/56/56 53/57/57 46/52/52
f 43/53/53 51/58/58 44/54/54
f 49/45/45 55/59/59 56/46/46
f 46/52/52 54/60/60 47/55/55
f 45/56/56 51/58/58 52/61/61
f 43/53/53 85/43/43 50/62/62
f 27/31/31 63/50/50 70/63/63
f 47/55/55 55/59/59 48/51/51
f 55/59/59 63/50/50 56/46/46
f 53/57/57 61/64/64 54/60/60
f 51/58/58 59/65/65 52/61/61
f 50/62/62 85/43/43 57/66/66
f 27/31/31 77/67/67 26/10/10
f 55/59/59 61/64/64 62/68/68
f 53/57/57 59/65/65 60/69/69
f 50/62/62 58/70/70 51/58/58
f 59/65/65 65/71/71 66/72/72
f 57/66/66 85/43/43 64/73/73
f 25/11/11 77/67/67 84/74/74
f 61/64/64 69/75/75 62/68/68
f 59/65/65 67/76/76 60/69/69
f 58/70/70 64/73/73 65/71/71
f 63/50/50 69/75/75 70/63/63
f 61/64/64 67/76/76 68/77/77
f 25/11/11 92/78/78 24/20/20
f 68/77/77 76/79/79 69/75/75
f 66/72/72 74/80/80 67/76/76
f 64/73/73 72/81/81 65/71/71
f 69/75/75 77/67/67 70/63/63
f 67/76/76 75/82/82 68/77/77
f 66/72/72 72/81/81 73/83/83
f 64/73/73 85/43/43 71/84/84
f 72/81/81 78/85/85 79/86/86
f 77/67/67 83/87/87 84/74/74
f 74/80/80 82/88/88 75/82/82
f 72/81/81 80/89/89 73/83/83
f 71/84/84 85/43/43 78/85/85
f 23/21/21 92/78/78 99/90/90
f 76/79/79 82/88/88 83/87/87
f 74/80/80 80/89/89 81/91/91
f 83/87/87 92/78/78 84/74/74
f 81/91/91 90/92/92 82/88/88
f 80/89/89 87/93/93 88/94/94
f 78/85/85 85/43/43 86/95/95
f 23/21/21 106/96/96 22/26/26
f 82/88/88 91/97/97 83/87/87
f 81/91/91 88/94/94 89/98/98
f 79/86/86 86/95/95 87/93/93
f 86/95/95 85/43/43 93/99/99
f 21/27/27 106/96/96 114/100/100
f 90/92/92 98/101/101 91/97/97
f 88/94/94 96/102/102 89/98/98
f 86/95/95 94/103/103 87/93/93
f 92/78/78 98/101/101 99/90/90
f 90/92/92 96/102/102 97/104/104
f 87/93/93 95/105/105 88/94/94
f 97/104/104 105/106/106 98/101/101
f 96/102/102 102/107/107 103/108/108
f 94/103/103 100/109/109 101/110/110
f 98/101/101 106/96/96 99/90/90
f 96/102/102 104/111/111 97/104/104
f 95/105/105 101/110/110 102/107/107
f 93/99/99 85/43/43 100/109/109
f 31/8/8 35/33/33 42/35/35
f 106/96/96 113/112/112 114/100/100
f 103/108/108 112/113/113 104/111/111
f 101/110/110 110/114/114 102/107/107
f 100/109/109 85/43/43 108/115/115
f 17/23/23 35/33/33 107/2/2
f 105/106/106 112/113/113 113/112/112
f 103/108/108 110/114/114 111/116/116
f 101/110/110 108/115/115 109/117/117
f 112/113/113 118/118/118 119/119/119
f 110/114/114 116/120/120 117/121/121
f 108/115/115 85/43/43 115/122/122
f 21/27/27 121/123/123 20/13/13
f 112/113/113 120/124/124 113/112/112
f 110/114/114 118/118/118 111/116/116
f 108/115/115 116/120/120 109/117/117
f 113/112/112 121/123/123 114/100/100
f 19/14/14 121/123/123 128/125/125
f 120/124/124 126/126/126 127/127/127
f 117/121/121 125/128/128 118/118/118
f 116/120/120 122/129/129 123/130/130
f 121/123/123 127/127/127 128/125/125
f 119/119/119 125/128/128 126/126/126
f 116/120/120 124/131/131 117/121/121
f 115/122/122 85/43/43 122/129/129
f 124/131/131 132/132/132 125/128/128
f 123/130/130 129/133/133 130/134/134
f 127/127/127 135/135/135 128/125/125
f 126/126/126 132/132/132 133/136/136
f 123/130/130 131/137/137 124/131/131
f 122/129/129 85/43/43 129/133/133
f 19/14/14 135/135/135 18/22/22
f 127/127/127 133/136/136 134/138/138
f 135/135/135 141/139/139 142/140/140
f 132/132/132 140/141/141 133/136/136
f 130/134/134 138/142/142 131/137/137
f 129/133/133 85/43/43 136/143/143
f 17/23/23 135/135/135 142/140/140
f 133/136/136 141/139/139 134/138/138
f 132/132/132 138/142/142 139/144/144
f 129/133/133 137/145/145 130/134/134
f 138/142/142 32/39/39 33/41/41
f 136/143/143 85/43/43 143/42/42
f 31/8/8 49/45/45 30/5/5
f 140/141/141 145/47/47 141/139/139
f 139/144/144 33/41/41 144/48/48
f 136/143/143 32/39/39 137/145/145
f 141/139/139 35/33/33 142/140/140
f 139/144/144 34/36/36 140/141/141
f 9/1/1 17/23/23 107/2/2
f 15/4/4 8/32/32 30/5/5
f 16/7/7 1/3/3 107/2/2
f 13/9/9 6/16/16 26/10/10
f 10/12/12 3/18/18 20/13/13
f 14/15/15 27/31/31 26/10/10
f 11/17/17 21/27/27 20/13/13
f 12/19/19 5/24/24 24/20/20
f 9/1/1 2/25/25 18/22/22
f 13/9/9 25/11/11 24/20/20
f 10/12/12 19/14/14 18/22/22
f 11/17/17 4/30/30 22/26/26
f 15/4/4 29/6/6 28/28/28
f 12/19/19 23/21/21 22/26/26
f 14/15/15 7/29/29 28/28/28
f 16/7/7 31/8/8 30/5/5
f 35/33/33 145/47/47 41/34/34
f 34/36/36 144/48/48 39/37/37
f 32/39/39 37/49/49 38/40/40
f 29/6/6 30/5/5 49/45/45
f 145/47/47 34/36/36 40/38/38
f 33/41/41 38/40/40 39/37/37
f 32/39/39 143/42/42 36/44/44
f 29/6/6 56/46/46 63/50/50
f 40/38/38 47/55/55 48/51/51
f 38/40/40 45/56/56 46/52/52
f 37/49/49 36/44/44 43/53/53
f 41/34/34 48/51/51 49/45/45
f 40/38/38 39/37/37 46/52/52
f 38/40/40 37/49/49 44/54/54
f 45/56/56 52/61/61 53/57/57
f 43/53/53 50/62/62 51/58/58
f 49/45/45 48/51/51 55/59/59
f 46/52/52 53/57/57 54/60/60
f 45/56/56 44/54/54 51/58/58
f 27/31/31 28/28/28 63/50/50
f 47/55/55 54/60/60 55/59/59
f 55/59/59 62/68/68 63/50/50
f 53/57/57 60/69/69 61/64/64
f 51/58/58 58/70/70 59/65/65
f 27/31/31 70/63/63 77/67/67
f 55/59/59 54/60/60 61/64/64
f 53/57/57 52/61/61 59/65/65
f 50/62/62 57/66/66 58/70/70
f 59/65/65 58/70/70 65/71/71
f 25/11/11 26/10/10 77/67/67
f 61/64/64 68/77/77 69/75/75
f 59/65/65 66/72/72 67/76/76
f 58/70/70 57/66/66 64/73/73
f 63/50/50 62/68/68 69/75/75
f 61/64/64 60/69/69 67/76/76
f 25/11/11 84/74/74 92/78/78
f 68/77/77 75/82/82 76/79/79
f 66/72/72 73/83/83 74/80/80
f 64/73/73 71/84/84 72/81/81
f 69/75/75 76/79/79 77/67/67
f 67/76/76 74/80/80 75/82/82
f 66/72/72 65/71/71 72/81/81
f 72/81/81 71/84/84 78/85/85
f 77/67/67 76/79/79 83/87/87
f 74/80/80 81/91/91 82/88/88
f 72/81/81 79/86/86 80/89/89
f 23/21/21 24/20/20 92/78/78
f 76/79/79 75/82/82 82/88/88
f 74/80/80 73/83/83 80/89/89
f 83/87/87 91/97/97 92/78/78
f 81/91/91 89/98/98 90/92/92
f 80/89/89 79/86/86 87/93/93
f 23/21/21 99/90/90 106/96/96
f 82/88/88 90/92/92 91/97/97
f 81/91/91 80/89/89 88/94/94
f 79/86/86 78/85/85 86/95/95
f 21/27/27 22/26/26 106/96/96
f 90/92/92 97/104/104 98/101/101
f 88/94/94 95/105/105 96/102/102
f 86/95/95 93/99/99 94/103/103
f 92/78/78 91/97/97 98/101/101
f 90/92/92 89/98/98 96/102/102
f 87/93/93 94/103/103 95/105/105
f 97/104/104 104/111/111 105/106/106
f 96/102/102 95/105/105 102/107/107
f 94/103/103 93/99/99 100/109/109
f 98/101/101 105/106/106 106/96/96
f 96/102/102 103/108/108 104/111/111
f 95/105/105 94/103/103 101/110/110
f 31/8/8 107/2/2 35/33/33
f 106/96/96 105/106/106 113/112/112
f 103/108/108 111/116/116 112/113/113
f 101/110/110 109/117/117 110/114/114
f 17/23/23 142/140/140 35/33/33
f 105/106/106 104/111/111 112/113/113
f 103/108/108 102/107/107 110/114/114
f 101/110/110 100/109/109 108/115/115
f 112/113/113 111/116/116 118/118/118
f 110/114/114 109/117/117 116/120/120
f 21/27/27 114/100/100 121/123/123
f 112/113/113 119/119/119 120/124/124
f 110/114/114 117/121/121 118/118/118
f 108/115/115 115/122/122 116/120/120
f 113/112/112 120/124/124 121/123/123
f 19/14/14 20/13/13 121/123/123
f 120/124/124 119/119/119 126/126/126
f 117/121/121 124/131/131 125/128/128
f 116/120/120 115/122/122 122/129/129
f 121/123/123 120/124/124 127/127/127
f 119/119/119 118/118/118 125/128/128
f 116/120/120 123/130/130 124/131/131
f 124/131/131 131/137/137 132/132/132
f 123/130/130 122/129/129 129/133/133
f 127/127/127 134/138/138 135/135/135
f 126/126/126 125/128/128 132/132/132
f 123/130/130 130/134/134 131/137/137
f 19/14/14 128/125/125 135/135/135
f 127/127/127 126/126/126 133/136/136
f 135/135/135 134/138/138 141/139/139
f 132/132/132 139/144/144 140/141/141
f 130/134/134 137/145/145 138/142/142
f 17/23/23 18/22/22 135/135/135
f 133/136/136 140/141/141 141/139/139
f 132/132/132 131/137/137 138/142/142
f 129/133/133 136/143/143 137/145/145
f 138/142/142 137/145/145 32/39/39
f 31/8/8 42/35/35 49/45/45
f 140/141/141 34/36/36 145/47/47
f 139/144/144 138/142/142 33/41/41
f 136/143/143 143/42/42 32/39/39
f 141/139/139 145/47/47 35/33/33
f 139/144/144 144/48/48 34/36/36
